<svg width="1075" height="162" viewBox="0 0 1075 162" fill="none" xmlns="http://www.w3.org/2000/svg">
<path fill-rule="evenodd" clip-rule="evenodd" d="M1075 80.6155H781V73.6155H1075V80.6155Z" fill="url(#paint0_linear_204_665)"/>
<path fill-rule="evenodd" clip-rule="evenodd" d="M109 81.6155H0L6.24338e-07 74.6155H109V81.6155Z" fill="url(#paint1_linear_204_665)"/>
<path d="M334.109 145.121C333.829 145.121 333.604 144.992 333.432 144.734C333.26 144.477 333.174 144.144 333.174 143.735C333.174 142.812 333.561 142.35 334.334 142.35C334.957 142.35 335.591 142.253 336.236 142.06C336.88 141.845 337.632 141.49 338.491 140.996C337.653 139.535 337.235 137.817 337.235 135.84C337.235 134.508 337.482 133.337 337.976 132.328C338.47 131.297 339.157 130.491 340.038 129.911C340.919 129.309 341.918 129.009 343.035 129.009C343.98 129.009 344.818 129.234 345.549 129.685C346.279 130.115 346.848 130.716 347.257 131.49C347.665 132.263 347.869 133.155 347.869 134.165C347.869 135.54 347.461 136.796 346.644 137.935C345.849 139.074 344.496 140.309 342.584 141.641C343.271 142.135 344.195 142.382 345.355 142.382C345.978 142.382 346.601 142.296 347.224 142.124C347.847 141.952 348.449 141.716 349.029 141.415C349.351 141.652 349.588 142.006 349.738 142.479C349.91 142.93 349.996 143.37 349.996 143.8C349.287 144.208 348.535 144.53 347.74 144.767C346.945 145.003 346.107 145.121 345.226 145.121H345.194C344.163 145.121 343.196 144.949 342.294 144.606C341.392 144.262 340.64 143.789 340.038 143.188C337.976 144.477 335.999 145.121 334.109 145.121ZM340.038 135.583C340.038 137.28 340.339 138.633 340.94 139.643C342.337 138.676 343.368 137.731 344.034 136.807C344.721 135.883 345.065 135.002 345.065 134.165C345.065 133.391 344.872 132.79 344.485 132.36C344.12 131.909 343.604 131.683 342.938 131.683C342.101 131.683 341.402 132.059 340.844 132.811C340.307 133.563 340.038 134.487 340.038 135.583Z" fill="url(#paint2_linear_204_665)"/>
<path d="M308.177 145.121C307.898 145.121 307.673 144.992 307.501 144.734C307.329 144.477 307.243 144.144 307.243 143.735C307.243 142.812 307.63 142.35 308.403 142.35C309.09 142.35 309.703 142.006 310.24 141.319C310.798 140.61 311.282 139.439 311.69 137.806L312.657 134.036C313.559 130.684 315.278 129.009 317.813 129.009C318.78 129.009 319.596 129.299 320.262 129.879C320.928 130.437 321.39 131.2 321.648 132.167C322.249 131.157 323.022 130.384 323.968 129.846C324.913 129.288 325.966 129.009 327.126 129.009C328.802 129.009 330.091 129.556 330.993 130.652C331.917 131.748 332.379 133.284 332.379 135.26V139.031C332.379 140.212 332.529 141.061 332.83 141.576C333.152 142.092 333.657 142.35 334.344 142.35C334.645 142.35 334.871 142.479 335.021 142.737C335.193 142.994 335.279 143.338 335.279 143.768C335.279 144.111 335.182 144.423 334.989 144.702C334.817 144.982 334.527 145.121 334.119 145.121C331.004 145.121 329.446 143.209 329.446 139.385V135.26C329.446 132.94 328.533 131.78 326.707 131.78C325.762 131.78 324.924 132.156 324.193 132.908C323.484 133.66 322.926 134.702 322.518 136.034C322.131 137.366 321.938 138.912 321.938 140.674V144.67C321.723 144.734 321.486 144.788 321.229 144.831C320.971 144.874 320.724 144.896 320.487 144.896C319.972 144.896 319.488 144.82 319.037 144.67V134.39C319.037 133.552 318.93 132.908 318.715 132.457C318.5 132.006 318.114 131.78 317.555 131.78C317.104 131.78 316.717 131.984 316.395 132.392C316.073 132.8 315.793 133.456 315.557 134.358L314.365 138.998C313.806 141.125 313.033 142.683 312.044 143.671C311.056 144.638 309.767 145.121 308.177 145.121Z" fill="url(#paint3_linear_204_665)"/>
<path d="M298.616 142.35C299.067 142.35 299.55 142.21 300.066 141.931C300.581 141.652 301.065 141.222 301.516 140.642C302.053 139.911 302.44 139.074 302.676 138.128C302.934 137.183 303.095 136.227 303.159 135.26V129.46C303.353 129.395 303.578 129.342 303.836 129.299C304.094 129.256 304.363 129.234 304.642 129.234C305.136 129.234 305.619 129.309 306.092 129.46V138.741C306.092 139.879 306.264 140.771 306.608 141.415C306.973 142.038 307.574 142.35 308.412 142.35C308.777 142.35 309.024 142.5 309.153 142.801C309.282 143.102 309.347 143.424 309.347 143.768C309.347 144.111 309.25 144.423 309.057 144.702C308.885 144.982 308.595 145.121 308.187 145.121C305.952 145.121 304.502 144.069 303.836 141.963C303.535 142.457 303.213 142.876 302.869 143.22C302.289 143.8 301.613 144.262 300.839 144.606C300.087 144.949 299.271 145.121 298.39 145.121C298.089 145.121 297.864 144.971 297.713 144.67C297.542 144.391 297.456 144.079 297.456 143.736C297.456 143.37 297.552 143.048 297.746 142.769C297.918 142.489 298.208 142.35 298.616 142.35ZM304.674 124.819C304.073 124.819 303.557 124.604 303.127 124.175C302.698 123.745 302.483 123.23 302.483 122.628C302.483 121.983 302.687 121.457 303.095 121.049C303.525 120.641 304.051 120.437 304.674 120.437C305.319 120.437 305.845 120.641 306.253 121.049C306.661 121.457 306.865 121.983 306.865 122.628C306.865 123.251 306.651 123.777 306.221 124.207C305.813 124.615 305.297 124.819 304.674 124.819Z" fill="url(#paint4_linear_204_665)"/>
<path d="M275.312 145.121C275.032 145.121 274.807 144.992 274.635 144.734C274.441 144.477 274.345 144.144 274.345 143.736C274.345 142.833 274.742 142.382 275.537 142.382C277.084 142.382 278.502 141.845 279.791 140.771C281.08 139.675 282.229 138.118 283.239 136.098V119.567C283.239 117.418 283.69 115.764 284.592 114.604C285.516 113.444 286.848 112.874 288.588 112.896C290.178 112.917 291.413 113.519 292.294 114.701C293.197 115.882 293.648 117.418 293.648 119.309C293.648 122.445 292.702 125.936 290.812 129.782C290.962 129.76 291.113 129.75 291.263 129.75C292.874 129.75 294.153 130.319 295.098 131.458C296.065 132.596 296.548 134.122 296.548 136.034V138.805C296.548 140.051 296.698 140.953 296.999 141.512C297.321 142.071 297.848 142.35 298.578 142.35C298.922 142.35 299.169 142.489 299.319 142.769C299.47 143.027 299.545 143.36 299.545 143.768C299.545 144.176 299.438 144.498 299.223 144.734C299.029 144.992 298.75 145.121 298.385 145.121C296.838 145.121 295.646 144.627 294.808 143.639C293.991 142.629 293.583 141.211 293.583 139.385V135.969C293.583 134.874 293.336 134.025 292.842 133.423C292.369 132.8 291.693 132.489 290.812 132.489C289.953 132.489 289.179 132.779 288.492 133.359C287.804 133.918 287.256 134.691 286.848 135.679C286.44 136.667 286.225 137.806 286.204 139.095V144.67C285.989 144.734 285.753 144.788 285.495 144.831C285.237 144.874 284.99 144.896 284.754 144.896C284.259 144.896 283.755 144.82 283.239 144.67V141.061C282.186 142.436 280.972 143.456 279.598 144.122C278.223 144.788 276.794 145.121 275.312 145.121ZM286.107 119.534V132.231C287.611 129.954 288.76 127.698 289.555 125.464C290.372 123.23 290.78 121.167 290.78 119.277C290.78 118.073 290.576 117.16 290.167 116.537C289.781 115.893 289.211 115.571 288.459 115.571C286.891 115.571 286.107 116.892 286.107 119.534Z" fill="url(#paint5_linear_204_665)"/>
<path d="M258.895 145.121C258.616 145.121 258.391 144.992 258.219 144.734C258.047 144.477 257.961 144.144 257.961 143.735C257.961 142.812 258.348 142.35 259.121 142.35C259.808 142.35 260.571 141.931 261.409 141.093C262.247 140.234 263.224 138.859 264.341 136.968L267.79 131.135C267.747 130.835 267.725 130.512 267.725 130.169C267.725 129.094 267.918 128.3 268.305 127.784C268.713 127.268 269.046 126.957 269.304 126.849C269.669 126.764 270.056 126.774 270.464 126.882C270.894 126.968 271.281 127.118 271.624 127.333C271.968 127.548 272.204 127.805 272.333 128.106C272.247 128.493 272.086 128.955 271.85 129.492C271.614 130.029 271.238 130.749 270.722 131.651C270.872 131.887 271.066 132.124 271.302 132.36C271.538 132.596 271.828 132.854 272.172 133.133L274.621 135.131C275.502 135.84 276.157 136.581 276.587 137.355C277.038 138.107 277.264 138.955 277.264 139.901C277.264 141.039 276.942 142.049 276.297 142.93C276.404 143.166 276.458 143.445 276.458 143.768C276.458 144.176 276.351 144.498 276.136 144.734C275.943 144.992 275.663 145.121 275.298 145.121C274.954 145.121 274.621 145.1 274.299 145.057C273.977 145.014 273.622 144.96 273.236 144.896C272.656 145.046 272.043 145.121 271.399 145.121C270.647 145.121 269.895 145.003 269.143 144.767C268.391 144.552 267.607 144.197 266.791 143.703C266.748 142.565 267.177 141.727 268.08 141.19C269.261 141.963 270.378 142.35 271.431 142.35C272.333 142.35 273.053 142.113 273.59 141.641C274.127 141.147 274.396 140.524 274.396 139.772C274.396 138.827 273.88 137.946 272.849 137.129L270.4 135.196C269.97 134.852 269.583 134.498 269.24 134.132L266.017 139.578C264.836 141.576 263.697 143.005 262.601 143.864C261.527 144.702 260.292 145.121 258.895 145.121Z" fill="url(#paint6_linear_204_665)"/>
<path d="M232.964 145.121C232.685 145.121 232.459 144.992 232.287 144.734C232.116 144.477 232.03 144.144 232.03 143.735C232.03 142.812 232.416 142.35 233.19 142.35C233.877 142.35 234.489 142.006 235.027 141.319C235.585 140.61 236.068 139.439 236.477 137.806L237.443 134.036C238.346 130.684 240.064 129.009 242.599 129.009C243.566 129.009 244.383 129.299 245.049 129.879C245.715 130.437 246.176 131.2 246.434 132.167C247.036 131.157 247.809 130.384 248.755 129.846C249.7 129.288 250.752 129.009 251.913 129.009C253.588 129.009 254.877 129.556 255.78 130.652C256.703 131.748 257.165 133.284 257.165 135.26V139.031C257.165 140.212 257.316 141.061 257.616 141.576C257.939 142.092 258.444 142.35 259.131 142.35C259.432 142.35 259.657 142.479 259.808 142.737C259.98 142.994 260.066 143.338 260.066 143.768C260.066 144.111 259.969 144.423 259.776 144.702C259.604 144.982 259.314 145.121 258.905 145.121C255.79 145.121 254.233 143.209 254.233 139.385V135.26C254.233 132.94 253.32 131.78 251.494 131.78C250.548 131.78 249.711 132.156 248.98 132.908C248.271 133.66 247.713 134.702 247.304 136.034C246.918 137.366 246.724 138.912 246.724 140.674V144.67C246.509 144.734 246.273 144.788 246.015 144.831C245.758 144.874 245.51 144.896 245.274 144.896C244.759 144.896 244.275 144.82 243.824 144.67V134.39C243.824 133.552 243.717 132.908 243.502 132.457C243.287 132.006 242.9 131.78 242.342 131.78C241.891 131.78 241.504 131.984 241.182 132.392C240.859 132.8 240.58 133.456 240.344 134.358L239.151 138.998C238.593 141.125 237.819 142.683 236.831 143.671C235.843 144.638 234.554 145.121 232.964 145.121Z" fill="url(#paint7_linear_204_665)"/>
<path d="M208.597 145.121C208.275 145.121 208.028 144.992 207.856 144.734C207.662 144.477 207.566 144.144 207.566 143.735C207.566 143.306 207.673 142.973 207.888 142.736C208.103 142.5 208.382 142.382 208.726 142.382C210.251 142.382 211.605 141.952 212.786 141.093C213.989 140.212 214.934 139.009 215.622 137.484C216.309 135.958 216.653 134.218 216.653 132.263V129.46C216.847 129.395 217.072 129.341 217.33 129.299C217.588 129.256 217.856 129.234 218.136 129.234C218.63 129.234 219.113 129.309 219.586 129.46V136.904C219.586 138.773 219.886 140.137 220.488 140.996C221.09 141.834 222.035 142.253 223.324 142.253C226.396 142.253 227.932 140.008 227.932 135.518V129.46C228.104 129.395 228.319 129.341 228.577 129.299C228.834 129.256 229.103 129.234 229.382 129.234C229.898 129.234 230.392 129.309 230.865 129.46V138.74C230.865 139.879 231.036 140.771 231.38 141.415C231.745 142.038 232.347 142.35 233.185 142.35C233.55 142.35 233.797 142.5 233.926 142.801C234.055 143.102 234.119 143.424 234.119 143.768C234.119 144.111 234.023 144.423 233.829 144.702C233.657 144.981 233.367 145.121 232.959 145.121C230.897 145.121 229.5 144.219 228.77 142.414C228.168 143.295 227.395 143.972 226.45 144.444C225.504 144.896 224.387 145.121 223.098 145.121C219.962 145.121 217.964 143.585 217.104 140.513C216.159 141.952 214.956 143.08 213.495 143.897C212.034 144.713 210.401 145.121 208.597 145.121Z" fill="url(#paint8_linear_204_665)"/>
<path d="M192.602 143.027C194.256 141.157 195.76 139.235 197.113 137.258C198.467 135.26 199.767 133.166 201.013 130.974C200.97 130.716 200.948 130.448 200.948 130.169C200.948 129.094 201.141 128.3 201.528 127.784C201.936 127.268 202.269 126.957 202.527 126.849C202.892 126.764 203.279 126.774 203.687 126.882C204.117 126.968 204.504 127.118 204.847 127.333C205.191 127.548 205.427 127.805 205.556 128.106C205.492 128.514 205.299 129.03 204.976 129.653C204.676 130.276 204.321 130.931 203.913 131.619C204.063 131.877 204.257 132.124 204.493 132.36C204.751 132.596 205.051 132.854 205.395 133.133L207.844 135.131C208.725 135.84 209.38 136.581 209.81 137.355C210.261 138.107 210.487 138.955 210.487 139.901C210.487 141.039 210.165 142.049 209.52 142.93C209.627 143.166 209.681 143.445 209.681 143.768C209.681 144.176 209.574 144.498 209.359 144.734C209.166 144.992 208.886 145.121 208.521 145.121C208.177 145.121 207.844 145.1 207.522 145.057C207.2 145.014 206.845 144.96 206.459 144.896C205.879 145.046 205.266 145.121 204.622 145.121C203.87 145.121 203.118 145.003 202.366 144.767C201.614 144.552 200.83 144.197 200.014 143.703C199.971 142.565 200.4 141.727 201.303 141.19C202.484 141.963 203.601 142.35 204.654 142.35C205.556 142.35 206.276 142.113 206.813 141.641C207.35 141.147 207.619 140.524 207.619 139.772C207.619 138.827 207.103 137.946 206.072 137.129L203.623 135.196C203.172 134.852 202.785 134.487 202.463 134.1C201.689 135.389 200.841 136.721 199.917 138.096C199.015 139.45 198.112 140.728 197.21 141.931C196.308 143.112 195.491 144.09 194.761 144.863C193.558 144.734 192.838 144.122 192.602 143.027Z" fill="url(#paint9_linear_204_665)"/>
<path d="M170.619 145.121C168.536 145.121 166.935 144.423 165.818 143.026C164.722 141.63 164.174 139.6 164.174 136.936V133.23C163.508 133.595 162.746 133.885 161.886 134.1C161.049 134.315 160.157 134.422 159.212 134.422C158.159 134.422 157.246 134.283 156.473 134.003C155.893 133.81 155.603 133.434 155.603 132.876C155.603 132.467 155.721 132.124 155.957 131.844C156.172 131.565 156.43 131.425 156.73 131.425C156.816 131.425 156.892 131.436 156.956 131.458C157.02 131.458 157.085 131.468 157.149 131.49C157.515 131.576 157.88 131.651 158.245 131.715C158.61 131.758 158.986 131.78 159.373 131.78C160.469 131.78 161.51 131.533 162.499 131.039C163.508 130.523 164.207 129.9 164.593 129.17C165.045 129.127 165.506 129.18 165.979 129.331C166.452 129.481 166.828 129.739 167.107 130.104V136.904C167.107 138.773 167.408 140.137 168.009 140.996C168.611 141.834 169.556 142.253 170.845 142.253C173.917 142.253 175.453 140.008 175.453 135.518V129.46C175.625 129.395 175.84 129.342 176.098 129.299C176.356 129.256 176.624 129.234 176.903 129.234C177.419 129.234 177.913 129.309 178.386 129.46V142.898C178.837 142.575 179.299 142.264 179.771 141.963C180.266 141.641 180.684 141.383 181.028 141.19C181.458 141.447 181.791 141.78 182.027 142.189C182.264 142.597 182.414 143.069 182.478 143.607C182.156 143.821 181.737 144.101 181.222 144.444C180.727 144.767 180.223 145.1 179.707 145.443C179.191 145.787 178.751 146.077 178.386 146.313V153.693C178.386 158.72 176.549 161.234 172.875 161.234C171.178 161.234 169.846 160.729 168.879 159.719C167.934 158.709 167.461 157.324 167.461 155.562C167.461 151.631 170.147 147.946 175.518 144.509V143.349C174.293 144.53 172.66 145.121 170.619 145.121ZM170.362 155.498C170.362 156.421 170.577 157.141 171.006 157.657C171.436 158.194 172.027 158.462 172.779 158.462C174.605 158.462 175.518 156.873 175.518 153.693V147.925C172.08 150.352 170.362 152.877 170.362 155.498Z" fill="url(#paint10_linear_204_665)"/>
<path d="M142.275 144.928C141.351 144.391 140.75 143.574 140.47 142.479C141.158 142.006 141.877 141.415 142.629 140.706C143.381 139.976 144.036 139.256 144.595 138.547C144.294 137.001 144.144 134.906 144.144 132.263V123.305C144.144 121.522 144.198 120.082 144.305 118.987C144.434 117.891 144.638 116.978 144.917 116.247C145.325 115.173 145.916 114.346 146.69 113.766C147.463 113.186 148.376 112.896 149.429 112.896C150.89 112.896 152.061 113.616 152.941 115.055C153.822 116.473 154.263 118.385 154.263 120.791C154.263 122.66 154.08 124.508 153.715 126.334C153.371 128.139 152.898 129.868 152.297 131.522C151.695 133.176 151.008 134.691 150.234 136.066C149.461 137.441 148.655 138.623 147.818 139.611C147.861 139.718 147.914 139.826 147.979 139.933C148.43 140.728 148.956 141.319 149.558 141.705C150.181 142.071 150.943 142.253 151.846 142.253C152.812 142.253 153.661 141.985 154.392 141.448C155.122 140.91 155.691 140.169 156.099 139.224C156.508 138.257 156.712 137.151 156.712 135.905C156.712 135.454 156.68 135.003 156.615 134.551C155.262 133.692 154.37 132.929 153.94 132.263C154.091 131.834 154.327 131.426 154.649 131.039C154.993 130.631 155.369 130.308 155.777 130.072C156.185 129.814 156.572 129.685 156.937 129.685C157.431 129.685 157.883 129.954 158.291 130.491C158.699 131.007 159.021 131.705 159.258 132.586C159.515 133.445 159.644 134.401 159.644 135.454C159.644 137.387 159.322 139.074 158.677 140.513C158.054 141.931 157.152 143.037 155.971 143.832C154.81 144.606 153.436 144.992 151.846 144.992C148.988 144.992 146.937 143.918 145.691 141.77C145.261 142.264 144.767 142.78 144.208 143.317C143.65 143.854 143.005 144.391 142.275 144.928ZM146.851 131.619C146.851 133.445 146.905 134.938 147.012 136.098C147.85 134.831 148.612 133.359 149.3 131.683C149.987 129.986 150.525 128.203 150.911 126.334C151.319 124.443 151.523 122.585 151.523 120.759C151.523 117.3 150.772 115.571 149.268 115.571C148.387 115.571 147.753 116.162 147.366 117.343C147.023 118.396 146.851 120.254 146.851 122.918V131.619Z" fill="url(#paint11_linear_204_665)"/>
<path d="M683.821 96.4995C686.227 96.4995 688.563 95.3335 690.827 93.0015C693.162 90.5988 695.109 87.3835 696.665 83.3555C696.595 82.3662 696.559 81.3768 696.559 80.3875C696.559 75.0168 697.621 70.2468 699.744 66.0775C701.867 61.9082 704.733 58.6222 708.342 56.2195C712.021 53.8168 716.197 52.6155 720.867 52.6155C723.344 52.6155 725.785 53.1102 728.191 54.0995C730.597 55.0182 732.614 56.2902 734.242 57.9155V53.5695C734.879 53.3575 735.622 53.1808 736.471 53.0395C737.32 52.8982 738.205 52.8275 739.125 52.8275C740.823 52.8275 742.415 53.0748 743.901 53.5695V84.6275C743.901 88.3728 744.467 91.3055 745.6 93.4255C746.803 95.4748 748.784 96.4995 751.544 96.4995C752.322 96.4995 753.172 96.3228 754.092 95.9695C755.012 95.6162 755.967 95.0862 756.958 94.3795C758.161 94.9448 759.151 95.9342 759.93 97.3475C760.708 98.6902 761.062 100.033 760.991 101.376C759.859 102.648 758.408 103.672 756.639 104.45C754.87 105.227 752.959 105.616 750.907 105.616H750.801C743.866 105.616 739.231 102.506 736.896 96.2875C734.843 99.1848 732.26 101.482 729.147 103.178C726.104 104.803 722.707 105.616 718.956 105.616C714.852 105.616 711.208 104.732 708.023 102.966C704.91 101.128 702.362 98.6195 700.381 95.4395C695.993 102.224 690.226 105.616 683.078 105.616C682.158 105.616 681.415 105.192 680.849 104.344C680.283 103.496 680 102.4 680 101.058C680 98.0188 681.274 96.4995 683.821 96.4995ZM706.431 80.3875C706.431 85.4048 707.563 89.3622 709.828 92.2595C712.163 95.0862 715.347 96.4995 719.381 96.4995C723.839 96.4995 727.413 94.9802 730.102 91.9415C732.862 88.9028 734.242 84.9102 734.242 79.9635V68.0915C732.827 66.1835 731.022 64.6642 728.828 63.5335C726.635 62.3322 724.37 61.7315 722.035 61.7315C718.992 61.7315 716.303 62.5442 713.968 64.1695C711.632 65.7948 709.792 68.0208 708.448 70.8475C707.103 73.6035 706.431 76.7835 706.431 80.3875Z" fill="black"/>
<path d="M602.303 104.88C601.308 104.88 600.527 104.462 599.959 103.626C599.32 102.79 599 101.71 599 100.386C599 98.9918 599.355 97.9117 600.065 97.1451C600.776 96.3786 601.699 95.9953 602.835 95.9953C606.884 95.9953 610.648 94.5667 614.128 91.7096C617.68 88.8525 621.195 84.3228 624.676 78.1207C628.227 71.849 631.956 63.5911 635.862 53.3472C637.069 52.9988 638.49 52.9639 640.124 53.2427C641.828 53.5214 643.355 54.0092 644.705 54.7061V61.8141C648.611 55.6817 653.831 52.6155 660.366 52.6155C665.622 52.6155 669.776 54.4274 672.831 58.051C675.885 61.6051 677.412 66.5528 677.412 72.8943V85.1242C677.412 88.957 677.909 91.7096 678.903 93.382C679.969 95.0545 681.638 95.8908 683.91 95.8908C684.905 95.8908 685.651 96.3089 686.148 97.1451C686.716 97.9814 687 99.0963 687 100.49C687 101.605 686.68 102.615 686.041 103.521C685.473 104.427 684.514 104.88 683.165 104.88C672.866 104.88 667.717 98.6782 667.717 86.274V72.8943C667.717 65.3681 664.911 61.6051 659.3 61.6051C656.814 61.6051 654.542 62.5458 652.482 64.4274C650.422 66.3089 648.789 68.8176 647.581 71.9535C646.445 75.0197 645.877 78.4692 645.877 82.3019V141.884C645.166 142.093 644.385 142.267 643.533 142.406C642.68 142.546 641.864 142.616 641.082 142.616C639.378 142.616 637.744 142.372 636.182 141.884V75.7166C631.849 85.5423 626.877 92.8594 621.266 97.6678C615.726 102.476 609.405 104.88 602.303 104.88Z" fill="black"/>
<path d="M559.288 104.476L559.305 103.116V96.1155C559.305 96.1155 563.492 96.1815 566.927 95.3335C570.291 94.4855 573.905 92.9662 577.769 90.7755C575.622 86.1115 574.549 80.8822 574.549 75.0875C574.549 70.7768 575.372 66.9608 577.018 63.6395C578.735 60.2475 581.025 57.5622 583.888 55.5835C586.822 53.6048 590.114 52.6155 593.764 52.6155C596.841 52.6155 599.596 53.3222 602.029 54.7355C604.462 56.1488 606.395 58.0568 607.826 60.4595C609.257 62.8622 609.973 65.5829 609.973 68.6215C609.973 73.1442 608.363 77.4548 605.142 81.5535C601.922 85.6522 597.234 89.5035 591.08 93.1075C593.871 95.4395 597.735 96.6055 602.673 96.6055C603.604 96.6055 604.355 97.0295 604.927 97.8775C605.572 98.7255 605.894 99.8562 605.894 101.27C605.894 102.612 605.536 103.672 604.82 104.45C604.176 105.227 603.282 105.616 602.137 105.616C598.129 105.616 594.443 104.98 591.08 103.708C587.717 102.365 584.961 100.528 582.815 98.1955C573.654 103.142 567.804 104.476 559.288 104.476ZM583.781 74.7695C583.781 79.4335 584.639 83.1788 586.357 86.0055C595.875 80.5642 600.634 74.7695 600.634 68.6215C600.634 66.3602 600.025 64.5935 598.809 63.3215C597.592 62.0495 595.911 61.4135 593.764 61.4135C590.901 61.4135 588.504 62.6855 586.572 65.2295C584.711 67.7028 583.781 70.8828 583.781 74.7695Z" fill="black"/>
<path d="M456.975 105.616C451.441 105.616 446.617 104.52 442.502 102.329C438.387 100.139 435.194 97.1002 432.924 93.2135C430.654 89.2562 429.519 84.6275 429.519 79.3275C429.519 75.4408 430.122 71.8015 431.328 68.4095C424.588 69.9642 417.316 70.7415 409.512 70.7415C408.448 70.7415 407.596 70.3175 406.958 69.4695C406.319 68.5508 406 67.4202 406 66.0775C406 63.1802 407.171 61.7315 409.512 61.7315C420.579 61.7315 430.76 60.0002 440.054 56.5375C443.814 53.9228 448.071 52.6155 452.824 52.6155C456.23 52.6155 459.316 53.2868 462.083 54.6295C464.921 55.9015 467.226 57.7742 469 60.2475C468.149 63.1448 466.091 65.2295 462.828 66.5015C460.487 63.3215 457.258 61.7315 453.144 61.7315C449.029 61.7315 445.694 63.2862 443.14 66.3955C440.657 69.4342 439.416 73.5682 439.416 78.7975C439.416 84.1682 440.976 88.4788 444.098 91.7295C447.291 94.9802 450.665 96.5989 456.482 96.5989C457.405 96.5989 459.28 97.0648 459.848 97.9835C460.487 98.8315 460.806 99.9268 460.806 101.27C460.806 102.612 460.451 103.672 459.742 104.45C459.103 105.227 458.181 105.616 456.975 105.616Z" fill="black"/>
<path d="M354.832 96.4995C357.174 96.4995 359.445 95.4042 361.645 93.2135C363.916 90.9522 365.832 87.9488 367.394 84.2035C367.11 82.5075 366.968 80.7762 366.968 79.0095C366.968 73.9215 368.068 69.3988 370.268 65.4415C372.468 61.4842 375.448 58.3748 379.21 56.1135C383.042 53.7815 387.336 52.6155 392.09 52.6155C396.845 52.6155 401.103 53.7815 404.865 56.1135C408.626 58.3748 411.571 61.4842 413.7 65.4415C415.9 69.3988 417 73.9215 417 79.0095C417 84.0975 415.9 88.6555 413.7 92.6835C411.571 96.7115 408.626 99.8915 404.865 102.224C401.174 104.485 396.916 105.616 392.09 105.616C387.761 105.616 383.823 104.697 380.274 102.859C376.797 100.951 373.923 98.3722 371.652 95.1215C367.252 102.118 361.397 105.616 354.087 105.616C353.165 105.616 352.419 105.192 351.852 104.344C351.284 103.496 351 102.4 351 101.058C351 98.0188 352.277 96.4995 354.832 96.4995ZM391.984 96.4995C396.526 96.4995 400.145 94.9095 402.842 91.7295C405.61 88.5495 406.994 84.3095 406.994 79.0095C406.994 76.3949 406.603 73.9922 405.823 71.8015C401.565 71.6602 397.697 70.8122 394.219 69.2575C390.813 67.7028 388.116 65.5828 386.129 62.8975C383.29 64.0988 381.055 66.1482 379.423 69.0455C377.79 71.8722 376.974 75.2642 376.974 79.2215C376.974 84.3802 378.323 88.5495 381.019 91.7295C383.787 94.9095 387.442 96.4995 391.984 96.4995Z" fill="black"/>
<path d="M283.026 104.874C281.258 104.874 279.668 104.626 278.254 104.132V70.3175C278.254 64.5935 276.628 61.7315 273.376 61.7315C271.82 61.7315 269.664 62.4028 266.907 63.7455C264.15 65.0882 261.004 66.9962 257.469 69.4695C256.833 69.8935 256.161 70.1055 255.454 70.1055C254.464 70.1055 253.474 69.5402 252.485 68.4095C251.495 67.2788 251 66.0775 251 64.8055C251 63.6042 251.601 62.6148 252.803 61.8375C257.822 58.5162 261.887 56.1488 264.998 54.7355C268.109 53.3222 271.184 52.6155 274.224 52.6155C277.264 52.6155 279.844 53.4988 281.965 55.2655C284.157 56.9615 285.712 59.3288 286.631 62.3675C288.257 59.2582 290.378 56.8555 292.994 55.1595C295.681 53.4635 298.685 52.6155 302.008 52.6155C308.936 52.6155 313.638 56.1842 316.112 63.3215C317.809 59.9295 320.106 57.3148 323.005 55.4775C325.904 53.5695 329.191 52.6155 332.867 52.6155C337.887 52.6155 341.74 54.2055 344.426 57.3855C347.113 60.5655 348.456 65.0528 348.456 70.8475V85.5815C348.456 89.4682 348.951 92.2595 349.941 93.9555C351.001 95.6515 352.662 96.4995 354.925 96.4995C355.914 96.4995 356.657 96.9235 357.152 97.7715C357.717 98.6195 358 99.7502 358 101.164C358 102.294 357.682 103.319 357.046 104.238C356.48 105.156 355.526 105.616 354.182 105.616C343.931 105.616 338.806 99.3262 338.806 86.7475V73.1795C338.806 69.5048 338.134 66.6782 336.791 64.6995C335.448 62.7208 333.539 61.7315 331.064 61.7315C327.318 61.7315 324.348 63.8868 322.157 68.1975C320.036 72.4375 318.975 78.3382 318.975 85.8995V104.132C318.268 104.344 317.491 104.52 316.642 104.662C315.794 104.803 314.981 104.874 314.203 104.874C312.506 104.874 310.88 104.626 309.325 104.132V74.6635C309.325 70.4942 308.583 67.3142 307.098 65.1235C305.684 62.8622 303.563 61.7315 300.735 61.7315C298.19 61.7315 295.928 62.7562 293.948 64.8055C292.04 66.7842 290.52 69.6108 289.389 73.2855C288.328 76.8895 287.798 81.0942 287.798 85.8995V104.132C287.091 104.344 286.313 104.52 285.465 104.662C284.617 104.803 283.803 104.874 283.026 104.874Z" fill="black"/>
<path d="M190.08 105.616C189.16 105.616 188.416 105.195 187.85 104.355C187.283 103.515 187 102.431 187 101.101C187 99.7005 187.354 98.6155 188.062 97.8455C188.7 97.0055 189.585 96.5855 190.718 96.5855C193.267 96.5855 196.029 95.5705 199.003 93.5405C201.977 91.5105 204.845 88.7105 207.607 85.1405C206.474 80.0305 205.907 72.8905 205.907 63.7205V34.5305C205.907 28.7205 206.085 24.0305 206.439 20.4605C206.863 16.8905 207.536 13.9155 208.457 11.5355C209.802 8.03551 211.75 5.34051 214.299 3.45051C216.848 1.56051 219.858 0.615509 223.328 0.615509C228.143 0.615509 232.003 2.96051 234.906 7.65051C237.809 12.2705 239.261 18.5005 239.261 26.3405C239.261 32.9905 238.411 39.8505 236.712 46.9205C235.083 53.9905 232.675 60.9905 229.489 67.9205C226.302 74.7805 222.443 81.2555 217.911 87.3455C218.123 87.8355 218.335 88.2905 218.548 88.7105C220.035 91.3005 221.77 93.2255 223.753 94.4855C225.806 95.6755 228.32 96.2705 231.294 96.2705C234.481 96.2705 237.278 95.3955 239.686 93.6455C242.094 91.8955 243.97 89.4805 245.316 86.4005C246.661 83.2505 247.334 79.6455 247.334 75.5855C247.334 74.1155 247.228 72.6455 247.015 71.1755C242.554 68.3755 239.615 65.8905 238.199 63.7205C238.695 62.3205 239.473 60.9905 240.536 59.7305C241.669 58.4005 242.908 57.3505 244.253 56.5805C245.599 55.7405 246.874 55.3205 248.077 55.3205C249.706 55.3205 251.193 56.1955 252.539 57.9455C253.884 59.6255 254.946 61.9005 255.725 64.7705C256.575 67.5705 257 70.6855 257 74.1155C257 80.4155 255.938 85.9105 253.813 90.6005C251.76 95.2205 248.786 98.8255 244.891 101.415C241.067 103.935 236.535 105.196 231.294 105.196C222.018 105.196 215.326 101.766 211.219 94.9055C204.704 102.046 197.658 105.616 190.08 105.616ZM214.83 61.6205C214.83 67.2905 215.007 71.9455 215.361 75.5855C220.247 67.3255 223.93 58.9605 226.408 50.4905C228.958 42.0205 230.232 33.9355 230.232 26.2355C230.232 14.9655 227.754 9.33051 222.797 9.33051C219.893 9.33051 217.804 11.2555 216.53 15.1055C215.397 18.5355 214.83 24.5905 214.83 33.2705V61.6205Z" fill="black"/>
<path d="M159.438 105.616C154.972 105.616 151.037 104.556 147.634 102.436C144.302 100.316 141.679 97.3475 139.765 93.5315C137.922 89.7155 137 85.3342 137 80.3875C137 75.0168 138.063 70.2468 140.19 66.0775C142.317 61.9082 145.188 58.6222 148.804 56.2195C152.491 53.8168 156.674 52.6155 161.353 52.6155C163.834 52.6155 166.28 53.1102 168.69 54.0995C171.101 55.0182 173.121 56.2902 174.752 57.9155V53.5695C175.39 53.3575 176.134 53.1808 176.985 53.0395C177.836 52.8982 178.722 52.8275 179.644 52.8275C181.345 52.8275 182.94 53.0748 184.429 53.5695V85.5815C184.429 89.4682 184.925 92.2595 185.918 93.9555C186.981 95.6515 188.647 96.4995 190.916 96.4995C191.909 96.4995 192.653 96.9235 193.149 97.7715C193.716 98.6195 194 99.7502 194 101.164C194 102.294 193.681 103.319 193.043 104.238C192.476 105.156 191.519 105.616 190.172 105.616C183.437 105.616 178.899 102.86 176.56 97.3475C174.504 99.9622 172.022 102.012 169.116 103.496C166.209 104.909 162.983 105.616 159.438 105.616ZM146.89 80.3875C146.89 85.4048 148.024 89.3622 150.293 92.2595C152.632 95.0862 155.823 96.4995 159.864 96.4995C164.33 96.4995 167.91 94.9802 170.605 91.9415C173.369 88.9028 174.752 84.9102 174.752 79.9635V68.0915C173.334 66.1835 171.526 64.6642 169.328 63.5335C167.131 62.3322 164.862 61.7315 162.522 61.7315C159.474 61.7315 156.78 62.5442 154.44 64.1695C152.101 65.7948 150.257 68.0208 148.91 70.8475C147.563 73.6035 146.89 76.7835 146.89 80.3875Z" fill="black"/>
<path d="M453.5 101.764C453.053 98.8466 454.514 96.7489 456.517 96.5899C458.52 96.431 459.329 96.5476 464.853 94.9851C470.377 93.4227 473.781 90.7721 474.953 89.7398C476.125 88.7074 476.209 85.8616 476.209 84.6897V72.4971C476.209 60.6951 481.705 53.1898 493.144 52.7713C502.296 52.4365 507.61 58.833 509.124 62.073V54.8244C509.124 53.6029 512.05 53.1169 513.525 53.1169V141.957H507.944V103.513C501.768 109.199 501.088 110.342 490.558 110.124C480.029 109.907 478.179 101.935 477.363 99.459C473.684 102.245 465.588 104.49 462 105.264C457 106.264 453.946 104.681 453.5 101.764Z" fill="black"/>
<path d="M493.502 102.891C488.553 102.891 483.684 101.341 483.684 81.6875C483.684 61.7239 487.396 61.7239 493.502 61.7239C497.397 61.7239 507.799 63.7159 507.799 79.9611C507.799 96.2064 499.174 102.891 493.502 102.891Z" fill="white"/>
<path d="M570.507 100.308C570.953 97.3905 569.878 96.1008 567.875 95.9418C565.871 95.7828 565.937 95.9418 560.684 96.1504C555.431 96.3589 552.755 91.1152 552.096 89.7398C551.422 88.3312 550.841 85.8616 550.841 84.6897V72.4971C550.841 60.6951 545.344 53.1898 533.905 52.7713C524.753 52.4365 519.439 58.833 517.925 62.073V54.8244C517.925 53.6029 514.999 53.1169 513.525 53.1169V141.957H519.105V103.513C525.281 109.199 525.961 110.342 536.491 110.124C547.02 109.907 548.87 101.935 549.686 99.459C552.76 102.791 555.371 103.704 558.959 104.478C563.959 105.478 570.061 103.225 570.507 100.308Z" fill="black"/>
<path d="M533.548 102.891C538.496 102.891 543.365 101.341 543.365 81.6875C543.365 61.7239 539.653 61.7239 533.548 61.7239C529.652 61.7239 519.25 63.7159 519.25 79.9611C519.25 96.2064 527.875 102.891 533.548 102.891Z" fill="white"/>
<path d="M513.36 53.1261H513.66V141.949H513.36V53.1261Z" fill="black"/>
<defs>
<linearGradient id="paint0_linear_204_665" x1="780.5" y1="80.9246" x2="1075" y2="80.9246" gradientUnits="userSpaceOnUse">
<stop stop-color="#C6936A"/>
<stop offset="1" stop-color="#4C3DFA"/>
</linearGradient>
<linearGradient id="paint1_linear_204_665" x1="0" y1="201.388" x2="108.5" y2="201.388" gradientUnits="userSpaceOnUse">
<stop stop-color="#4C3DF9"/>
<stop offset="1" stop-color="#C7946C"/>
</linearGradient>
<linearGradient id="paint2_linear_204_665" x1="-12288.2" y1="78.6725" x2="8115.39" y2="78.6725" gradientUnits="userSpaceOnUse">
<stop stop-color="#5C5C5C"/>
<stop offset="1" stop-color="#A7A7A7"/>
</linearGradient>
<linearGradient id="paint3_linear_204_665" x1="-6378.6" y1="78.6725" x2="5863.53" y2="78.6725" gradientUnits="userSpaceOnUse">
<stop stop-color="#5C5C5C"/>
<stop offset="1" stop-color="#A7A7A7"/>
</linearGradient>
<linearGradient id="paint4_linear_204_665" x1="-14154.2" y1="107.343" x2="14709.4" y2="107.343" gradientUnits="userSpaceOnUse">
<stop stop-color="#5C5C5C"/>
<stop offset="1" stop-color="#A7A7A7"/>
</linearGradient>
<linearGradient id="paint5_linear_204_665" x1="-5693.02" y1="119.954" x2="7926.75" y2="119.954" gradientUnits="userSpaceOnUse">
<stop stop-color="#5C5C5C"/>
<stop offset="1" stop-color="#A7A7A7"/>
</linearGradient>
<linearGradient id="paint6_linear_204_665" x1="-6519.85" y1="88.6561" x2="11260.9" y2="88.6561" gradientUnits="userSpaceOnUse">
<stop stop-color="#5C5C5C"/>
<stop offset="1" stop-color="#A7A7A7"/>
</linearGradient>
<linearGradient id="paint7_linear_204_665" x1="-3494.66" y1="78.6725" x2="8747.48" y2="78.6725" gradientUnits="userSpaceOnUse">
<stop stop-color="#5C5C5C"/>
<stop offset="1" stop-color="#A7A7A7"/>
</linearGradient>
<linearGradient id="paint8_linear_204_665" x1="-2699.34" y1="77.5003" x2="10226.2" y2="77.5003" gradientUnits="userSpaceOnUse">
<stop stop-color="#5C5C5C"/>
<stop offset="1" stop-color="#A7A7A7"/>
</linearGradient>
<linearGradient id="paint9_linear_204_665" x1="-3108.25" y1="88.6561" x2="16082.1" y2="88.6561" gradientUnits="userSpaceOnUse">
<stop stop-color="#5C5C5C"/>
<stop offset="1" stop-color="#A7A7A7"/>
</linearGradient>
<linearGradient id="paint10_linear_204_665" x1="-588.515" y1="39.0876" x2="12182.1" y2="39.0876" gradientUnits="userSpaceOnUse">
<stop stop-color="#5C5C5C"/>
<stop offset="1" stop-color="#A7A7A7"/>
</linearGradient>
<linearGradient id="paint11_linear_204_665" x1="23.4874" y1="120.432" x2="17923.8" y2="120.432" gradientUnits="userSpaceOnUse">
<stop stop-color="#5C5C5C"/>
<stop offset="1" stop-color="#A7A7A7"/>
</linearGradient>
</defs>
</svg>
