<svg width="25" height="7" viewBox="0 0 25 7" fill="none" xmlns="http://www.w3.org/2000/svg">
<path d="M0.0862105 3.32806L3.29121 0.0928821C3.53102 -0.149187 3.93263 0.124265 3.78354 0.428099L2.83509 2.36085C2.73831 2.55808 2.88535 2.78648 3.10911 2.78648H4.87917C5.15697 2.78648 5.28915 3.12078 5.08359 3.30345L1.12037 6.82522C0.861282 7.05545 0.475016 6.74542 0.65556 6.45215L1.99145 4.2822C2.11336 4.08418 1.96747 3.83188 1.73106 3.83188H0.30452C0.0361 3.83188 -0.100531 3.51656 0.0862105 3.32806Z" fill="#1441B1"/>
<path d="M21.969 7C21.3432 7 20.8036 6.87092 20.3501 6.61276C19.9024 6.3546 19.5579 5.99823 19.3168 5.54365C19.0815 5.08345 18.9638 4.55591 18.9638 3.96102C18.9638 3.35491 19.0843 2.82176 19.3254 2.36156C19.5723 1.90136 19.9225 1.54499 20.376 1.29245C20.8295 1.03429 21.3691 0.905208 21.9948 0.905208C22.6148 0.905208 23.1487 1.03148 23.5964 1.28403C24.0442 1.53657 24.3886 1.89014 24.6297 2.34472C24.8766 2.79931 25 3.32966 25 3.93577C25 4.53066 24.8766 5.061 24.6297 5.52681C24.3886 5.98701 24.0413 6.34899 23.5878 6.61276C23.1401 6.87092 22.6004 7 21.969 7ZM21.9862 5.87196C22.3995 5.87196 22.7353 5.77936 22.9937 5.59416C23.252 5.40896 23.4386 5.17044 23.5534 4.87861C23.6739 4.58678 23.7342 4.28091 23.7342 3.96102C23.7342 3.72531 23.6998 3.49241 23.6309 3.26231C23.5677 3.03221 23.4673 2.82456 23.3295 2.63936C23.1917 2.45416 23.0109 2.30824 22.787 2.20161C22.5631 2.08937 22.2933 2.03325 21.9776 2.03325C21.57 2.03325 21.237 2.12585 20.9787 2.31105C20.7204 2.49064 20.5281 2.72635 20.4018 3.01818C20.2812 3.31001 20.221 3.62149 20.221 3.9526C20.221 4.28372 20.2812 4.59519 20.4018 4.88703C20.5281 5.17886 20.7204 5.41737 20.9787 5.60258C21.2428 5.78216 21.5786 5.87196 21.9862 5.87196Z" fill="#1441B1"/>
<path d="M13.3628 6.93265V0.972554H15.8169C16.1211 0.972554 16.411 1.00342 16.6866 1.06515C16.9679 1.12128 17.2205 1.21949 17.4444 1.35979C17.6682 1.5001 17.8433 1.69652 17.9696 1.94907C18.1017 2.196 18.1677 2.51309 18.1677 2.90033C18.1677 3.18655 18.1189 3.44471 18.0213 3.6748C17.9237 3.9049 17.7802 4.10133 17.5907 4.26408C17.4013 4.42683 17.1745 4.5531 16.9105 4.6429L18.2624 6.93265H16.876L15.6877 4.83652H14.5942V6.93265H13.3628ZM14.5942 3.7674H15.7308C15.9087 3.7674 16.0695 3.75337 16.213 3.72531C16.3623 3.69164 16.4885 3.64113 16.5919 3.57378C16.7009 3.50644 16.7842 3.41664 16.8416 3.3044C16.9047 3.19216 16.9363 3.05466 16.9363 2.89191C16.9421 2.68426 16.8961 2.52431 16.7985 2.41207C16.7067 2.29421 16.5747 2.21284 16.4024 2.16794C16.236 2.11743 16.0379 2.09218 15.8083 2.09218H14.5942V3.7674Z" fill="#1441B1"/>
<path d="M7.73713 6.93265V0.972554H10.1137C10.5787 0.972554 10.9834 1.04271 11.3279 1.18301C11.678 1.3177 11.9479 1.53657 12.1373 1.83963C12.3267 2.13707 12.4214 2.53554 12.4214 3.03502C12.4214 3.50083 12.3152 3.89087 12.1028 4.20515C11.8962 4.51943 11.612 4.75514 11.2504 4.91228C10.8887 5.06381 10.4783 5.13957 10.019 5.13957H8.96848V6.93265H7.73713ZM8.96848 4.06204H10.0018C10.3692 4.06204 10.6591 3.97786 10.8715 3.80949C11.0896 3.63552 11.1987 3.37455 11.1987 3.0266C11.1987 2.71793 11.1069 2.48503 10.9232 2.32789C10.7452 2.17075 10.4582 2.09218 10.0621 2.09218H8.96848V4.06204Z" fill="#1441B1"/>
</svg>
