<svg width="30" height="30" viewBox="0 0 30 30" fill="none" xmlns="http://www.w3.org/2000/svg">
<path d="M21.492 18.1704C23.2761 18.4694 25.2426 18.1574 26.623 17.2345C28.4592 16.0127 28.4592 14.0109 26.623 12.789C25.2295 11.8661 23.237 11.5541 21.4529 11.8661M8.50817 18.1702C6.72404 18.4692 4.75759 18.1572 3.37717 17.2343C1.54094 16.0125 1.54094 14.0107 3.37717 12.7888C4.77061 11.8659 6.76311 11.554 8.54724 11.8659M22.8327 8.70726C22.7546 8.69426 22.6634 8.69426 22.5853 8.70726C20.7881 8.64227 19.3556 7.17343 19.3556 5.35363C19.3556 3.49484 20.8532 2 22.7155 2C24.5778 2 26.0754 3.50783 26.0754 5.35363C26.0624 7.17343 24.6299 8.64227 22.8327 8.70726ZM7.16692 8.70726C7.24506 8.69426 7.33621 8.69426 7.41435 8.70726C9.21151 8.64227 10.644 7.17343 10.644 5.35363C10.644 3.49484 9.14639 2 7.28412 2C5.42186 2 3.92422 3.50783 3.92422 5.35363C3.93725 7.17343 5.36976 8.64227 7.16692 8.70726ZM15.0191 18.4168C14.941 18.4038 14.8499 18.4038 14.7717 18.4168C12.9746 18.3518 11.542 16.883 11.542 15.0632C11.542 13.2044 13.0397 11.7096 14.9019 11.7096C16.7642 11.7096 18.2618 13.2174 18.2618 15.0632C18.2488 16.883 16.8163 18.3648 15.0191 18.4168ZM11.2291 22.5114C9.39287 23.7332 9.39287 25.735 11.2291 26.9569C13.3128 28.3477 16.7247 28.3477 18.8084 26.9569C20.6446 25.735 20.6446 23.7332 18.8084 22.5114C16.7378 21.1335 13.3128 21.1335 11.2291 22.5114Z" stroke="#1441B1" stroke-width="2.5" stroke-linecap="round" stroke-linejoin="round"/>
</svg>
