<svg width="30" height="30" viewBox="0 0 30 30" fill="none" xmlns="http://www.w3.org/2000/svg">
<path fill-rule="evenodd" clip-rule="evenodd" d="M3.05184 3.05184C4.93328 1.1704 7.70206 0.5 11.1 0.5H18.9C22.2979 0.5 25.0667 1.1704 26.9482 3.05184C28.8296 4.93328 29.5 7.70206 29.5 11.1V18.9C29.5 22.2979 28.8296 25.0667 26.9482 26.9482C25.0667 28.8296 22.2979 29.5 18.9 29.5H11.1C7.70206 29.5 4.93328 28.8296 3.05184 26.9482C1.1704 25.0667 0.5 22.2979 0.5 18.9V11.1C0.5 7.70206 1.1704 4.93328 3.05184 3.05184ZM5.17316 5.17316C4.1296 6.21672 3.5 7.99794 3.5 11.1V18.9C3.5 22.0021 4.1296 23.7833 5.17316 24.8268C6.21672 25.8704 7.99794 26.5 11.1 26.5H18.9C22.0021 26.5 23.7833 25.8704 24.8268 24.8268C25.8704 23.7833 26.5 22.0021 26.5 18.9V11.1C26.5 7.99794 25.8704 6.21672 24.8268 5.17316C23.7833 4.1296 22.0021 3.5 18.9 3.5H11.1C7.99794 3.5 6.21672 4.1296 5.17316 5.17316ZM10.3585 5.04999C11.1869 5.04999 11.8585 5.72157 11.8585 6.54999V12.8899C13.8197 13.5227 15.239 15.3629 15.239 17.535C15.239 19.7071 13.8197 21.5472 11.8585 22.1799V23.4497C11.8585 24.2782 11.1869 24.9497 10.3585 24.9497C9.53005 24.9497 8.85848 24.2782 8.85848 23.4497V22.1799C6.89731 21.5471 5.479 19.7067 5.479 17.535C5.479 15.3634 6.89724 13.5228 8.85848 12.8899V6.54999C8.85848 5.72157 9.53005 5.04999 10.3585 5.04999ZM19.6413 5.04999C20.4697 5.04999 21.1413 5.72157 21.1413 6.54999V7.81987C23.1027 8.45276 24.5218 10.2933 24.5218 12.4652C24.5218 14.6373 23.1028 16.4779 21.1413 17.1105V23.4501C21.1413 24.2785 20.4697 24.9501 19.6413 24.9501C18.8129 24.9501 18.1413 24.2785 18.1413 23.4501V17.1102C16.1803 16.4772 14.7618 14.6369 14.7618 12.4652C14.7618 10.2937 16.18 8.45287 18.1413 7.81989V6.54999C18.1413 5.72157 18.8129 5.04999 19.6413 5.04999ZM19.6413 10.585C18.6035 10.585 17.7618 11.4265 17.7618 12.4652C17.7618 13.5035 18.6035 14.3452 19.6418 14.3452C20.6801 14.3452 21.5218 13.5035 21.5218 12.4652C21.5218 11.4271 20.6798 10.585 19.6413 10.585ZM10.3585 15.655C9.32049 15.655 8.479 16.4964 8.479 17.535C8.479 18.5734 9.32034 19.4147 10.3585 19.4147C11.3972 19.4147 12.239 18.5728 12.239 17.535C12.239 16.497 11.3971 15.655 10.3585 15.655Z" fill="#1441B1"/>
</svg>
