<svg width="30" height="30" viewBox="0 0 30 30" fill="none" xmlns="http://www.w3.org/2000/svg">
<path d="M14.766 23.3062C15.338 23.3842 15.923 23.4231 16.521 23.4231L21.968 26.66C22.891 27.219 24.048 26.465 23.918 25.3861L23.411 21.2783C26.193 19.3283 28 16.2214 28 12.7116C28 6.7968 22.865 2 16.521 2C10.177 2 5.04196 6.7968 5.04196 12.7116C5.04196 13.0495 5.05497 13.3745 5.09397 13.6995M14.766 23.3062C15.728 22.1752 16.3 20.7452 16.3 19.1983C16.3 15.5064 13.102 12.5166 9.14997 12.5166C7.64197 12.5166 6.25097 12.9456 5.09397 13.6995M14.766 23.3062C13.479 24.8661 11.438 25.867 9.15001 25.867L5.757 27.8819C5.185 28.2329 4.457 27.752 4.535 27.089L4.86 24.5281C3.118 23.3192 2 21.3822 2 19.1983C2 16.9104 3.22197 14.8955 5.09397 13.6995" stroke="#1441B1" stroke-width="3" stroke-linecap="round" stroke-linejoin="round"/>
</svg>
