<svg width="17" height="18" viewBox="0 0 17 18" fill="none" xmlns="http://www.w3.org/2000/svg">
<path fill-rule="evenodd" clip-rule="evenodd" d="M8.23881 3.39981C5.21275 3.39981 2.75964 5.85292 2.75964 8.87898C2.75964 11.905 5.21275 14.3581 8.23881 14.3581C11.2649 14.3581 13.718 11.905 13.718 8.87898C13.718 5.85292 11.2649 3.39981 8.23881 3.39981ZM0.259644 8.87898C0.259644 4.47221 3.83204 0.899811 8.23881 0.899811C12.6456 0.899811 16.218 4.47221 16.218 8.87898C16.218 10.6313 15.6531 12.2517 14.6955 13.568L16.5602 15.4326C17.0483 15.9208 17.0483 16.7122 16.5602 17.2004C16.072 17.6885 15.2806 17.6885 14.7924 17.2004L12.9278 15.3357C11.6115 16.2933 9.99111 16.8581 8.23881 16.8581C3.83204 16.8581 0.259644 13.2858 0.259644 8.87898Z" fill=" #7B7B7B"/>
</svg>
