<svg width="30" height="30" viewBox="0 0 30 30" fill="none" xmlns="http://www.w3.org/2000/svg">
<path d="M17.2459 3.87743L19.5337 8.49074C19.8456 9.13293 20.6775 9.74891 21.3795 9.86687L25.526 10.5615C28.1777 11.0071 28.8016 12.9468 26.8909 14.8602L23.6672 18.1105C23.1213 18.661 22.8223 19.7226 22.9913 20.4827L23.9142 24.5062C24.6421 27.691 22.9653 28.923 20.1706 27.2585L16.284 24.9387C15.5821 24.5194 14.4252 24.5194 13.7103 24.9387L9.82375 27.2585C7.04205 28.923 5.35224 27.6779 6.08016 24.5062L7.00306 20.4827C7.17204 19.7226 6.87307 18.661 6.32713 18.1105L3.10349 14.8602C1.2057 12.9468 1.81663 11.0071 4.46834 10.5615L8.61488 9.86687C9.3038 9.74891 10.1357 9.13293 10.4477 8.49074L12.7354 3.87743C13.9833 1.37419 16.0111 1.37419 17.2459 3.87743Z" stroke="#1441B1" stroke-width="3" stroke-linecap="round" stroke-linejoin="round"/>
</svg>
