<svg width="70" height="70" viewBox="0 0 70 70" fill="none" xmlns="http://www.w3.org/2000/svg">
<path d="M0.329409 22.2225C-0.957067 17.4213 1.89218 12.4862 6.69337 11.1998L47.2623 0.329356C52.0635 -0.957121 56.9985 1.89212 58.285 6.69332L69.1554 47.2622C70.4418 52.0634 67.5926 56.9984 62.7914 58.2849L22.2225 69.1553C17.4213 70.4418 12.4863 67.5925 11.1998 62.7913L0.329409 22.2225Z" fill="#EBEEF4"/>
<path d="M38.1394 47.4201C45.1411 45.544 49.2963 38.3471 47.4202 31.3453C45.544 24.3436 38.3471 20.1884 31.3454 22.0646C24.3436 23.9407 20.1885 31.1376 22.0646 38.1393C23.9407 45.1411 31.1376 49.2962 38.1394 47.4201Z" fill="#FF0F0F"/>
</svg>
