<svg width="24" height="24" viewBox="0 0 24 24" fill="none" xmlns="http://www.w3.org/2000/svg">
<path d="M11.5641 0C8.4978 0 5.55438 1.21911 3.38792 3.38701C1.21965 5.55492 0 8.49834 0 11.5641C0 14.6298 1.21965 17.5733 3.38792 19.7412C5.55438 21.9091 8.4978 23.1282 11.5641 23.1282C14.6304 23.1282 17.5738 21.9091 19.7403 19.7412C21.9085 17.5733 23.1282 14.6298 23.1282 11.5641C23.1282 8.49834 21.9085 5.55492 19.7403 3.38701C17.5738 1.21911 14.6304 0 11.5641 0Z" fill="black"/>
<path d="M5.23459 11.4419C8.60625 9.97324 10.854 9.00493 11.9779 8.53713C15.1906 7.20129 15.8573 6.96929 16.2928 6.96144C16.3885 6.95989 16.6017 6.98357 16.7409 7.09613C16.8565 7.191 16.889 7.31928 16.9053 7.40927C16.9197 7.49925 16.9396 7.70433 16.9234 7.86442C16.7499 9.69299 15.9964 14.1304 15.6134 16.1785C15.4526 17.0451 15.1327 17.3356 14.8238 17.364C14.1516 17.4258 13.642 16.9202 12.9916 16.4939C11.9743 15.8267 11.3997 15.4114 10.4113 14.7604C9.26938 14.008 10.0102 13.5944 10.6607 12.9187C10.8305 12.7418 13.7902 10.0504 13.8462 9.80629C13.8535 9.77575 13.8607 9.66192 13.792 9.60193C13.7252 9.54176 13.6258 9.56236 13.5535 9.57862C13.4505 9.60175 11.8261 10.6765 8.67491 12.8026C8.21415 13.1196 7.79676 13.2741 7.42093 13.2659C7.00896 13.2571 6.21393 13.0325 5.62308 12.8406C4.90032 12.6052 4.32392 12.4807 4.37452 12.0808C4.39981 11.8726 4.68711 11.6596 5.23459 11.4419Z" fill="white"/>
</svg>
