<svg width="29" height="19" viewBox="0 0 29 19" fill="none" xmlns="http://www.w3.org/2000/svg">
<path d="M0 0H29V19H0V0Z" fill="#EBEEF4"/>
<path d="M8.71731 5.91994L10.9199 3.71733L10.3692 3.16667L8.16667 5.36928L8.71731 5.91994Z" fill="black"/>
<path d="M18.0794 3.71903L18.9053 4.54501L19.456 3.99435L18.63 3.16837L18.0794 3.71903Z" fill="black"/>
<path d="M19.4566 6.74773L17.254 4.54511L17.8046 3.99445L20.0072 6.19707L19.4566 6.74773Z" fill="black"/>
<path d="M18.6268 11.4279L17.8009 12.2539L18.3515 12.8045L19.1775 11.9785L18.6268 11.4279Z" fill="black"/>
<path d="M17.2498 12.8046L16.4239 13.6305L16.9745 14.1812L17.8005 13.3552L17.2498 12.8046Z" fill="black"/>
<path d="M19.4529 13.9057L20.2789 13.0798L20.8295 13.6304L20.0036 14.4564L19.4529 13.9057Z" fill="black"/>
<path d="M18.9019 14.4567L18.076 15.2827L18.6266 15.8333L19.4525 15.0074L18.9019 14.4567Z" fill="black"/>
<path d="M18.6268 13.0798L19.4528 12.2539L20.0034 12.8045L19.1775 13.6305L18.6268 13.0798Z" fill="black"/>
<path d="M18.0762 13.6305L17.2502 14.4565L17.8009 15.0072L18.6268 14.1812L18.0762 13.6305Z" fill="black"/>
<path d="M16.4276 5.37129L17.2536 6.19727L17.8042 5.64663L16.9783 4.82065L16.4276 5.37129Z" fill="black"/>
<path d="M18.6302 7.57426L17.8042 6.74829L18.3549 6.19765L19.1808 7.02363L18.6302 7.57426Z" fill="black"/>
<path d="M20.2827 5.92217L19.4567 5.0962L20.0074 4.54554L20.8333 5.37151L20.2827 5.92217Z" fill="black"/>
<path d="M10.9201 15.2809L8.71755 13.0783L8.1669 13.629L10.3695 15.8316L10.9201 15.2809Z" fill="black"/>
<path d="M10.92 13.6286L11.7459 14.4545L11.1953 15.0052L10.3694 14.1792L10.92 13.6286Z" fill="black"/>
<path d="M10.3692 13.0781L9.54326 12.2522L8.99262 12.8028L9.81857 13.6288L10.3692 13.0781Z" fill="black"/>
<path d="M10.3693 11.426L12.5719 13.6286L12.0212 14.1792L9.81867 11.9766L10.3693 11.426Z" fill="black"/>
<path d="M11.7458 4.54321L9.54327 6.74582L8.99263 6.19516L11.1952 3.99255L11.7458 4.54321Z" fill="black"/>
<path d="M10.37 7.57231L12.5725 5.36969L12.0219 4.81906L9.81938 7.02167L10.37 7.57231Z" fill="black"/>
<path d="M12.124 7.12496C10.8123 8.43668 10.8123 10.5634 12.124 11.8751C13.4357 13.1868 15.5623 13.1868 16.874 11.8751C18.1857 10.5634 18.1857 8.43668 16.874 7.12496C15.5623 5.81325 13.4357 5.81325 12.124 7.12496Z" fill="#FF0F0F"/>
<path d="M12.124 7.12496C10.8129 8.4361 10.8114 10.5624 12.1221 11.8731C13.4327 13.1838 15.5629 13.1862 16.874 11.8751C17.5304 11.2187 17.5318 10.154 16.8752 9.49742C16.2182 8.84034 15.1547 8.844 14.4983 9.50042C13.8418 10.1569 12.7781 10.1584 12.1209 9.50112C11.4649 8.84494 11.4675 7.78148 12.124 7.12496Z" fill="#1441B1"/>
</svg>
