<svg width="30" height="30" viewBox="0 0 30 30" fill="none" xmlns="http://www.w3.org/2000/svg">
<path d="M0 0H30V30H0V0Z" fill="#EBEEF4"/>
<path d="M5.86944 9.34728L9.34715 5.86946L8.47771 5L5 8.47781L5.86944 9.34728Z" fill="black"/>
<path d="M20.6517 5.87216L21.9558 7.17634L22.8252 6.30687L21.5211 5.0027L20.6517 5.87216Z" fill="black"/>
<path d="M22.8261 10.6543L19.3484 7.17649L20.2179 6.30703L23.6956 9.78484L22.8261 10.6543Z" fill="black"/>
<path d="M21.516 18.044L20.2119 19.3482L21.0813 20.2177L22.3855 18.9135L21.516 18.044Z" fill="black"/>
<path d="M19.3418 20.2177L18.0377 21.5219L18.9071 22.3914L20.2113 21.0872L19.3418 20.2177Z" fill="black"/>
<path d="M22.8204 21.9564L24.1245 20.6522L24.994 21.5217L23.6898 22.8259L22.8204 21.9564Z" fill="black"/>
<path d="M21.9504 22.8264L20.6462 24.1305L21.5157 25L22.8198 23.6958L21.9504 22.8264Z" fill="black"/>
<path d="M21.5161 20.6524L22.8202 19.3482L23.6896 20.2177L22.3855 21.5219L21.5161 20.6524Z" fill="black"/>
<path d="M20.6466 21.5219L19.3425 22.8261L20.2119 23.6955L21.516 22.3914L20.6466 21.5219Z" fill="black"/>
<path d="M18.0436 8.48098L19.3478 9.78516L20.2172 8.91573L18.913 7.61156L18.0436 8.48098Z" fill="black"/>
<path d="M21.5214 11.9594L20.2172 10.6552L21.0866 9.78577L22.3908 11.0899L21.5214 11.9594Z" fill="black"/>
<path d="M24.1306 9.3508L22.8264 8.04663L23.6959 7.17716L25 8.48134L24.1306 9.3508Z" fill="black"/>
<path d="M9.34752 24.1278L5.86981 20.65L5.00037 21.5194L8.47808 24.9973L9.34752 24.1278Z" fill="black"/>
<path d="M9.34733 21.5188L10.6515 22.823L9.78207 23.6924L8.47793 22.3882L9.34733 21.5188Z" fill="black"/>
<path d="M8.4777 20.6497L7.17357 19.3455L6.30413 20.215L7.60827 21.5192L8.4777 20.6497Z" fill="black"/>
<path d="M8.47786 18.041L11.9556 21.5188L11.0861 22.3883L7.60843 18.9104L8.47786 18.041Z" fill="black"/>
<path d="M10.6513 7.17349L7.17358 10.6513L6.30415 9.78184L9.78186 6.30402L10.6513 7.17349Z" fill="black"/>
<path d="M8.47895 11.9563L11.9567 8.47846L11.0873 7.60904L7.60955 11.0868L8.47895 11.9563Z" fill="black"/>
<path d="M11.2484 11.2499C9.17734 13.3211 9.17734 16.679 11.2484 18.7502C13.3195 20.8213 16.6773 20.8213 18.7484 18.7502C20.8195 16.679 20.8195 13.3211 18.7484 11.2499C16.6773 9.17882 13.3195 9.17882 11.2484 11.2499Z" fill="#FF0F0F"/>
<path d="M11.2484 11.2499C9.17826 13.3202 9.17597 16.6775 11.2454 18.747C13.3148 20.8165 16.6782 20.8204 18.7484 18.7502C19.7848 17.7137 19.7871 16.0326 18.7504 14.9959C17.7129 13.9584 16.0337 13.9642 14.9973 15.0007C13.9607 16.0373 12.2812 16.0396 11.2435 15.0018C10.2077 13.9657 10.2118 12.2866 11.2484 11.2499Z" fill="#1441B1"/>
</svg>
