<svg width="29" height="19" viewBox="0 0 29 19" fill="none" xmlns="http://www.w3.org/2000/svg">
<path d="M0 0H29V19H0V0Z" fill="#EBEEF4"/>
<path d="M0 4.54348V2.06521H29V4.54348H0Z" fill="#FF0F0F"/>
<path d="M0 9.50001V7.02173H29V9.50001H0Z" fill="#FF0F0F"/>
<path d="M0 14.4565V11.9782H29V14.4565H0Z" fill="#FF0F0F"/>
<path d="M0 19H29V16.9348H0V19Z" fill="#FF0F0F"/>
<path d="M0 0H9.5V9.5L0 9.50001V0Z" fill="#1441B1"/>
<path d="M1.6625 0.237514L1.98243 1.22217H3.01776L2.18016 1.83071L2.5001 2.81536L1.6625 2.20682L0.824907 2.81536L1.14484 1.83071L0.307246 1.22217H1.34257L1.6625 0.237514Z" fill="#EBEEF4"/>
<path d="M4.75 0.237514L5.06993 1.22217H6.10525L5.26766 1.83071L5.58759 2.81536L4.75 2.20682L3.91241 2.81536L4.23234 1.83071L3.39474 1.22217H4.43007L4.75 0.237514Z" fill="#EBEEF4"/>
<path d="M8.15743 1.22217L7.8375 0.237514L7.51757 1.22217H6.48225L7.31984 1.83071L6.99991 2.81536L7.8375 2.20682L8.6751 2.81536L8.35516 1.83071L9.19276 1.22217H8.15743Z" fill="#EBEEF4"/>
<path d="M1.6625 3.32499L1.98243 4.30964H3.01776L2.18016 4.91818L2.5001 5.90283L1.6625 5.29429L0.824907 5.90283L1.14484 4.91818L0.307246 4.30964H1.34257L1.6625 3.32499Z" fill="#EBEEF4"/>
<path d="M5.06993 4.30964L4.75 3.32499L4.43007 4.30964H3.39474L4.23234 4.91818L3.91241 5.90283L4.75 5.29429L5.58759 5.90283L5.26766 4.91818L6.10525 4.30964H5.06993Z" fill="#EBEEF4"/>
<path d="M7.8375 3.32499L8.15743 4.30964H9.19276L8.35516 4.91818L8.6751 5.90283L7.8375 5.29429L6.99991 5.90283L7.31984 4.91818L6.48225 4.30964H7.51757L7.8375 3.32499Z" fill="#EBEEF4"/>
<path d="M1.98243 7.39714L1.6625 6.41249L1.34257 7.39714H0.307246L1.14484 8.00569L0.824907 8.99034L1.6625 8.38179L2.5001 8.99034L2.18016 8.00569L3.01776 7.39714H1.98243Z" fill="#EBEEF4"/>
<path d="M4.75 6.41249L5.06993 7.39714H6.10525L5.26766 8.00569L5.58759 8.99034L4.75 8.38179L3.91241 8.99034L4.23234 8.00569L3.39474 7.39714H4.43007L4.75 6.41249Z" fill="#EBEEF4"/>
<path d="M8.15743 7.39714L7.8375 6.41249L7.51757 7.39714H6.48225L7.31984 8.00569L6.99991 8.99034L7.8375 8.38179L8.6751 8.99034L8.35516 8.00569L9.19276 7.39714H8.15743Z" fill="#EBEEF4"/>
</svg>
