<svg width="18" height="18" viewBox="0 0 18 18" fill="none" xmlns="http://www.w3.org/2000/svg">
<path d="M3.95969 13.9876L4.38719 12.1351C4.48469 11.7001 4.31219 11.0926 3.99719 10.7776L2.13719 8.9176C1.04219 7.8226 1.39469 6.7126 2.92469 6.4576L5.31719 6.0601C5.71469 5.9926 6.19469 5.6401 6.37469 5.2726L7.69469 2.6326C8.40719 1.2001 9.57719 1.2001 10.2972 2.6326L11.6172 5.2726C11.6997 5.4451 11.8572 5.6101 12.0297 5.7526M15.0746 6.45776C16.6046 6.71276 16.9646 7.82276 15.8621 8.91776L14.0021 10.7778C13.6871 11.0928 13.5146 11.7003 13.6121 12.1353L14.1446 14.4378C14.5646 16.2603 13.5971 16.9653 11.9846 16.0128L9.74215 14.6853C9.33715 14.4453 8.66965 14.4453 8.25715 14.6853L6.01465 16.0128M16.5 1.5L1.5 16.5" stroke="#A6A6A6" stroke-width="1.5" stroke-linecap="round" stroke-linejoin="round"/>
</svg>
