<svg width="20" height="20" viewBox="0 0 20 20" fill="none" xmlns="http://www.w3.org/2000/svg">
<path d="M12.8334 10.2619V1.69047H6.52482C7.2191 2.29904 7.6648 3.18188 7.69052 4.18473C7.70766 4.82759 7.53625 5.44475 7.22768 5.96761C7.05625 6.27618 6.83338 6.55904 6.56766 6.7819C5.9848 7.33904 5.20483 7.67333 4.33911 7.69047C3.27625 7.71619 2.31623 7.25332 1.69052 6.50761V11.9762M12.8334 10.2619C12.8334 11.2048 12.0619 11.9762 11.1191 11.9762H1.69052M12.8334 10.2619V4.2619H14.4105C15.0277 4.2619 15.5934 4.59619 15.902 5.12762L17.3676 7.69047M1.69052 11.9762V14.5476C1.69052 15.9705 2.83909 17.119 4.26195 17.119H5.11909M18.8334 11.9762V14.5476C18.8334 15.9705 17.6848 17.119 16.2619 17.119H15.4048M18.8334 11.9762H16.2619C15.7905 11.9762 15.4048 11.5905 15.4048 11.119V8.54761C15.4048 8.07619 15.7905 7.69047 16.2619 7.69047H17.3676M18.8334 11.9762V10.2619L17.3676 7.69047M15.4048 17.119C15.4048 16.1762 14.6334 15.4048 13.6905 15.4048M15.4048 17.119C15.4048 18.0658 14.6373 18.8333 13.6905 18.8333C12.7437 18.8333 11.9762 18.0658 11.9762 17.119M15.4048 17.119C15.4048 16.1723 14.6373 15.4048 13.6905 15.4048M13.6905 15.4048C12.7477 15.4048 11.9762 16.1762 11.9762 17.119M13.6905 15.4048C12.7437 15.4048 11.9762 16.1723 11.9762 17.119M11.9762 17.119H8.54766M8.54766 17.119C8.54766 16.1762 7.77623 15.4048 6.83337 15.4048M8.54766 17.119C8.54766 18.0658 7.78015 18.8333 6.83337 18.8333C5.8866 18.8333 5.11909 18.0658 5.11909 17.119M8.54766 17.119C8.54766 16.1723 7.78015 15.4048 6.83337 15.4048M6.83337 15.4048C5.89052 15.4048 5.11909 16.1762 5.11909 17.119M6.83337 15.4048C5.8866 15.4048 5.11909 16.1723 5.11909 17.119M4.47625 3.19043V4.47614L3.40482 5.119M7.69052 4.2619C7.69052 5.29047 7.23624 6.20761 6.52482 6.83333C5.91624 7.36476 5.12766 7.69047 4.26195 7.69047C2.36766 7.69047 0.833374 6.15619 0.833374 4.2619C0.833374 3.1819 1.33052 2.21333 2.11909 1.58762C2.71052 1.11619 3.45623 0.833328 4.26195 0.833328C6.15623 0.833328 7.69052 2.36761 7.69052 4.2619Z" stroke="#00B94D" stroke-width="1.5" stroke-miterlimit="10" stroke-linecap="round" stroke-linejoin="round"/>
</svg>
