<svg width="16" height="16" viewBox="0 0 16 16" fill="none" xmlns="http://www.w3.org/2000/svg">
<path d="M5.5304 7.91882L7.12078 9.5158L10.3081 6.32184" stroke="#1441B1" stroke-linecap="round" stroke-linejoin="round"/>
<path d="M7.09439 1.61672C7.54973 1.22737 8.29543 1.22737 8.75736 1.61672L9.80002 2.51419C9.99799 2.68577 10.3675 2.82435 10.6315 2.82435H11.7534C12.4529 2.82435 13.027 3.39847 13.027 4.09798V5.21982C13.027 5.47719 13.1656 5.85333 13.3371 6.05131L14.2346 7.09396C14.624 7.5493 14.624 8.295 14.2346 8.75693L13.3371 9.79959C13.1656 9.99756 13.027 10.3671 13.027 10.6311V11.7529C13.027 12.4524 12.4529 13.0265 11.7534 13.0265H10.6315C10.3741 13.0265 9.99799 13.1651 9.80002 13.3367L8.75736 14.2342C8.30203 14.6235 7.55633 14.6235 7.09439 14.2342L6.05174 13.3367C5.85376 13.1651 5.48421 13.0265 5.22025 13.0265H4.07861C3.3791 13.0265 2.80498 12.4524 2.80498 11.7529V10.6245C2.80498 10.3671 2.6664 9.99756 2.50142 9.79959L1.61055 8.75033C1.2278 8.295 1.2278 7.5559 1.61055 7.10056L2.50142 6.05131C2.6664 5.85333 2.80498 5.48378 2.80498 5.22642V4.09138C2.80498 3.39187 3.3791 2.81775 4.07861 2.81775H5.22025C5.47761 2.81775 5.85376 2.67917 6.05174 2.50759L7.09439 1.61672Z" stroke="#1441B1" stroke-linecap="round" stroke-linejoin="round"/>
</svg>
