<svg width="18" height="14" viewBox="0 0 18 14" fill="none" xmlns="http://www.w3.org/2000/svg">
<path fill-rule="evenodd" clip-rule="evenodd" d="M10.8483 0.225468C11.1333 -0.0751559 11.5953 -0.0751559 11.8803 0.225468L17.7863 6.45567C17.9231 6.60004 18 6.79584 18 7C18 7.20416 17.9231 7.39996 17.7863 7.54433L11.8803 13.7745C11.5953 14.0752 11.1333 14.0752 10.8483 13.7745C10.5633 13.4739 10.5633 12.9865 10.8483 12.6859L15.5085 7.7698H0.72973C0.326711 7.7698 0 7.42515 0 7.00001C0 6.57486 0.326711 6.23021 0.72973 6.23021H15.5086L10.8483 1.31412C10.5633 1.0135 10.5633 0.526091 10.8483 0.225468Z" fill="#00B94D"/>
</svg>
