<svg width="631" height="104" viewBox="0 0 631 104" fill="none" xmlns="http://www.w3.org/2000/svg">
<path d="M0.820679 0H617.208C624.726 0 630.821 6.09468 630.821 13.6128V63.1615C630.821 85.716 612.537 104 589.982 104H0.820679V0Z" fill="url(#paint0_linear_635_31)"/>
<path d="M209.627 83.5282C213.767 78.8503 217.531 74.0379 220.919 69.0911C224.306 64.0906 227.559 58.8481 230.678 53.3636C230.57 52.7184 230.517 52.0462 230.517 51.3472C230.517 48.6588 231.001 46.6693 231.968 45.3788C232.99 44.0884 233.823 43.3087 234.469 43.0399C235.383 42.8248 236.351 42.8517 237.372 43.1205C238.448 43.3356 239.415 43.712 240.276 44.2497C241.136 44.7874 241.728 45.4326 242.05 46.1854C241.889 47.207 241.405 48.4975 240.598 50.0568C239.846 51.6161 238.958 53.2561 237.937 54.9767C238.313 55.6219 238.797 56.2403 239.389 56.8317C240.034 57.4232 240.787 58.0684 241.647 58.7674L247.777 63.768C249.981 65.5424 251.621 67.3974 252.697 69.3331C253.826 71.215 254.39 73.3389 254.39 75.7048C254.39 78.5546 253.584 81.0817 251.971 83.2863C252.239 83.8777 252.374 84.5767 252.374 85.3833C252.374 86.4049 252.105 87.2114 251.567 87.8029C251.083 88.4481 250.384 88.7708 249.47 88.7708C248.61 88.7708 247.777 88.717 246.97 88.6095C246.164 88.5019 245.276 88.3675 244.309 88.2062C242.857 88.5826 241.324 88.7708 239.711 88.7708C237.829 88.7708 235.947 88.475 234.065 87.8836C232.184 87.3459 230.221 86.4587 228.178 85.222C228.07 82.3722 229.146 80.2752 231.404 78.931C234.361 80.8667 237.157 81.8345 239.792 81.8345C242.05 81.8345 243.851 81.243 245.196 80.0601C246.54 78.8234 247.212 77.2641 247.212 75.3822C247.212 73.0163 245.922 70.8118 243.341 68.7685L237.211 63.9293C236.082 63.069 235.114 62.1549 234.307 61.187C232.372 64.4132 230.248 67.7469 227.936 71.1882C225.677 74.5756 223.419 77.7749 221.161 80.786C218.902 83.7433 216.859 86.1898 215.031 88.1255C212.02 87.8029 210.219 86.2705 209.627 83.5282Z" fill="white"/>
<path d="M249.66 88.7708C248.853 88.7708 248.235 88.4481 247.805 87.8029C247.321 87.1577 247.079 86.3243 247.079 85.3026C247.079 84.2272 247.348 83.3938 247.886 82.8024C248.423 82.2109 249.122 81.9152 249.983 81.9152C253.8 81.9152 257.188 80.8398 260.145 78.689C263.156 76.4844 265.522 73.4734 267.243 69.6557C268.963 65.8381 269.824 61.4828 269.824 56.5898V49.5728C270.307 49.4115 270.872 49.2771 271.517 49.1696C272.163 49.062 272.835 49.0083 273.534 49.0083C274.77 49.0083 275.98 49.1965 277.163 49.5728V68.204C277.163 72.8819 277.916 76.2963 279.421 78.447C280.927 80.544 283.293 81.5925 286.519 81.5925C294.208 81.5925 298.052 75.9736 298.052 64.7358V49.5728C298.483 49.4115 299.02 49.2771 299.666 49.1696C300.311 49.062 300.983 49.0083 301.682 49.0083C302.972 49.0083 304.209 49.1965 305.392 49.5728V72.8012C305.392 75.651 305.822 77.8825 306.682 79.4955C307.597 81.0548 309.102 81.8345 311.199 81.8345C312.113 81.8345 312.732 82.2109 313.054 82.9637C313.377 83.7164 313.538 84.523 313.538 85.3833C313.538 86.2436 313.296 87.0232 312.812 87.7223C312.382 88.4213 311.656 88.7708 310.635 88.7708C305.473 88.7708 301.978 86.5124 300.15 81.9958C298.644 84.2004 296.708 85.8941 294.342 87.077C291.977 88.2062 289.181 88.7708 285.954 88.7708C278.104 88.7708 273.104 84.9262 270.953 77.2372C268.587 80.8398 265.576 83.6627 261.919 85.7059C258.263 87.7491 254.177 88.7708 249.66 88.7708Z" fill="white"/>
<path d="M310.647 88.7708C309.948 88.7708 309.384 88.4481 308.953 87.8029C308.523 87.1577 308.308 86.3243 308.308 85.3026C308.308 82.9906 309.276 81.8345 311.212 81.8345C312.932 81.8345 314.465 80.9742 315.809 79.2536C317.207 77.4792 318.417 74.5487 319.438 70.4623L321.858 61.0257C324.116 52.6377 328.418 48.4437 334.763 48.4437C337.182 48.4437 339.226 49.1696 340.892 50.6214C342.559 52.0194 343.715 53.9282 344.361 56.3478C345.866 53.8206 347.802 51.8849 350.168 50.5407C352.534 49.1427 355.168 48.4437 358.072 48.4437C362.266 48.4437 365.492 49.8148 367.75 52.5571C370.062 55.2993 371.218 59.1438 371.218 64.0906V73.5271C371.218 76.4844 371.595 78.6083 372.348 79.8988C373.154 81.1893 374.418 81.8345 376.138 81.8345C376.891 81.8345 377.456 82.1571 377.832 82.8024C378.262 83.4476 378.477 84.3079 378.477 85.3833C378.477 86.2436 378.235 87.0232 377.751 87.7223C377.321 88.4213 376.595 88.7708 375.574 88.7708C367.777 88.7708 363.879 83.9853 363.879 74.4143V64.0906C363.879 58.2835 361.594 55.3799 357.023 55.3799C354.657 55.3799 352.56 56.3209 350.732 58.2028C348.958 60.0848 347.56 62.6926 346.538 66.0263C345.57 69.36 345.086 73.2314 345.086 77.6405V87.6416C344.549 87.8029 343.957 87.9373 343.312 88.0449C342.667 88.1524 342.048 88.2062 341.457 88.2062C340.167 88.2062 338.957 88.018 337.828 87.6416V61.9129C337.828 59.8159 337.559 58.2028 337.021 57.0737C336.483 55.9445 335.515 55.3799 334.117 55.3799C332.988 55.3799 332.021 55.8908 331.214 56.9124C330.407 57.934 329.708 59.574 329.117 61.8323L326.133 73.4465C324.735 78.7696 322.799 82.6679 320.326 85.1413C317.852 87.561 314.626 88.7708 310.647 88.7708Z" fill="white"/>
<path d="M375.549 88.7708C374.85 88.7708 374.285 88.4481 373.855 87.8029C373.425 87.1577 373.21 86.3243 373.21 85.3026C373.21 82.9906 374.177 81.8345 376.113 81.8345C377.834 81.8345 379.743 80.786 381.84 78.689C383.937 76.5382 386.383 73.097 389.179 68.3653L397.809 53.7669C397.702 53.0141 397.648 52.2076 397.648 51.3472C397.648 48.6588 398.132 46.6693 399.1 45.3788C400.121 44.0884 400.955 43.3087 401.6 43.0399C402.514 42.8248 403.482 42.8517 404.503 43.1205C405.579 43.3356 406.547 43.712 407.407 44.2497C408.267 44.7874 408.859 45.4326 409.181 46.1854C408.966 47.1532 408.563 48.3093 407.971 49.6535C407.38 50.9977 406.439 52.799 405.149 55.0573C405.525 55.6488 406.009 56.2403 406.6 56.8317C407.192 57.4232 407.918 58.0684 408.778 58.7674L414.908 63.768C417.112 65.5424 418.752 67.3974 419.828 69.3331C420.957 71.215 421.521 73.3389 421.521 75.7048C421.521 78.5546 420.715 81.0817 419.102 83.2863C419.371 83.8777 419.505 84.5767 419.505 85.3833C419.505 86.4049 419.236 87.2114 418.698 87.8029C418.215 88.4481 417.516 88.7708 416.601 88.7708C415.741 88.7708 414.908 88.717 414.101 88.6095C413.295 88.5019 412.407 88.3675 411.44 88.2062C409.988 88.5826 408.455 88.7708 406.842 88.7708C404.96 88.7708 403.078 88.475 401.197 87.8836C399.315 87.3459 397.352 86.4587 395.309 85.222C395.201 82.3722 396.277 80.2752 398.535 78.931C401.492 80.8667 404.288 81.8345 406.923 81.8345C409.181 81.8345 410.983 81.243 412.327 80.0601C413.671 78.8234 414.343 77.2641 414.343 75.3822C414.343 73.0163 413.053 70.8118 410.472 68.7685L404.342 63.9293C403.267 63.069 402.299 62.1818 401.439 61.2677L393.373 74.8982C390.416 79.8988 387.566 83.4745 384.824 85.6253C382.135 87.7223 379.044 88.7708 375.549 88.7708Z" fill="white"/>
<path d="M416.635 88.7708C415.936 88.7708 415.372 88.4481 414.942 87.8029C414.458 87.1577 414.216 86.3243 414.216 85.3026C414.216 83.0443 415.211 81.9152 417.2 81.9152C421.071 81.9152 424.62 80.5709 427.846 77.8825C431.073 75.1402 433.949 71.2419 436.476 66.1876V24.812C436.476 19.4351 437.606 15.2948 439.864 12.3913C442.176 9.48775 445.51 8.06286 449.865 8.11663C453.844 8.17039 456.936 9.67594 459.14 12.6333C461.399 15.5906 462.528 19.4351 462.528 24.1668C462.528 32.0171 460.162 40.7547 455.43 50.3794C455.807 50.3256 456.183 50.2987 456.559 50.2987C460.592 50.2987 463.791 51.7236 466.157 54.5734C468.577 57.4232 469.787 61.2408 469.787 66.0263V72.9625C469.787 76.0812 470.163 78.3395 470.916 79.7375C471.722 81.1355 473.04 81.8345 474.868 81.8345C475.728 81.8345 476.346 82.184 476.723 82.883C477.099 83.5282 477.287 84.3617 477.287 85.3833C477.287 86.4049 477.019 87.2114 476.481 87.8029C475.997 88.4481 475.298 88.7708 474.384 88.7708C470.512 88.7708 467.528 87.5341 465.431 85.0607C463.388 82.5335 462.366 78.9847 462.366 74.4143V65.865C462.366 63.1227 461.748 60.9989 460.511 59.4933C459.328 57.934 457.635 57.1543 455.43 57.1543C453.279 57.1543 451.344 57.8802 449.623 59.332C447.902 60.73 446.531 62.6657 445.51 65.1391C444.488 67.6125 443.95 70.4623 443.897 73.6884V87.6416C443.359 87.8029 442.767 87.9373 442.122 88.0449C441.477 88.1524 440.859 88.2062 440.267 88.2062C439.03 88.2062 437.767 88.018 436.476 87.6416V78.6083C433.842 82.0496 430.804 84.6036 427.362 86.2705C423.921 87.9373 420.346 88.7708 416.635 88.7708ZM443.655 24.7314V56.5091C447.418 50.8095 450.295 45.1638 452.285 39.5717C454.328 33.9797 455.349 28.8179 455.349 24.0861C455.349 21.0751 454.839 18.7899 453.817 17.2305C452.849 15.6175 451.424 14.8109 449.542 14.8109C445.617 14.8109 443.655 18.1177 443.655 24.7314Z" fill="white"/>
<path d="M474.962 81.8345C476.091 81.8345 477.301 81.485 478.591 80.786C479.882 80.087 481.091 79.0116 482.221 77.5598C483.565 75.7317 484.533 73.6347 485.124 71.2688C485.769 68.903 486.173 66.5102 486.334 64.0906V49.5728C486.818 49.4115 487.382 49.2771 488.028 49.1696C488.673 49.062 489.345 49.0083 490.044 49.0083C491.281 49.0083 492.49 49.1965 493.673 49.5728V72.8012C493.673 75.651 494.104 77.8825 494.964 79.4955C495.878 81.0548 497.383 81.8345 499.48 81.8345C500.395 81.8345 501.013 82.2109 501.336 82.9637C501.658 83.7164 501.819 84.523 501.819 85.3833C501.819 86.2436 501.578 87.0232 501.094 87.7223C500.663 88.4213 499.938 88.7708 498.916 88.7708C493.324 88.7708 489.694 86.1361 488.028 80.8667C487.275 82.1034 486.468 83.1519 485.608 84.0122C484.156 85.4639 482.462 86.62 480.527 87.4803C478.645 88.3406 476.602 88.7708 474.397 88.7708C473.644 88.7708 473.08 88.3944 472.703 87.6416C472.273 86.9426 472.058 86.1629 472.058 85.3026C472.058 84.3886 472.3 83.582 472.784 82.883C473.214 82.184 473.94 81.8345 474.962 81.8345ZM490.125 37.9587C488.619 37.9587 487.329 37.421 486.253 36.3456C485.178 35.2702 484.64 33.9797 484.64 32.4742C484.64 30.8611 485.151 29.5437 486.173 28.5221C487.248 27.5005 488.565 26.9897 490.125 26.9897C491.738 26.9897 493.055 27.5005 494.077 28.5221C495.098 29.5437 495.609 30.8611 495.609 32.4742C495.609 34.0335 495.071 35.3508 493.996 36.4262C492.974 37.4478 491.684 37.9587 490.125 37.9587Z" fill="white"/>
<path d="M498.893 88.7708C498.194 88.7708 497.629 88.4481 497.199 87.8029C496.769 87.1577 496.554 86.3243 496.554 85.3026C496.554 82.9906 497.521 81.8345 499.457 81.8345C501.178 81.8345 502.71 80.9742 504.054 79.2536C505.452 77.4792 506.662 74.5487 507.684 70.4623L510.104 61.0257C512.362 52.6377 516.663 48.4437 523.008 48.4437C525.428 48.4437 527.471 49.1696 529.138 50.6214C530.805 52.0194 531.961 53.9282 532.606 56.3478C534.112 53.8206 536.047 51.8849 538.413 50.5407C540.779 49.1427 543.414 48.4437 546.317 48.4437C550.511 48.4437 553.737 49.8148 555.996 52.5571C558.308 55.2993 559.464 59.1438 559.464 64.0906V73.5271C559.464 76.4844 559.84 78.6083 560.593 79.8988C561.4 81.1893 562.663 81.8345 564.384 81.8345C565.137 81.8345 565.701 82.1571 566.078 82.8024C566.508 83.4476 566.723 84.3079 566.723 85.3833C566.723 86.2436 566.481 87.0232 565.997 87.7223C565.567 88.4213 564.841 88.7708 563.819 88.7708C556.023 88.7708 552.124 83.9853 552.124 74.4143V64.0906C552.124 58.2835 549.839 55.3799 545.269 55.3799C542.903 55.3799 540.806 56.3209 538.978 58.2028C537.203 60.0848 535.805 62.6926 534.784 66.0263C533.816 69.36 533.332 73.2314 533.332 77.6405V87.6416C532.794 87.8029 532.203 87.9373 531.558 88.0449C530.912 88.1524 530.294 88.2062 529.703 88.2062C528.412 88.2062 527.202 88.018 526.073 87.6416V61.9129C526.073 59.8159 525.804 58.2028 525.266 57.0737C524.729 55.9445 523.761 55.3799 522.363 55.3799C521.234 55.3799 520.266 55.8908 519.459 56.9124C518.653 57.934 517.954 59.574 517.362 61.8323L514.378 73.4465C512.98 78.7696 511.044 82.6679 508.571 85.1413C506.098 87.561 502.872 88.7708 498.893 88.7708Z" fill="white"/>
<path d="M563.794 88.7708C563.095 88.7708 562.53 88.4481 562.1 87.8029C561.67 87.1577 561.455 86.3243 561.455 85.3026C561.455 82.9906 562.423 81.8345 564.359 81.8345C565.918 81.8345 567.504 81.5925 569.117 81.1086C570.73 80.5709 572.612 79.6837 574.763 78.447C572.666 74.7907 571.617 70.4892 571.617 65.5424C571.617 62.2087 572.236 59.2782 573.472 56.7511C574.709 54.1701 576.43 52.1538 578.634 50.702C580.839 49.1965 583.339 48.4437 586.135 48.4437C588.501 48.4437 590.598 49.0083 592.426 50.1374C594.254 51.2128 595.679 52.7184 596.701 54.6541C597.722 56.5898 598.233 58.8212 598.233 61.3484C598.233 64.7896 597.212 67.9351 595.168 70.7849C593.179 73.6347 589.792 76.7264 585.006 80.0601C586.727 81.2968 589.039 81.9152 591.942 81.9152C593.502 81.9152 595.061 81.7001 596.62 81.2699C598.179 80.8398 599.685 80.2483 601.137 79.4955C601.943 80.087 602.535 80.9742 602.911 82.1571C603.341 83.2863 603.556 84.3886 603.556 85.4639C601.782 86.4856 599.9 87.2921 597.911 87.8836C595.921 88.475 593.824 88.7708 591.62 88.7708H591.539C588.958 88.7708 586.538 88.3406 584.28 87.4803C582.022 86.62 580.14 85.4371 578.634 83.9315C573.472 87.1577 568.526 88.7708 563.794 88.7708ZM578.634 64.8971C578.634 69.1449 579.387 72.5324 580.893 75.0596C584.388 72.6399 586.969 70.2741 588.635 67.962C590.356 65.6499 591.216 63.4454 591.216 61.3484C591.216 59.4127 590.732 57.9071 589.765 56.8317C588.851 55.7026 587.56 55.138 585.893 55.138C583.796 55.138 582.049 56.079 580.651 57.9609C579.306 59.8428 578.634 62.1549 578.634 64.8971Z" fill="white"/>
<defs>
<linearGradient id="paint0_linear_635_31" x1="-50.4638" y1="110.789" x2="622.92" y2="-96.5604" gradientUnits="userSpaceOnUse">
<stop stop-color="#D29C5D"/>
<stop offset="1" stop-color="#4638FF"/>
</linearGradient>
</defs>
</svg>
