<svg width="177" height="88" viewBox="0 0 177 88" fill="none" xmlns="http://www.w3.org/2000/svg">
<path d="M0 11.1064C0 8.89728 1.79086 7.10642 4 7.10642H171.895C174.641 7.10642 176.571 9.8099 175.678 12.4067L150.928 84.4067C150.373 86.0219 148.853 87.1064 147.145 87.1064H4C1.79086 87.1064 0 85.3156 0 83.1064V11.1064Z" fill="url(#paint0_linear_299_32)"/>
<path d="M148.066 43.3477C149.768 53.4221 142.982 62.9693 132.907 64.6721C122.833 66.3748 113.286 59.5883 111.583 49.5139C109.88 39.4395 116.667 29.8923 126.741 28.1895C136.816 26.4868 146.363 33.2733 148.066 43.3477Z" fill="url(#paint1_linear_299_32)"/>
<path d="M156.586 2.69378C157.348 0.489866 159.827 -0.597232 161.965 0.33462L174.104 5.62599C176.02 6.46131 176.97 8.63137 176.284 10.606L150.609 84.4762C149.778 86.8675 146.963 87.895 144.787 86.6012L133.301 79.7721C131.67 78.8022 130.945 76.8197 131.565 75.0263L156.586 2.69378Z" fill="#E5ECF9"/>
<defs>
<linearGradient id="paint0_linear_299_32" x1="176.506" y1="43.5824" x2="26.3516" y2="43.5824" gradientUnits="userSpaceOnUse">
<stop stop-color="#C2CBDD"/>
<stop offset="1" stop-color="#DBE7FD" stop-opacity="0"/>
</linearGradient>
<linearGradient id="paint1_linear_299_32" x1="173.006" y1="58.0079" x2="50.2269" y2="-32.7621" gradientUnits="userSpaceOnUse">
<stop offset="0.162725" stop-color="#FF0F0F" stop-opacity="0"/>
<stop offset="0.392169" stop-color="#FD0000"/>
</linearGradient>
</defs>
</svg>
