<svg width="1380" height="12" viewBox="0 0 1380 12" fill="none" xmlns="http://www.w3.org/2000/svg">
<path d="M86 4.99999V5.99999L8.74224e-08 6L0 5L86 4.99999Z" fill="#1441B1"/>
<path d="M1380 5.0001V6.0001L248 6V5L1380 5.0001Z" fill="#1441B1"/>
<path d="M230.547 9V2.67599H232.227V6.42C232.283 6.34 232.343 6.26 232.407 6.18C232.471 6.092 232.527 6.01599 232.575 5.95199L235.107 2.67599H236.571V9H234.879V5.32799C234.823 5.41599 234.759 5.504 234.687 5.592C234.623 5.672 234.559 5.75199 234.495 5.832L232.059 9H230.547Z" fill="#1441B1"/>
<path d="M223.691 9V2.67599H225.371V5.1H226.331L227.879 2.67599H229.775L227.795 5.652L229.787 9H227.855L226.427 6.6H225.371V9H223.691Z" fill="#1441B1"/>
<path d="M216.344 9V2.67599H218.024V6.42C218.08 6.34 218.14 6.26 218.204 6.18C218.268 6.092 218.324 6.01599 218.372 5.95199L220.904 2.67599H222.368V9H220.676V5.32799C220.62 5.41599 220.556 5.504 220.484 5.592C220.42 5.672 220.356 5.75199 220.292 5.832L217.856 9H216.344Z" fill="#1441B1"/>
<path d="M211.844 9V4.17599H209.78V2.67599H215.588V4.17599H213.512V9H211.844Z" fill="#1441B1"/>
<path d="M206.437 9.08399C205.789 9.08399 205.233 8.95199 204.769 8.68799C204.313 8.42399 203.965 8.05199 203.725 7.57199C203.485 7.08399 203.365 6.51199 203.365 5.85599C203.365 5.19199 203.489 4.61599 203.737 4.12799C203.985 3.63199 204.341 3.24799 204.805 2.97599C205.277 2.70399 205.845 2.56799 206.509 2.56799C207.021 2.56799 207.477 2.65999 207.877 2.84399C208.277 3.02799 208.597 3.29199 208.837 3.63599C209.085 3.97999 209.229 4.40399 209.269 4.90799H207.625C207.553 4.62799 207.413 4.42399 207.205 4.29599C207.005 4.16799 206.765 4.10399 206.485 4.10399C206.109 4.10399 205.817 4.19199 205.609 4.36799C205.401 4.54399 205.253 4.76799 205.165 5.03999C205.077 5.31199 205.033 5.57999 205.033 5.84399C205.033 6.13999 205.081 6.41999 205.177 6.68399C205.273 6.94799 205.425 7.16399 205.633 7.33199C205.849 7.49199 206.129 7.57199 206.473 7.57199C206.761 7.57199 207.013 7.50799 207.229 7.37999C207.445 7.24399 207.585 7.03599 207.649 6.75599H209.329C209.289 7.27599 209.133 7.70799 208.861 8.05199C208.589 8.39599 208.241 8.65599 207.817 8.83199C207.401 8.99999 206.941 9.08399 206.437 9.08399Z" fill="#1441B1"/>
<path d="M196.258 9V2.67599H197.938V6.42C197.994 6.34 198.054 6.26 198.118 6.18C198.182 6.092 198.238 6.01599 198.286 5.95199L200.818 2.67599H202.282V9H200.59V5.32799C200.534 5.41599 200.47 5.504 200.398 5.592C200.334 5.672 200.27 5.75199 200.206 5.832L197.77 9H196.258Z" fill="#1441B1"/>
<path d="M188.816 11.364V2.67599H190.388L190.472 3.47999C190.728 3.14399 191.032 2.91199 191.384 2.78399C191.736 2.64799 192.108 2.57999 192.5 2.57999C193.1 2.57999 193.6 2.72399 194 3.01199C194.4 3.29999 194.704 3.69199 194.912 4.18799C195.12 4.67599 195.224 5.22799 195.224 5.84399C195.224 6.45999 195.12 7.01599 194.912 7.51199C194.704 7.99999 194.388 8.38399 193.964 8.66399C193.54 8.94399 193.004 9.08399 192.356 9.08399C192.06 9.08399 191.792 9.05199 191.552 8.98799C191.32 8.92399 191.116 8.83599 190.94 8.72399C190.772 8.61199 190.624 8.49599 190.496 8.37599V11.364H188.816ZM192.08 7.57199C192.456 7.57199 192.752 7.48799 192.968 7.31999C193.184 7.15199 193.336 6.93999 193.424 6.68399C193.512 6.41999 193.556 6.14799 193.556 5.86799C193.556 5.56399 193.508 5.27599 193.412 5.00399C193.316 4.73199 193.156 4.51599 192.932 4.35599C192.716 4.18799 192.42 4.10399 192.044 4.10399C191.708 4.10399 191.424 4.18799 191.192 4.35599C190.96 4.51599 190.784 4.72799 190.664 4.99199C190.544 5.25599 190.484 5.53999 190.484 5.84399C190.484 6.14799 190.54 6.43199 190.652 6.69599C190.772 6.95999 190.948 7.17199 191.18 7.33199C191.42 7.49199 191.72 7.57199 192.08 7.57199Z" fill="#1441B1"/>
<path d="M184.806 9.08399C184.142 9.08399 183.578 8.95199 183.114 8.68799C182.65 8.42399 182.294 8.05199 182.046 7.57199C181.798 7.08399 181.674 6.51599 181.674 5.86799C181.674 5.21199 181.802 4.63999 182.058 4.15199C182.314 3.65599 182.674 3.26799 183.138 2.98799C183.61 2.70799 184.166 2.56799 184.806 2.56799C185.278 2.56799 185.694 2.64799 186.054 2.80799C186.422 2.96799 186.73 3.19199 186.978 3.47999C187.234 3.75999 187.426 4.09199 187.554 4.47599C187.682 4.85199 187.742 5.26399 187.734 5.71199C187.726 5.82399 187.718 5.93199 187.71 6.03599C187.71 6.13999 187.698 6.24399 187.674 6.34799H183.342C183.366 6.58799 183.434 6.80799 183.546 7.00799C183.658 7.20799 183.814 7.36799 184.014 7.48799C184.222 7.59999 184.478 7.65599 184.782 7.65599C184.982 7.65599 185.166 7.63599 185.334 7.59599C185.502 7.54799 185.646 7.47599 185.766 7.37999C185.886 7.28399 185.97 7.17199 186.018 7.04399H187.674C187.57 7.51599 187.374 7.90399 187.086 8.20799C186.806 8.51199 186.466 8.73599 186.066 8.87999C185.666 9.01599 185.246 9.08399 184.806 9.08399ZM183.378 5.17199H186.126C186.118 4.95599 186.062 4.75599 185.958 4.57199C185.862 4.37999 185.714 4.22799 185.514 4.11599C185.322 3.99599 185.074 3.93599 184.77 3.93599C184.466 3.93599 184.21 3.99599 184.002 4.11599C183.802 4.23599 183.65 4.39199 183.546 4.58399C183.45 4.76799 183.394 4.96399 183.378 5.17199Z" fill="#1441B1"/>
<path d="M177.414 9V4.17599H175.35V2.67599H181.158V4.17599H179.082V9H177.414Z" fill="#1441B1"/>
<path d="M169.059 9V2.67599H170.739V5.1H171.699L173.247 2.67599H175.143L173.163 5.652L175.155 9H173.223L171.795 6.6H170.739V9H169.059Z" fill="#1441B1"/>
<path d="M164.17 9.08399C163.898 9.08399 163.634 9.04799 163.378 8.97599C163.122 8.89599 162.89 8.77599 162.682 8.61599C162.482 8.45599 162.322 8.25599 162.202 8.01599C162.082 7.77599 162.022 7.49599 162.022 7.17599C162.022 6.74399 162.11 6.39999 162.286 6.14399C162.462 5.87999 162.698 5.67999 162.994 5.54399C163.29 5.40799 163.63 5.31599 164.014 5.26799C164.406 5.21999 164.81 5.19599 165.226 5.19599H166.138C166.138 4.96399 166.094 4.75999 166.006 4.58399C165.926 4.39999 165.802 4.25999 165.634 4.16399C165.466 4.05999 165.25 4.00799 164.986 4.00799C164.818 4.00799 164.654 4.03199 164.494 4.07999C164.342 4.11999 164.214 4.17999 164.11 4.25999C164.006 4.33999 163.938 4.44399 163.906 4.57199H162.202C162.25 4.21999 162.362 3.91999 162.538 3.67199C162.714 3.41599 162.934 3.20799 163.198 3.04799C163.462 2.88799 163.75 2.77199 164.062 2.69999C164.382 2.61999 164.71 2.57999 165.046 2.57999C165.662 2.57999 166.166 2.69599 166.558 2.92799C166.958 3.15999 167.254 3.49999 167.446 3.94799C167.646 4.39599 167.746 4.94399 167.746 5.59199V8.99999H166.234L166.21 8.25599C166.026 8.47199 165.822 8.64399 165.598 8.77199C165.382 8.89199 165.154 8.97199 164.914 9.01199C164.674 9.05999 164.426 9.08399 164.17 9.08399ZM164.626 7.75199C164.914 7.75199 165.174 7.69599 165.406 7.58399C165.638 7.46399 165.818 7.30799 165.946 7.11599C166.082 6.91599 166.15 6.69599 166.15 6.45599V6.32399H164.998C164.822 6.32399 164.654 6.33199 164.494 6.34799C164.342 6.36399 164.202 6.39599 164.074 6.44399C163.954 6.48399 163.858 6.55199 163.786 6.64799C163.722 6.73599 163.69 6.85599 163.69 7.00799C163.69 7.17599 163.73 7.31599 163.81 7.42799C163.898 7.53999 164.014 7.62399 164.158 7.67999C164.302 7.72799 164.458 7.75199 164.626 7.75199Z" fill="#1441B1"/>
<path d="M154.797 11.364V2.67599H156.369L156.453 3.47999C156.709 3.14399 157.013 2.91199 157.365 2.78399C157.717 2.64799 158.089 2.57999 158.481 2.57999C159.081 2.57999 159.581 2.72399 159.981 3.01199C160.381 3.29999 160.685 3.69199 160.893 4.18799C161.101 4.67599 161.205 5.22799 161.205 5.84399C161.205 6.45999 161.101 7.01599 160.893 7.51199C160.685 7.99999 160.369 8.38399 159.945 8.66399C159.521 8.94399 158.985 9.08399 158.337 9.08399C158.041 9.08399 157.773 9.05199 157.533 8.98799C157.301 8.92399 157.097 8.83599 156.921 8.72399C156.753 8.61199 156.605 8.49599 156.477 8.37599V11.364H154.797ZM158.061 7.57199C158.437 7.57199 158.733 7.48799 158.949 7.31999C159.165 7.15199 159.317 6.93999 159.405 6.68399C159.493 6.41999 159.537 6.14799 159.537 5.86799C159.537 5.56399 159.489 5.27599 159.393 5.00399C159.297 4.73199 159.137 4.51599 158.913 4.35599C158.697 4.18799 158.401 4.10399 158.025 4.10399C157.689 4.10399 157.405 4.18799 157.173 4.35599C156.941 4.51599 156.765 4.72799 156.645 4.99199C156.525 5.25599 156.465 5.53999 156.465 5.84399C156.465 6.14799 156.521 6.43199 156.633 6.69599C156.753 6.95999 156.929 7.17199 157.161 7.33199C157.401 7.49199 157.701 7.57199 158.061 7.57199Z" fill="#1441B1"/>
<path d="M149.908 9.08399C149.636 9.08399 149.372 9.04799 149.116 8.97599C148.86 8.89599 148.628 8.77599 148.42 8.61599C148.22 8.45599 148.06 8.25599 147.94 8.01599C147.82 7.77599 147.76 7.49599 147.76 7.17599C147.76 6.74399 147.848 6.39999 148.024 6.14399C148.2 5.87999 148.436 5.67999 148.732 5.54399C149.028 5.40799 149.368 5.31599 149.752 5.26799C150.144 5.21999 150.548 5.19599 150.964 5.19599H151.876C151.876 4.96399 151.832 4.75999 151.744 4.58399C151.664 4.39999 151.54 4.25999 151.372 4.16399C151.204 4.05999 150.988 4.00799 150.724 4.00799C150.556 4.00799 150.392 4.03199 150.232 4.07999C150.08 4.11999 149.952 4.17999 149.848 4.25999C149.744 4.33999 149.676 4.44399 149.644 4.57199H147.94C147.988 4.21999 148.1 3.91999 148.276 3.67199C148.452 3.41599 148.672 3.20799 148.936 3.04799C149.2 2.88799 149.488 2.77199 149.8 2.69999C150.12 2.61999 150.448 2.57999 150.784 2.57999C151.4 2.57999 151.904 2.69599 152.296 2.92799C152.696 3.15999 152.992 3.49999 153.184 3.94799C153.384 4.39599 153.484 4.94399 153.484 5.59199V8.99999H151.972L151.948 8.25599C151.764 8.47199 151.56 8.64399 151.336 8.77199C151.12 8.89199 150.892 8.97199 150.652 9.01199C150.412 9.05999 150.164 9.08399 149.908 9.08399ZM150.364 7.75199C150.652 7.75199 150.912 7.69599 151.144 7.58399C151.376 7.46399 151.556 7.30799 151.684 7.11599C151.82 6.91599 151.888 6.69599 151.888 6.45599V6.32399H150.736C150.56 6.32399 150.392 6.33199 150.232 6.34799C150.08 6.36399 149.94 6.39599 149.812 6.44399C149.692 6.48399 149.596 6.55199 149.524 6.64799C149.46 6.73599 149.428 6.85599 149.428 7.00799C149.428 7.17599 149.468 7.31599 149.548 7.42799C149.636 7.53999 149.752 7.62399 149.896 7.67999C150.04 7.72799 150.196 7.75199 150.364 7.75199Z" fill="#1441B1"/>
<path d="M140.673 9L142.881 5.772L140.781 2.67599H142.737L143.985 4.66799L145.209 2.67599H147.105L144.993 5.808L147.249 9H145.293L143.913 6.924L142.545 9H140.673Z" fill="#1441B1"/>
<path d="M133.864 9.08399C133.2 9.08399 132.636 8.95199 132.172 8.68799C131.708 8.42399 131.352 8.05199 131.104 7.57199C130.856 7.08399 130.732 6.51599 130.732 5.86799C130.732 5.21199 130.86 4.63999 131.116 4.15199C131.372 3.65599 131.732 3.26799 132.196 2.98799C132.668 2.70799 133.224 2.56799 133.864 2.56799C134.336 2.56799 134.752 2.64799 135.112 2.80799C135.48 2.96799 135.788 3.19199 136.036 3.47999C136.292 3.75999 136.484 4.09199 136.612 4.47599C136.74 4.85199 136.8 5.26399 136.792 5.71199C136.784 5.82399 136.776 5.93199 136.768 6.03599C136.768 6.13999 136.756 6.24399 136.732 6.34799H132.4C132.424 6.58799 132.492 6.80799 132.604 7.00799C132.716 7.20799 132.872 7.36799 133.072 7.48799C133.28 7.59999 133.536 7.65599 133.84 7.65599C134.04 7.65599 134.224 7.63599 134.392 7.59599C134.56 7.54799 134.704 7.47599 134.824 7.37999C134.944 7.28399 135.028 7.17199 135.076 7.04399H136.732C136.628 7.51599 136.432 7.90399 136.144 8.20799C135.864 8.51199 135.524 8.73599 135.124 8.87999C134.724 9.01599 134.304 9.08399 133.864 9.08399ZM132.436 5.17199H135.184C135.176 4.95599 135.12 4.75599 135.016 4.57199C134.92 4.37999 134.772 4.22799 134.572 4.11599C134.38 3.99599 134.132 3.93599 133.828 3.93599C133.524 3.93599 133.268 3.99599 133.06 4.11599C132.86 4.23599 132.708 4.39199 132.604 4.58399C132.508 4.76799 132.452 4.96399 132.436 5.17199Z" fill="#1441B1"/>
<path d="M123.625 9V2.67599H125.305V6.42C125.361 6.34 125.421 6.26 125.485 6.18C125.549 6.092 125.605 6.01599 125.653 5.95199L128.185 2.67599H129.649V9H127.957V5.32799C127.901 5.41599 127.837 5.504 127.765 5.592C127.701 5.672 127.637 5.75199 127.573 5.832L125.137 9H123.625Z" fill="#1441B1"/>
<path d="M121.172 10.776V9H113.336V2.67599H115.016V7.5H116.828V2.67599H118.508V7.5H120.332V2.67599H122.012V7.5H122.84V10.776H121.172Z" fill="#1441B1"/>
<path d="M109.106 9.084C108.658 9.084 108.258 9.02 107.906 8.892C107.554 8.764 107.25 8.58401 106.994 8.35201C106.738 8.112 106.526 7.832 106.358 7.512C106.198 7.184 106.078 6.832 105.998 6.456C105.918 6.072 105.878 5.672 105.878 5.256C105.878 4.656 105.91 4.112 105.974 3.624C106.038 3.128 106.15 2.688 106.31 2.304C106.47 1.92 106.698 1.596 106.994 1.332C107.29 1.068 107.674 0.860004 108.146 0.708004C108.45 0.596004 108.778 0.512004 109.13 0.456005C109.482 0.392004 109.858 0.336004 110.258 0.288005C110.618 0.240004 110.898 0.204004 111.098 0.180005C111.306 0.148005 111.47 0.124004 111.59 0.108004C111.718 0.0840044 111.83 0.0640044 111.926 0.0480042V1.764C111.854 1.78 111.77 1.796 111.674 1.812C111.586 1.828 111.494 1.844 111.398 1.86C111.302 1.876 111.202 1.888 111.098 1.896C110.994 1.904 110.89 1.912 110.786 1.92C110.682 1.92 110.582 1.928 110.486 1.944C110.15 1.968 109.802 2 109.442 2.04C109.09 2.08 108.766 2.152 108.47 2.256C108.182 2.352 107.95 2.52 107.774 2.76C107.71 2.856 107.646 2.972 107.582 3.108C107.526 3.244 107.482 3.392 107.45 3.552C107.418 3.712 107.398 3.88 107.39 4.056C107.574 3.784 107.79 3.572 108.038 3.42C108.294 3.268 108.554 3.164 108.818 3.108C109.082 3.044 109.326 3.012 109.55 3.012C110.142 3.012 110.638 3.14 111.038 3.396C111.438 3.652 111.738 4.004 111.938 4.452C112.146 4.892 112.25 5.388 112.25 5.94C112.25 6.572 112.118 7.124 111.854 7.596C111.598 8.068 111.234 8.436 110.762 8.7C110.29 8.956 109.738 9.084 109.106 9.084ZM109.106 7.596C109.434 7.596 109.706 7.524 109.922 7.38C110.138 7.228 110.298 7.032 110.402 6.792C110.514 6.552 110.57 6.3 110.57 6.03601C110.57 5.77201 110.514 5.528 110.402 5.304C110.298 5.08 110.138 4.9 109.922 4.764C109.714 4.628 109.45 4.56 109.13 4.56C108.818 4.56 108.55 4.628 108.326 4.764C108.102 4.9 107.93 5.084 107.81 5.316C107.698 5.54 107.642 5.78401 107.642 6.04801C107.642 6.30401 107.694 6.552 107.798 6.792C107.91 7.032 108.074 7.228 108.29 7.38C108.506 7.524 108.778 7.596 109.106 7.596Z" fill="#1441B1"/>
<path d="M100.62 9.09599C99.7481 9.09599 98.9961 8.91199 98.3641 8.54399C97.7401 8.17599 97.2601 7.66799 96.9241 7.01999C96.5961 6.36399 96.4321 5.61199 96.4321 4.76399C96.4321 3.89999 96.6001 3.13999 96.9361 2.48399C97.2801 1.82799 97.7681 1.31999 98.4001 0.95999C99.0321 0.59199 99.7841 0.40799 100.656 0.40799C101.52 0.40799 102.264 0.58799 102.888 0.94799C103.512 1.30799 103.992 1.81199 104.328 2.45999C104.672 3.10799 104.844 3.86399 104.844 4.72799C104.844 5.57599 104.672 6.33199 104.328 6.99599C103.992 7.65199 103.508 8.16799 102.876 8.54399C102.252 8.91199 101.5 9.09599 100.62 9.09599ZM100.644 7.48799C101.22 7.48799 101.688 7.35599 102.048 7.09199C102.408 6.82799 102.668 6.48799 102.828 6.07199C102.996 5.65599 103.08 5.21999 103.08 4.76399C103.08 4.42799 103.032 4.09599 102.936 3.76799C102.848 3.43999 102.708 3.14399 102.516 2.87999C102.324 2.61599 102.072 2.40799 101.76 2.25599C101.448 2.09599 101.072 2.01599 100.632 2.01599C100.064 2.01599 99.6001 2.14799 99.2401 2.41199C98.8801 2.66799 98.6121 3.00399 98.4361 3.41999C98.2681 3.83599 98.1841 4.27999 98.1841 4.75199C98.1841 5.22399 98.2681 5.66799 98.4361 6.08399C98.6121 6.49999 98.8801 6.83999 99.2401 7.10399C99.6081 7.35999 100.076 7.48799 100.644 7.48799Z" fill="#1441B1"/>
</svg>
