<svg width="95" height="15" viewBox="0 0 95 15" fill="none" xmlns="http://www.w3.org/2000/svg">
<mask id="path-1-inside-1_642_38" fill="white">
<path d="M8.79573 1.08313L10.1156 3.74466C10.2956 4.11515 10.7755 4.47053 11.1805 4.53858L13.5727 4.93932C15.1025 5.1964 15.4625 6.31544 14.3601 7.41937L12.5003 9.29453C12.1854 9.6121 12.0129 10.2246 12.1104 10.6631L12.6428 12.9844C13.0628 14.8217 12.0954 15.5325 10.483 14.5722L8.24079 13.2339C7.83583 12.9919 7.16841 12.9919 6.75595 13.2339L4.5137 14.5722C2.90888 15.5325 1.93399 14.8142 2.35394 12.9844L2.88638 10.6631C2.98387 10.2246 2.81139 9.6121 2.49642 9.29453L0.636629 7.41937C-0.45825 6.31544 -0.105789 5.1964 1.42404 4.93932L3.81628 4.53858C4.21373 4.47053 4.69368 4.11515 4.87366 3.74466L6.19351 1.08313C6.91344 -0.361045 8.08331 -0.361045 8.79573 1.08313Z"/>
<path d="M28.7957 1.08313L30.1156 3.74466C30.2956 4.11515 30.7755 4.47053 31.1805 4.53858L33.5727 4.93932C35.1025 5.1964 35.4625 6.31544 34.3601 7.41937L32.5003 9.29453C32.1854 9.6121 32.0129 10.2246 32.1104 10.6631L32.6428 12.9844C33.0628 14.8217 32.0954 15.5325 30.483 14.5722L28.2408 13.2339C27.8358 12.9919 27.1684 12.9919 26.756 13.2339L24.5137 14.5722C22.9089 15.5325 21.934 14.8142 22.3539 12.9844L22.8864 10.6631C22.9839 10.2246 22.8114 9.6121 22.4964 9.29453L20.6366 7.41937C19.5418 6.31544 19.8942 5.1964 21.424 4.93932L23.8163 4.53858C24.2137 4.47053 24.6937 4.11515 24.8737 3.74466L26.1935 1.08313C26.9134 -0.361045 28.0833 -0.361045 28.7957 1.08313Z"/>
<path d="M48.7957 1.08313L50.1156 3.74466C50.2956 4.11515 50.7755 4.47053 51.1805 4.53858L53.5727 4.93932C55.1025 5.1964 55.4625 6.31544 54.3601 7.41937L52.5003 9.29453C52.1854 9.6121 52.0129 10.2246 52.1104 10.6631L52.6428 12.9844C53.0628 14.8217 52.0954 15.5325 50.483 14.5722L48.2408 13.2339C47.8358 12.9919 47.1684 12.9919 46.756 13.2339L44.5137 14.5722C42.9089 15.5325 41.934 14.8142 42.3539 12.9844L42.8864 10.6631C42.9839 10.2246 42.8114 9.6121 42.4964 9.29453L40.6366 7.41937C39.5417 6.31544 39.8942 5.1964 41.424 4.93932L43.8163 4.53858C44.2137 4.47053 44.6937 4.11515 44.8737 3.74466L46.1935 1.08313C46.9134 -0.361045 48.0833 -0.361045 48.7957 1.08313Z"/>
<path d="M68.7957 1.08313L70.1156 3.74466C70.2956 4.11515 70.7755 4.47053 71.1805 4.53858L73.5727 4.93932C75.1025 5.1964 75.4625 6.31544 74.3601 7.41937L72.5003 9.29453C72.1854 9.6121 72.0129 10.2246 72.1104 10.6631L72.6428 12.9844C73.0628 14.8217 72.0954 15.5325 70.483 14.5722L68.2408 13.2339C67.8358 12.9919 67.1684 12.9919 66.756 13.2339L64.5137 14.5722C62.9089 15.5325 61.934 14.8142 62.3539 12.9844L62.8864 10.6631C62.9839 10.2246 62.8114 9.6121 62.4964 9.29453L60.6366 7.41937C59.5417 6.31544 59.8942 5.1964 61.424 4.93932L63.8163 4.53858C64.2137 4.47053 64.6937 4.11515 64.8737 3.74466L66.1935 1.08313C66.9134 -0.361045 68.0833 -0.361045 68.7957 1.08313Z"/>
<path d="M88.7957 1.08313L90.1156 3.74466C90.2956 4.11515 90.7755 4.47053 91.1805 4.53858L93.5727 4.93932C95.1025 5.1964 95.4625 6.31544 94.3601 7.41937L92.5003 9.29453C92.1854 9.6121 92.0129 10.2246 92.1104 10.6631L92.6428 12.9844C93.0628 14.8217 92.0954 15.5325 90.483 14.5722L88.2408 13.2339C87.8358 12.9919 87.1684 12.9919 86.756 13.2339L84.5137 14.5722C82.9089 15.5325 81.934 14.8142 82.3539 12.9844L82.8864 10.6631C82.9839 10.2246 82.8114 9.6121 82.4964 9.29453L80.6366 7.41937C79.5417 6.31544 79.8942 5.1964 81.424 4.93932L83.8163 4.53858C84.2137 4.47053 84.6937 4.11515 84.8737 3.74466L86.1935 1.08313C86.9134 -0.361045 88.0833 -0.361045 88.7957 1.08313Z"/>
</mask>
<path d="M8.79573 1.08313L10.1156 3.74466C10.2956 4.11515 10.7755 4.47053 11.1805 4.53858L13.5727 4.93932C15.1025 5.1964 15.4625 6.31544 14.3601 7.41937L12.5003 9.29453C12.1854 9.6121 12.0129 10.2246 12.1104 10.6631L12.6428 12.9844C13.0628 14.8217 12.0954 15.5325 10.483 14.5722L8.24079 13.2339C7.83583 12.9919 7.16841 12.9919 6.75595 13.2339L4.5137 14.5722C2.90888 15.5325 1.93399 14.8142 2.35394 12.9844L2.88638 10.6631C2.98387 10.2246 2.81139 9.6121 2.49642 9.29453L0.636629 7.41937C-0.45825 6.31544 -0.105789 5.1964 1.42404 4.93932L3.81628 4.53858C4.21373 4.47053 4.69368 4.11515 4.87366 3.74466L6.19351 1.08313C6.91344 -0.361045 8.08331 -0.361045 8.79573 1.08313Z" fill="#FFA30F"/>
<path d="M28.7957 1.08313L30.1156 3.74466C30.2956 4.11515 30.7755 4.47053 31.1805 4.53858L33.5727 4.93932C35.1025 5.1964 35.4625 6.31544 34.3601 7.41937L32.5003 9.29453C32.1854 9.6121 32.0129 10.2246 32.1104 10.6631L32.6428 12.9844C33.0628 14.8217 32.0954 15.5325 30.483 14.5722L28.2408 13.2339C27.8358 12.9919 27.1684 12.9919 26.756 13.2339L24.5137 14.5722C22.9089 15.5325 21.934 14.8142 22.3539 12.9844L22.8864 10.6631C22.9839 10.2246 22.8114 9.6121 22.4964 9.29453L20.6366 7.41937C19.5418 6.31544 19.8942 5.1964 21.424 4.93932L23.8163 4.53858C24.2137 4.47053 24.6937 4.11515 24.8737 3.74466L26.1935 1.08313C26.9134 -0.361045 28.0833 -0.361045 28.7957 1.08313Z" fill="#FFA30F"/>
<path d="M48.7957 1.08313L50.1156 3.74466C50.2956 4.11515 50.7755 4.47053 51.1805 4.53858L53.5727 4.93932C55.1025 5.1964 55.4625 6.31544 54.3601 7.41937L52.5003 9.29453C52.1854 9.6121 52.0129 10.2246 52.1104 10.6631L52.6428 12.9844C53.0628 14.8217 52.0954 15.5325 50.483 14.5722L48.2408 13.2339C47.8358 12.9919 47.1684 12.9919 46.756 13.2339L44.5137 14.5722C42.9089 15.5325 41.934 14.8142 42.3539 12.9844L42.8864 10.6631C42.9839 10.2246 42.8114 9.6121 42.4964 9.29453L40.6366 7.41937C39.5417 6.31544 39.8942 5.1964 41.424 4.93932L43.8163 4.53858C44.2137 4.47053 44.6937 4.11515 44.8737 3.74466L46.1935 1.08313C46.9134 -0.361045 48.0833 -0.361045 48.7957 1.08313Z" fill="#FFA30F"/>
<path d="M68.7957 1.08313L70.1156 3.74466C70.2956 4.11515 70.7755 4.47053 71.1805 4.53858L73.5727 4.93932C75.1025 5.1964 75.4625 6.31544 74.3601 7.41937L72.5003 9.29453C72.1854 9.6121 72.0129 10.2246 72.1104 10.6631L72.6428 12.9844C73.0628 14.8217 72.0954 15.5325 70.483 14.5722L68.2408 13.2339C67.8358 12.9919 67.1684 12.9919 66.756 13.2339L64.5137 14.5722C62.9089 15.5325 61.934 14.8142 62.3539 12.9844L62.8864 10.6631C62.9839 10.2246 62.8114 9.6121 62.4964 9.29453L60.6366 7.41937C59.5417 6.31544 59.8942 5.1964 61.424 4.93932L63.8163 4.53858C64.2137 4.47053 64.6937 4.11515 64.8737 3.74466L66.1935 1.08313C66.9134 -0.361045 68.0833 -0.361045 68.7957 1.08313Z" fill="#FFA30F"/>
<path d="M88.7957 1.08313L90.1156 3.74466C90.2956 4.11515 90.7755 4.47053 91.1805 4.53858L93.5727 4.93932C95.1025 5.1964 95.4625 6.31544 94.3601 7.41937L92.5003 9.29453C92.1854 9.6121 92.0129 10.2246 92.1104 10.6631L92.6428 12.9844C93.0628 14.8217 92.0954 15.5325 90.483 14.5722L88.2408 13.2339C87.8358 12.9919 87.1684 12.9919 86.756 13.2339L84.5137 14.5722C82.9089 15.5325 81.934 14.8142 82.3539 12.9844L82.8864 10.6631C82.9839 10.2246 82.8114 9.6121 82.4964 9.29453L80.6366 7.41937C79.5417 6.31544 79.8942 5.1964 81.424 4.93932L83.8163 4.53858C84.2137 4.47053 84.6937 4.11515 84.8737 3.74466L86.1935 1.08313C86.9134 -0.361045 88.0833 -0.361045 88.7957 1.08313Z" fill="url(#paint0_linear_642_38)"/>
<path d="M8.79573 1.08313L10.1156 3.74466C10.2956 4.11515 10.7755 4.47053 11.1805 4.53858L13.5727 4.93932C15.1025 5.1964 15.4625 6.31544 14.3601 7.41937L12.5003 9.29453C12.1854 9.6121 12.0129 10.2246 12.1104 10.6631L12.6428 12.9844C13.0628 14.8217 12.0954 15.5325 10.483 14.5722L8.24079 13.2339C7.83583 12.9919 7.16841 12.9919 6.75595 13.2339L4.5137 14.5722C2.90888 15.5325 1.93399 14.8142 2.35394 12.9844L2.88638 10.6631C2.98387 10.2246 2.81139 9.6121 2.49642 9.29453L0.636629 7.41937C-0.45825 6.31544 -0.105789 5.1964 1.42404 4.93932L3.81628 4.53858C4.21373 4.47053 4.69368 4.11515 4.87366 3.74466L6.19351 1.08313C6.91344 -0.361045 8.08331 -0.361045 8.79573 1.08313Z" stroke="#FFA310" stroke-width="2" stroke-linecap="round" stroke-linejoin="round" mask="url(#path-1-inside-1_642_38)"/>
<path d="M28.7957 1.08313L30.1156 3.74466C30.2956 4.11515 30.7755 4.47053 31.1805 4.53858L33.5727 4.93932C35.1025 5.1964 35.4625 6.31544 34.3601 7.41937L32.5003 9.29453C32.1854 9.6121 32.0129 10.2246 32.1104 10.6631L32.6428 12.9844C33.0628 14.8217 32.0954 15.5325 30.483 14.5722L28.2408 13.2339C27.8358 12.9919 27.1684 12.9919 26.756 13.2339L24.5137 14.5722C22.9089 15.5325 21.934 14.8142 22.3539 12.9844L22.8864 10.6631C22.9839 10.2246 22.8114 9.6121 22.4964 9.29453L20.6366 7.41937C19.5418 6.31544 19.8942 5.1964 21.424 4.93932L23.8163 4.53858C24.2137 4.47053 24.6937 4.11515 24.8737 3.74466L26.1935 1.08313C26.9134 -0.361045 28.0833 -0.361045 28.7957 1.08313Z" stroke="#FFA310" stroke-width="2" stroke-linecap="round" stroke-linejoin="round" mask="url(#path-1-inside-1_642_38)"/>
<path d="M48.7957 1.08313L50.1156 3.74466C50.2956 4.11515 50.7755 4.47053 51.1805 4.53858L53.5727 4.93932C55.1025 5.1964 55.4625 6.31544 54.3601 7.41937L52.5003 9.29453C52.1854 9.6121 52.0129 10.2246 52.1104 10.6631L52.6428 12.9844C53.0628 14.8217 52.0954 15.5325 50.483 14.5722L48.2408 13.2339C47.8358 12.9919 47.1684 12.9919 46.756 13.2339L44.5137 14.5722C42.9089 15.5325 41.934 14.8142 42.3539 12.9844L42.8864 10.6631C42.9839 10.2246 42.8114 9.6121 42.4964 9.29453L40.6366 7.41937C39.5417 6.31544 39.8942 5.1964 41.424 4.93932L43.8163 4.53858C44.2137 4.47053 44.6937 4.11515 44.8737 3.74466L46.1935 1.08313C46.9134 -0.361045 48.0833 -0.361045 48.7957 1.08313Z" stroke="#FFA310" stroke-width="2" stroke-linecap="round" stroke-linejoin="round" mask="url(#path-1-inside-1_642_38)"/>
<path d="M68.7957 1.08313L70.1156 3.74466C70.2956 4.11515 70.7755 4.47053 71.1805 4.53858L73.5727 4.93932C75.1025 5.1964 75.4625 6.31544 74.3601 7.41937L72.5003 9.29453C72.1854 9.6121 72.0129 10.2246 72.1104 10.6631L72.6428 12.9844C73.0628 14.8217 72.0954 15.5325 70.483 14.5722L68.2408 13.2339C67.8358 12.9919 67.1684 12.9919 66.756 13.2339L64.5137 14.5722C62.9089 15.5325 61.934 14.8142 62.3539 12.9844L62.8864 10.6631C62.9839 10.2246 62.8114 9.6121 62.4964 9.29453L60.6366 7.41937C59.5417 6.31544 59.8942 5.1964 61.424 4.93932L63.8163 4.53858C64.2137 4.47053 64.6937 4.11515 64.8737 3.74466L66.1935 1.08313C66.9134 -0.361045 68.0833 -0.361045 68.7957 1.08313Z" stroke="#FFA310" stroke-width="2" stroke-linecap="round" stroke-linejoin="round" mask="url(#path-1-inside-1_642_38)"/>
<path d="M88.7957 1.08313L90.1156 3.74466C90.2956 4.11515 90.7755 4.47053 91.1805 4.53858L93.5727 4.93932C95.1025 5.1964 95.4625 6.31544 94.3601 7.41937L92.5003 9.29453C92.1854 9.6121 92.0129 10.2246 92.1104 10.6631L92.6428 12.9844C93.0628 14.8217 92.0954 15.5325 90.483 14.5722L88.2408 13.2339C87.8358 12.9919 87.1684 12.9919 86.756 13.2339L84.5137 14.5722C82.9089 15.5325 81.934 14.8142 82.3539 12.9844L82.8864 10.6631C82.9839 10.2246 82.8114 9.6121 82.4964 9.29453L80.6366 7.41937C79.5417 6.31544 79.8942 5.1964 81.424 4.93932L83.8163 4.53858C84.2137 4.47053 84.6937 4.11515 84.8737 3.74466L86.1935 1.08313C86.9134 -0.361045 88.0833 -0.361045 88.7957 1.08313Z" stroke="#FFA310" stroke-width="2" stroke-linecap="round" stroke-linejoin="round" mask="url(#path-1-inside-1_642_38)"/>
<defs>
<linearGradient id="paint0_linear_642_38" x1="87.5" y1="7.5" x2="88" y2="7.5" gradientUnits="userSpaceOnUse">
<stop stop-color="#FFA30F"/>
<stop offset="1" stop-color="white" stop-opacity="0"/>
</linearGradient>
</defs>
</svg>
