<svg width="381" height="72" viewBox="0 0 381 72" fill="none" xmlns="http://www.w3.org/2000/svg">
<path d="M51.7798 20.7119C51.7798 9.27305 61.0528 0 72.4917 0H374.294C377.562 0 380.212 2.64944 380.212 5.9177V32.5473C380.212 43.9862 370.939 53.2593 359.5 53.2593H57.6975C54.4292 53.2593 51.7798 50.6098 51.7798 47.3416V20.7119Z" fill="#1441B1"/>
<path d="M340.833 42.8796C341.744 42.8796 342.628 42.4516 343.484 41.5955C344.368 40.7118 345.113 39.5381 345.721 38.0745C345.61 37.4117 345.555 36.7351 345.555 36.0447C345.555 34.0564 345.983 32.2889 346.839 30.7424C347.695 29.1959 348.855 27.9808 350.319 27.0971C351.81 26.1858 353.481 25.7302 355.331 25.7302C357.181 25.7302 358.838 26.1858 360.302 27.0971C361.766 27.9808 362.912 29.1959 363.74 30.7424C364.596 32.2889 365.024 34.0564 365.024 36.0447C365.024 38.033 364.596 39.8143 363.74 41.3884C362.912 42.9625 361.766 44.2052 360.302 45.1165C358.866 46.0002 357.209 46.4421 355.331 46.4421C353.647 46.4421 352.114 46.0831 350.733 45.3651C349.38 44.6194 348.261 43.6115 347.378 42.3411C345.666 45.0751 343.387 46.4421 340.543 46.4421C340.184 46.4421 339.894 46.2764 339.673 45.945C339.452 45.6136 339.342 45.1856 339.342 44.6609C339.342 43.4734 339.839 42.8796 340.833 42.8796ZM355.29 42.8796C357.057 42.8796 358.466 42.2583 359.515 41.0156C360.592 39.7728 361.131 38.1159 361.131 36.0447C361.131 34.0287 360.592 32.3994 359.515 31.1567C358.466 29.914 357.071 29.2926 355.331 29.2926C353.591 29.2926 352.169 29.9278 351.065 31.1981C349.987 32.4408 349.449 34.084 349.449 36.1275C349.449 38.1435 349.974 39.7728 351.023 41.0156C352.1 42.2583 353.522 42.8796 355.29 42.8796Z" fill="white"/>
<path d="M324.207 42.8796C324.897 42.8796 325.684 42.6725 326.568 42.2583C327.479 41.844 328.363 41.1398 329.219 40.1457C330.075 39.1515 330.779 37.8121 331.331 36.1275C331.884 34.4154 332.16 32.2751 332.16 29.7068V25.7302H329.095C328.901 25.2883 328.805 24.736 328.805 24.0732C328.805 23.4104 328.901 22.8581 329.095 22.4162H332.16V15.0842C332.685 14.8909 333.32 14.7943 334.065 14.7943C334.728 14.7943 335.363 14.8909 335.971 15.0842V22.4162H342.143C342.364 22.8581 342.475 23.4104 342.475 24.0732C342.475 24.736 342.364 25.2883 342.143 25.7302H335.971V34.3049C335.971 37.0665 336.385 39.1929 337.214 40.6842C338.07 42.1478 339.271 42.8796 340.818 42.8796C341.618 42.8796 342.019 43.4872 342.019 44.7023C342.019 45.227 341.881 45.6412 341.605 45.945C341.356 46.2764 340.997 46.4421 340.528 46.4421C338.733 46.4421 337.214 45.9312 335.971 44.9094C334.756 43.8876 333.858 42.4654 333.278 40.6427C332.119 42.6311 330.696 44.0947 329.012 45.0337C327.327 45.9726 325.629 46.4421 323.917 46.4421C323.558 46.4421 323.268 46.2626 323.047 45.9036C322.826 45.5722 322.715 45.158 322.715 44.6609C322.715 44.1362 322.84 43.7081 323.088 43.3767C323.337 43.0453 323.709 42.8796 324.207 42.8796Z" fill="white"/>
<path d="M297.063 42.8796C297.643 42.8796 298.264 42.7001 298.927 42.3411C299.59 41.9821 300.211 41.4298 300.791 40.6841C301.592 39.5795 302.144 38.2816 302.448 36.7903C302.779 35.299 302.945 33.8492 302.945 32.4408V26.3101C303.193 26.2272 303.483 26.1582 303.815 26.1029C304.146 26.0477 304.491 26.0201 304.85 26.0201C305.486 26.0201 306.107 26.1168 306.714 26.3101V35.879C306.714 38.2816 307.101 40.0352 307.874 41.1398C308.648 42.2168 309.863 42.7553 311.52 42.7553C315.469 42.7553 317.443 39.8695 317.443 34.0978V26.3101C317.664 26.2272 317.94 26.1582 318.272 26.1029C318.603 26.0477 318.948 26.0201 319.307 26.0201C319.97 26.0201 320.605 26.1168 321.213 26.3101V38.2401C321.213 39.7038 321.434 40.8498 321.876 41.6783C322.345 42.4792 323.118 42.8796 324.195 42.8796C324.665 42.8796 324.982 43.0729 325.148 43.4595C325.314 43.8462 325.397 44.2604 325.397 44.7023C325.397 45.1441 325.272 45.5445 325.024 45.9036C324.803 46.2626 324.43 46.4421 323.905 46.4421C321.254 46.4421 319.459 45.2822 318.52 42.9625C317.747 44.0947 316.753 44.9646 315.538 45.5722C314.323 46.1521 312.887 46.4421 311.23 46.4421C307.722 46.4421 305.32 44.9508 304.022 41.9683C303.58 42.7691 303.083 43.4457 302.531 43.9981C301.785 44.7437 300.915 45.3374 299.921 45.7793C298.954 46.2211 297.905 46.4421 296.773 46.4421C296.386 46.4421 296.096 46.2488 295.903 45.8621C295.682 45.5031 295.571 45.1027 295.571 44.6608C295.571 44.1914 295.696 43.7771 295.944 43.4181C296.165 43.0591 296.538 42.8796 297.063 42.8796Z" fill="white"/>
<path d="M284.802 46.4421C283.063 46.4421 281.53 46.0279 280.204 45.1994C278.906 44.3709 277.885 43.211 277.139 41.7198C276.421 40.2285 276.062 38.5163 276.062 36.5832C276.062 34.4844 276.476 32.6203 277.305 30.991C278.133 29.3616 279.252 28.0775 280.66 27.1386C282.096 26.1996 283.725 25.7302 285.548 25.7302C286.515 25.7302 287.467 25.9235 288.406 26.3101C289.345 26.6691 290.132 27.1662 290.767 27.8013V26.103C291.016 26.0201 291.306 25.9511 291.637 25.8958C291.969 25.8406 292.314 25.813 292.673 25.813C293.336 25.813 293.957 25.9097 294.537 26.103V38.613C294.537 40.1319 294.73 41.2227 295.117 41.8855C295.531 42.5482 296.18 42.8796 297.064 42.8796C297.451 42.8796 297.741 43.0453 297.934 43.3767C298.155 43.7081 298.265 44.15 298.265 44.7023C298.265 45.1441 298.141 45.5446 297.892 45.9036C297.671 46.2626 297.299 46.4421 296.774 46.4421C294.15 46.4421 292.383 45.3651 291.472 43.211C290.671 44.2328 289.704 45.0337 288.572 45.6136C287.44 46.1659 286.183 46.4421 284.802 46.4421ZM279.914 36.5832C279.914 38.5439 280.356 40.0904 281.24 41.2227C282.151 42.3273 283.394 42.8796 284.968 42.8796C286.708 42.8796 288.103 42.2859 289.152 41.0984C290.229 39.9109 290.767 38.3506 290.767 36.4175V31.778C290.215 31.0324 289.511 30.4387 288.655 29.9968C287.799 29.5273 286.915 29.2926 286.004 29.2926C284.816 29.2926 283.767 29.6102 282.856 30.2454C281.944 30.8805 281.226 31.7504 280.701 32.8551C280.177 33.9321 279.914 35.1748 279.914 36.5832Z" fill="white"/>
<path d="M269.611 46.4421C268.837 46.4421 268.175 46.1659 267.622 45.6136C267.07 45.0337 266.794 44.3571 266.794 43.5838C266.794 42.8106 267.07 42.1478 267.622 41.5955C268.175 41.0432 268.837 40.767 269.611 40.767C270.384 40.767 271.047 41.0432 271.599 41.5955C272.179 42.1478 272.469 42.8106 272.469 43.5838C272.469 44.3571 272.179 45.0337 271.599 45.6136C271.047 46.1659 270.384 46.4421 269.611 46.4421Z" fill="white"/>
<path d="M242.97 46.4421C242.611 46.4421 242.321 46.2764 242.1 45.945C241.879 45.6136 241.769 45.1856 241.769 44.6609C241.769 43.4734 242.266 42.8796 243.26 42.8796C244.061 42.8796 244.876 42.7554 245.704 42.5068C246.533 42.2307 247.499 41.775 248.604 41.1398C247.527 39.262 246.988 37.0527 246.988 34.512C246.988 32.7998 247.306 31.2948 247.941 29.9968C248.576 28.6712 249.46 27.6356 250.592 26.89C251.724 26.1168 253.009 25.7302 254.445 25.7302C255.66 25.7302 256.737 26.0201 257.676 26.6001C258.615 27.1524 259.346 27.9256 259.871 28.9198C260.396 29.914 260.658 31.06 260.658 32.358C260.658 34.1254 260.134 35.7409 259.084 37.2046C258.062 38.6682 256.323 40.2561 253.865 41.9683C254.748 42.6035 255.936 42.9211 257.427 42.9211C258.228 42.9211 259.029 42.8106 259.83 42.5897C260.631 42.3687 261.404 42.065 262.149 41.6783C262.564 41.9821 262.867 42.4378 263.061 43.0453C263.282 43.6253 263.392 44.1914 263.392 44.7437C262.481 45.2684 261.514 45.6827 260.493 45.9864C259.471 46.2902 258.394 46.4421 257.261 46.4421H257.22C255.894 46.4421 254.652 46.2212 253.492 45.7793C252.332 45.3375 251.365 44.7299 250.592 43.9567C247.941 45.6136 245.4 46.4421 242.97 46.4421ZM250.592 34.1806C250.592 36.3623 250.979 38.1021 251.752 39.4C253.547 38.1573 254.873 36.9422 255.729 35.7547C256.612 34.5672 257.054 33.435 257.054 32.358C257.054 31.3638 256.806 30.5906 256.309 30.0382C255.839 29.4583 255.176 29.1683 254.32 29.1683C253.243 29.1683 252.346 29.6516 251.628 30.6182C250.937 31.5847 250.592 32.7722 250.592 34.1806Z" fill="white"/>
<path d="M209.637 46.4421C209.278 46.4421 208.988 46.2764 208.767 45.945C208.546 45.6136 208.436 45.1856 208.436 44.6609C208.436 43.4734 208.933 42.8796 209.927 42.8796C210.811 42.8796 211.598 42.4378 212.288 41.5541C213.006 40.6427 213.627 39.1377 214.152 37.0389L215.395 32.1923C216.555 27.8842 218.764 25.7302 222.023 25.7302C223.265 25.7302 224.315 26.103 225.171 26.8486C226.027 27.5666 226.621 28.547 226.952 29.7897C227.725 28.4917 228.72 27.4976 229.935 26.8072C231.15 26.0892 232.503 25.7302 233.994 25.7302C236.148 25.7302 237.805 26.4344 238.965 27.8428C240.153 29.2512 240.746 31.2257 240.746 33.7664V38.613C240.746 40.1319 240.94 41.2227 241.326 41.8855C241.74 42.5482 242.389 42.8796 243.273 42.8796C243.66 42.8796 243.95 43.0453 244.143 43.3767C244.364 43.7081 244.474 44.15 244.474 44.7023C244.474 45.1441 244.35 45.5446 244.102 45.9036C243.881 46.2626 243.508 46.4421 242.983 46.4421C238.979 46.4421 236.977 43.9843 236.977 39.0686V33.7664C236.977 30.7839 235.803 29.2926 233.456 29.2926C232.241 29.2926 231.164 29.7759 230.225 30.7424C229.313 31.709 228.595 33.0484 228.071 34.7606C227.574 36.4727 227.325 38.4611 227.325 40.7256V45.8622C227.049 45.945 226.745 46.014 226.414 46.0693C226.082 46.1245 225.765 46.1521 225.461 46.1521C224.798 46.1521 224.177 46.0555 223.597 45.8622V32.6479C223.597 31.5709 223.459 30.7424 223.183 30.1625C222.906 29.5826 222.409 29.2926 221.691 29.2926C221.111 29.2926 220.614 29.555 220.2 30.0797C219.786 30.6044 219.427 31.4466 219.123 32.6065L217.59 38.5716C216.872 41.3055 215.878 43.3077 214.608 44.578C213.338 45.8207 211.681 46.4421 209.637 46.4421Z" fill="white"/>
<path d="M197.346 42.8796C197.926 42.8796 198.547 42.7001 199.21 42.3411C199.873 41.9821 200.494 41.4298 201.074 40.6842C201.765 39.7452 202.262 38.6682 202.565 37.4531C202.897 36.238 203.104 35.0091 203.187 33.7664V26.3101C203.435 26.2272 203.725 26.1582 204.057 26.103C204.388 26.0477 204.733 26.0201 205.092 26.0201C205.727 26.0201 206.349 26.1168 206.956 26.3101V38.2402C206.956 39.7038 207.177 40.8499 207.619 41.6783C208.089 42.4792 208.862 42.8796 209.939 42.8796C210.408 42.8796 210.726 43.0729 210.892 43.4596C211.057 43.8462 211.14 44.2604 211.14 44.7023C211.14 45.1441 211.016 45.5446 210.767 45.9036C210.546 46.2626 210.174 46.4421 209.649 46.4421C206.777 46.4421 204.913 45.0889 204.057 42.3826C203.67 43.0177 203.256 43.5562 202.814 43.9981C202.068 44.7437 201.198 45.3375 200.204 45.7793C199.238 46.2212 198.188 46.4421 197.056 46.4421C196.669 46.4421 196.379 46.2488 196.186 45.8622C195.965 45.5031 195.855 45.1027 195.855 44.6609C195.855 44.1914 195.979 43.7772 196.228 43.4181C196.448 43.0591 196.821 42.8796 197.346 42.8796ZM205.134 20.345C204.36 20.345 203.698 20.0689 203.145 19.5166C202.593 18.9643 202.317 18.3015 202.317 17.5282C202.317 16.6997 202.579 16.0232 203.104 15.4985C203.656 14.9738 204.333 14.7114 205.134 14.7114C205.962 14.7114 206.639 14.9738 207.163 15.4985C207.688 16.0232 207.951 16.6997 207.951 17.5282C207.951 18.3291 207.674 19.0057 207.122 19.558C206.597 20.0827 205.935 20.345 205.134 20.345Z" fill="white"/>
<path d="M167.39 46.4421C167.031 46.4421 166.741 46.2764 166.52 45.945C166.271 45.6136 166.147 45.1856 166.147 44.6608C166.147 43.501 166.658 42.921 167.68 42.921C169.668 42.921 171.491 42.2306 173.148 40.8499C174.805 39.4414 176.282 37.4393 177.58 34.8434V13.5929C177.58 10.8314 178.16 8.70493 179.32 7.21367C180.507 5.72241 182.22 4.99059 184.456 5.0182C186.5 5.04582 188.088 5.81906 189.22 7.33794C190.38 8.85681 190.96 10.8314 190.96 13.2616C190.96 17.2935 189.745 21.7811 187.315 26.7243C187.508 26.6967 187.701 26.6829 187.895 26.6829C189.966 26.6829 191.609 27.4147 192.824 28.8784C194.067 30.342 194.688 32.3027 194.688 34.7605V38.323C194.688 39.9247 194.881 41.0846 195.268 41.8026C195.682 42.5206 196.359 42.8796 197.298 42.8796C197.74 42.8796 198.057 43.0591 198.251 43.4181C198.444 43.7495 198.541 44.1776 198.541 44.7023C198.541 45.227 198.402 45.6412 198.126 45.945C197.878 46.2764 197.519 46.4421 197.049 46.4421C195.061 46.4421 193.528 45.8069 192.451 44.5366C191.402 43.2386 190.877 41.416 190.877 39.0686V34.6777C190.877 33.2693 190.56 32.1785 189.924 31.4052C189.317 30.6043 188.447 30.2039 187.315 30.2039C186.21 30.2039 185.216 30.5767 184.332 31.3224C183.448 32.0404 182.744 33.0345 182.22 34.3049C181.695 35.5752 181.419 37.0389 181.391 38.6958V45.8621C181.115 45.945 180.811 46.014 180.48 46.0693C180.148 46.1245 179.831 46.1521 179.527 46.1521C178.892 46.1521 178.243 46.0555 177.58 45.8621V41.2227C176.227 42.9901 174.667 44.3018 172.899 45.1579C171.132 46.014 169.295 46.4421 167.39 46.4421ZM181.267 13.5515V29.8725C183.2 26.9452 184.677 24.0456 185.699 21.1735C186.749 18.3015 187.273 15.6503 187.273 13.2201C187.273 11.6736 187.011 10.5 186.486 9.6991C185.989 8.87062 185.257 8.45638 184.291 8.45638C182.275 8.45638 181.267 10.1548 181.267 13.5515Z" fill="white"/>
<path d="M146.288 46.4421C145.929 46.4421 145.639 46.2764 145.418 45.945C145.197 45.6136 145.086 45.1856 145.086 44.6609C145.086 43.4734 145.583 42.8796 146.578 42.8796C147.461 42.8796 148.442 42.3411 149.519 41.2641C150.596 40.1595 151.852 38.392 153.288 35.9618L157.721 28.4641C157.665 28.0775 157.638 27.6633 157.638 27.2214C157.638 25.8406 157.886 24.8188 158.383 24.156C158.908 23.4933 159.336 23.0928 159.668 22.9547C160.137 22.8443 160.634 22.8581 161.159 22.9962C161.711 23.1066 162.208 23.2999 162.65 23.5761C163.092 23.8523 163.396 24.1837 163.561 24.5703C163.451 25.0674 163.244 25.6611 162.94 26.3515C162.636 27.0419 162.153 27.967 161.49 29.1269C161.683 29.4307 161.932 29.7345 162.236 30.0382C162.54 30.342 162.912 30.6734 163.354 31.0324L166.502 33.6007C167.635 34.512 168.477 35.4648 169.029 36.4589C169.609 37.4255 169.899 38.5163 169.899 39.7314C169.899 41.1951 169.485 42.493 168.656 43.6253C168.795 43.929 168.864 44.288 168.864 44.7023C168.864 45.227 168.726 45.6412 168.449 45.945C168.201 46.2764 167.842 46.4421 167.372 46.4421C166.93 46.4421 166.502 46.4145 166.088 46.3592C165.674 46.304 165.218 46.235 164.721 46.1521C163.976 46.3454 163.189 46.4421 162.36 46.4421C161.393 46.4421 160.427 46.2902 159.46 45.9864C158.494 45.7103 157.486 45.2546 156.436 44.6194C156.381 43.1558 156.934 42.0788 158.093 41.3884C159.612 42.3825 161.048 42.8796 162.401 42.8796C163.561 42.8796 164.486 42.5759 165.177 41.9683C165.867 41.3331 166.212 40.5323 166.212 39.5657C166.212 38.3506 165.55 37.2184 164.224 36.169L161.076 33.6835C160.524 33.2417 160.027 32.786 159.585 32.3165L155.442 39.3172C153.923 41.8855 152.46 43.7219 151.051 44.8266C149.671 45.9036 148.083 46.4421 146.288 46.4421Z" fill="white"/>
<path d="M112.954 46.4421C112.595 46.4421 112.305 46.2764 112.084 45.945C111.863 45.6136 111.753 45.1856 111.753 44.6609C111.753 43.4734 112.25 42.8796 113.244 42.8796C114.128 42.8796 114.915 42.4378 115.605 41.5541C116.323 40.6427 116.945 39.1377 117.469 37.0389L118.712 32.1923C119.872 27.8842 122.081 25.7302 125.34 25.7302C126.583 25.7302 127.632 26.103 128.488 26.8486C129.344 27.5666 129.938 28.547 130.269 29.7897C131.043 28.4917 132.037 27.4976 133.252 26.8072C134.467 26.0892 135.82 25.7302 137.311 25.7302C139.466 25.7302 141.122 26.4344 142.282 27.8428C143.47 29.2512 144.064 31.2257 144.064 33.7664V38.613C144.064 40.1319 144.257 41.2227 144.643 41.8855C145.058 42.5482 145.707 42.8796 146.59 42.8796C146.977 42.8796 147.267 43.0453 147.46 43.3767C147.681 43.7081 147.792 44.15 147.792 44.7023C147.792 45.1441 147.667 45.5446 147.419 45.9036C147.198 46.2626 146.825 46.4421 146.3 46.4421C142.296 46.4421 140.294 43.9843 140.294 39.0686V33.7664C140.294 30.7839 139.12 29.2926 136.773 29.2926C135.558 29.2926 134.481 29.7759 133.542 30.7424C132.631 31.709 131.913 33.0484 131.388 34.7606C130.891 36.4727 130.642 38.4611 130.642 40.7256V45.8622C130.366 45.945 130.062 46.014 129.731 46.0693C129.4 46.1245 129.082 46.1521 128.778 46.1521C128.115 46.1521 127.494 46.0555 126.914 45.8622V32.6479C126.914 31.5709 126.776 30.7424 126.5 30.1625C126.224 29.5826 125.727 29.2926 125.009 29.2926C124.429 29.2926 123.932 29.555 123.517 30.0797C123.103 30.6044 122.744 31.4466 122.44 32.6065L120.908 38.5716C120.19 41.3055 119.195 43.3077 117.925 44.578C116.655 45.8207 114.998 46.4421 112.954 46.4421Z" fill="white"/>
<path d="M81.6314 46.4421C81.2171 46.4421 80.8995 46.2764 80.6786 45.945C80.4301 45.6136 80.3058 45.1855 80.3058 44.6608C80.3058 44.1085 80.4439 43.6805 80.72 43.3767C80.9962 43.0729 81.3552 42.921 81.797 42.921C83.7578 42.921 85.4976 42.3687 87.0165 41.2641C88.5629 40.1318 89.778 38.5853 90.6618 36.6246C91.5455 34.6639 91.9873 32.427 91.9873 29.9139V26.3101C92.2359 26.2272 92.5258 26.1582 92.8572 26.1029C93.1886 26.0477 93.5338 26.0201 93.8928 26.0201C94.528 26.0201 95.1493 26.1168 95.7569 26.3101V35.879C95.7569 38.2816 96.1435 40.0352 96.9168 41.1398C97.69 42.2168 98.9051 42.7553 100.562 42.7553C104.511 42.7553 106.486 39.8695 106.486 34.0978V26.3101C106.707 26.2272 106.983 26.1582 107.314 26.1029C107.646 26.0477 107.991 26.0201 108.35 26.0201C109.013 26.0201 109.648 26.1168 110.255 26.3101V38.2401C110.255 39.7038 110.476 40.8498 110.918 41.6783C111.388 42.4792 112.161 42.8796 113.238 42.8796C113.707 42.8796 114.025 43.0729 114.191 43.4595C114.356 43.8462 114.439 44.2604 114.439 44.7023C114.439 45.1441 114.315 45.5445 114.066 45.9036C113.845 46.2626 113.473 46.4421 112.948 46.4421C110.297 46.4421 108.502 45.2822 107.563 42.9625C106.789 44.0947 105.795 44.9646 104.58 45.5722C103.365 46.1521 101.929 46.4421 100.272 46.4421C96.2402 46.4421 93.6719 44.4675 92.5673 40.5185C91.3522 42.3687 89.8057 43.8186 87.9278 44.868C86.0499 45.9174 83.9511 46.4421 81.6314 46.4421Z" fill="white"/>
<path d="M61.0706 43.7495C63.197 41.347 65.1301 38.8753 66.8699 36.3347C68.6097 33.7664 70.2805 31.0738 71.8822 28.257C71.827 27.9256 71.7993 27.5804 71.7993 27.2214C71.7993 25.8406 72.0479 24.8188 72.545 24.156C73.0697 23.4933 73.4977 23.0928 73.8291 22.9547C74.2986 22.8443 74.7957 22.8581 75.3204 22.9962C75.8727 23.1066 76.3698 23.2999 76.8116 23.5761C77.2535 23.8523 77.5573 24.1837 77.723 24.5703C77.6401 25.095 77.3916 25.7578 76.9773 26.5586C76.5907 27.3595 76.135 28.2018 75.6103 29.0855C75.8036 29.4169 76.0522 29.7345 76.356 30.0382C76.6874 30.342 77.074 30.6734 77.5158 31.0324L80.664 33.6007C81.7963 34.512 82.6386 35.4648 83.1909 36.4589C83.7708 37.4255 84.0608 38.5163 84.0608 39.7314C84.0608 41.1951 83.6466 42.493 82.8181 43.6253C82.9562 43.929 83.0252 44.288 83.0252 44.7023C83.0252 45.227 82.8871 45.6412 82.611 45.945C82.3624 46.2764 82.0034 46.4421 81.534 46.4421C81.0921 46.4421 80.664 46.4145 80.2498 46.3592C79.8356 46.304 79.3799 46.235 78.8828 46.1521C78.1372 46.3454 77.3501 46.4421 76.5217 46.4421C75.5551 46.4421 74.5885 46.2902 73.622 45.9864C72.6554 45.7103 71.6475 45.2546 70.598 44.6194C70.5428 43.1558 71.0951 42.0788 72.255 41.3884C73.7739 42.3825 75.2099 42.8796 76.5631 42.8796C77.723 42.8796 78.6481 42.5759 79.3385 41.9683C80.0289 41.3331 80.3741 40.5323 80.3741 39.5657C80.3741 38.3506 79.7113 37.2184 78.3857 36.169L75.2375 33.6835C74.6576 33.2417 74.1605 32.7722 73.7463 32.2751C72.7521 33.9321 71.6613 35.6443 70.4738 37.4117C69.3139 39.1515 68.154 40.7946 66.9942 42.3411C65.8343 43.86 64.7849 45.1165 63.846 46.1107C62.2995 45.945 61.3743 45.1579 61.0706 43.7495Z" fill="white"/>
<path d="M378.317 65.354L378.147 58.6655H380.056L379.887 65.354H378.317ZM379.109 68.776C378.92 68.776 378.741 68.7383 378.572 68.6628C378.402 68.578 378.265 68.4554 378.162 68.2952C378.058 68.1255 378.006 67.9228 378.006 67.6871C378.006 67.4515 378.058 67.2535 378.162 67.0932C378.265 66.933 378.402 66.8104 378.572 66.7256C378.741 66.6408 378.92 66.5983 379.109 66.5983C379.401 66.5983 379.656 66.6926 379.873 66.8811C380.099 67.0697 380.212 67.3384 380.212 67.6871C380.212 67.9228 380.155 68.1255 380.042 68.2952C379.939 68.4554 379.802 68.578 379.632 68.6628C379.472 68.7383 379.297 68.776 379.109 68.776Z" fill="#7B7B7B"/>
<path d="M372.835 68.7618C372.072 68.7618 371.412 68.6063 370.856 68.2952C370.309 67.9841 369.885 67.541 369.583 66.966C369.291 66.3909 369.145 65.7169 369.145 64.9439C369.145 64.1614 369.291 63.4874 369.583 62.9218C369.885 62.3467 370.309 61.899 370.856 61.5784C371.412 61.2579 372.072 61.0977 372.835 61.0977C373.589 61.0977 374.24 61.2579 374.787 61.5784C375.333 61.899 375.753 62.3515 376.045 62.9359C376.337 63.511 376.483 64.1897 376.483 64.9722C376.483 65.7357 376.337 66.4051 376.045 66.9801C375.762 67.5457 375.347 67.9841 374.801 68.2952C374.254 68.6063 373.599 68.7618 372.835 68.7618ZM372.821 67.1922C373.292 67.1922 373.669 67.0885 373.952 66.8811C374.245 66.6737 374.457 66.4004 374.589 66.061C374.721 65.7216 374.787 65.354 374.787 64.958C374.787 64.5621 374.721 64.1897 374.589 63.8409C374.457 63.4921 374.245 63.214 373.952 63.0066C373.669 62.7898 373.292 62.6814 372.821 62.6814C372.35 62.6814 371.968 62.7898 371.676 63.0066C371.383 63.214 371.171 63.4921 371.039 63.8409C370.907 64.1897 370.841 64.5621 370.841 64.958C370.841 65.3634 370.907 65.7357 371.039 66.0751C371.171 66.4145 371.383 66.6879 371.676 66.8953C371.968 67.0932 372.35 67.1922 372.821 67.1922Z" fill="#7B7B7B"/>
<path d="M361.75 68.6628V61.2108H363.475V64.1945H364.662L366.6 61.2108H368.551L366.161 64.7318L368.636 68.6628H366.642L364.79 65.7216H363.475V68.6628H361.75Z" fill="#7B7B7B"/>
<path d="M355.384 68.6628V61.2108H360.672V62.738H357.109V68.6628H355.384Z" fill="#7B7B7B"/>
<path d="M350.601 68.7618C349.828 68.7618 349.168 68.6016 348.621 68.281C348.084 67.9605 347.674 67.5174 347.391 66.9518C347.118 66.3768 346.981 65.7122 346.981 64.958C346.981 64.2039 347.122 63.5393 347.405 62.9642C347.698 62.3797 348.112 61.9225 348.65 61.5926C349.196 61.2626 349.852 61.0977 350.615 61.0977C351.162 61.0977 351.647 61.1967 352.072 61.3946C352.496 61.5832 352.854 61.8518 353.146 62.2006C353.439 62.54 353.655 62.9359 353.797 63.3884C353.938 63.8315 354.004 64.3076 353.995 64.8166C353.995 64.9297 353.99 65.0429 353.981 65.156C353.971 65.2597 353.957 65.3728 353.938 65.4954H348.706C348.735 65.8253 348.819 66.127 348.961 66.4004C349.112 66.6737 349.319 66.8906 349.583 67.0508C349.856 67.2111 350.196 67.2912 350.601 67.2912C350.837 67.2912 351.063 67.2629 351.28 67.2064C351.497 67.1404 351.685 67.0461 351.845 66.9235C352.015 66.801 352.128 66.6455 352.185 66.4569H353.91C353.787 66.9943 353.561 67.4326 353.231 67.772C352.901 68.1113 352.505 68.3612 352.043 68.5214C351.591 68.6817 351.11 68.7618 350.601 68.7618ZM348.734 64.2086H352.326C352.326 63.8975 352.255 63.6147 352.114 63.3601C351.973 63.1056 351.77 62.9077 351.506 62.7662C351.252 62.6154 350.94 62.54 350.573 62.54C350.177 62.54 349.847 62.6201 349.583 62.7804C349.319 62.9406 349.116 63.148 348.975 63.4026C348.833 63.6571 348.753 63.9258 348.734 64.2086Z" fill="#7B7B7B"/>
<path d="M338.563 68.677V67.1215C338.77 67.1215 338.949 67.0744 339.1 66.9801C339.251 66.8764 339.378 66.7397 339.482 66.5701C339.605 66.3627 339.694 66.0987 339.751 65.7782C339.807 65.4577 339.845 65.1324 339.864 64.8025C339.892 64.3783 339.911 63.9541 339.92 63.5299C339.939 63.0962 339.953 62.6814 339.963 62.2855C339.982 61.8801 339.991 61.5219 339.991 61.2108H345.591V68.6628H343.866V62.738H341.589C341.58 63.0491 341.565 63.379 341.547 63.7278C341.537 64.0766 341.523 64.4301 341.504 64.7884C341.485 65.1372 341.452 65.4765 341.405 65.8065C341.368 66.1741 341.302 66.5465 341.207 66.9236C341.122 67.3006 340.972 67.64 340.755 67.9417C340.528 68.2245 340.246 68.4177 339.906 68.5214C339.576 68.6251 339.129 68.677 338.563 68.677Z" fill="#7B7B7B"/>
<path d="M328.831 65.3823V63.8268H333.497V65.3823H328.831Z" fill="#7B7B7B"/>
<path d="M317.14 72V70.2749C317.564 70.2749 317.903 70.2277 318.158 70.1335C318.422 70.0486 318.643 69.9072 318.822 69.7092C319.002 69.5207 319.167 69.2709 319.317 68.9598L316.15 61.2108H318.158L320.307 66.9943L322.004 61.2108H323.899L321.891 67.4468C321.778 67.7956 321.651 68.1585 321.509 68.5356C321.377 68.9127 321.222 69.2803 321.043 69.6385C320.873 69.9968 320.68 70.3267 320.463 70.6284C320.246 70.93 320.001 71.1798 319.727 71.3778C319.501 71.5381 319.275 71.6606 319.049 71.7455C318.832 71.8397 318.573 71.9057 318.271 71.9434C317.979 71.9811 317.602 72 317.14 72Z" fill="#7B7B7B"/>
<path d="M308.598 68.6628V61.2108H310.324V64.2086H313.434V61.2108H315.16V68.6628H313.434V65.7499H310.324V68.6628H308.598Z" fill="#7B7B7B"/>
<path d="M300.023 68.6628V61.2108H301.748V66.061C301.805 65.9573 301.875 65.8442 301.96 65.7216C302.055 65.5991 302.135 65.5001 302.201 65.4247L305.396 61.2108H306.924V68.6628H305.213V63.8692C305.137 63.9918 305.057 64.1096 304.972 64.2227C304.897 64.3264 304.821 64.4254 304.746 64.5197L301.593 68.6628H300.023Z" fill="#7B7B7B"/>
<path d="M288.437 68.6628V61.2108H290.162V67.1357H292.51V61.2108H294.235V67.1357H296.61V61.2108H298.336V68.6628H288.437Z" fill="#7B7B7B"/>
<path d="M282.788 68.7618C282.458 68.7618 282.138 68.7147 281.827 68.6204C281.525 68.5261 281.252 68.3894 281.007 68.2103C280.762 68.0218 280.568 67.7908 280.427 67.5174C280.286 67.2346 280.215 66.9047 280.215 66.5276C280.215 66.0468 280.309 65.6556 280.498 65.354C280.686 65.0429 280.941 64.8072 281.261 64.6469C281.591 64.4867 281.964 64.3783 282.378 64.3217C282.793 64.2557 283.227 64.2227 283.679 64.2227H285.136C285.136 63.8928 285.084 63.61 284.98 63.3743C284.876 63.1292 284.712 62.9359 284.485 62.7945C284.268 62.6531 283.986 62.5824 283.637 62.5824C283.411 62.5824 283.198 62.6107 283.001 62.6673C282.812 62.7144 282.647 62.7945 282.506 62.9077C282.374 63.0113 282.279 63.148 282.223 63.3177H280.455C280.521 62.9312 280.653 62.6013 280.851 62.3279C281.059 62.0451 281.308 61.8141 281.601 61.635C281.902 61.4559 282.232 61.3239 282.59 61.2391C282.949 61.1448 283.312 61.0977 283.679 61.0977C284.405 61.0977 284.994 61.2391 285.447 61.5219C285.909 61.8047 286.248 62.2101 286.465 62.738C286.682 63.2659 286.79 63.9022 286.79 64.6469V68.6628H285.263L285.221 67.7578C285.013 68.0218 284.773 68.2292 284.499 68.38C284.235 68.5214 283.957 68.6204 283.665 68.677C283.373 68.7335 283.081 68.7618 282.788 68.7618ZM283.184 67.3619C283.571 67.3619 283.91 67.2912 284.202 67.1498C284.495 67.0084 284.726 66.8104 284.895 66.5559C285.065 66.3014 285.15 66.0044 285.15 65.665V65.4388H283.807C283.561 65.4388 283.326 65.4482 283.099 65.4671C282.873 65.4765 282.671 65.5142 282.491 65.5802C282.322 65.6368 282.185 65.7263 282.081 65.8489C281.978 65.9714 281.926 66.1458 281.926 66.3721C281.926 66.5889 281.982 66.7727 282.096 66.9235C282.209 67.065 282.359 67.1734 282.548 67.2488C282.746 67.3242 282.958 67.3619 283.184 67.3619Z" fill="#7B7B7B"/>
<path d="M270.306 68.6628V61.2108H272.413L274.59 64.6045L276.726 61.2108H278.804V68.6628H277.079V63.4026L274.817 67.0225H274.308L272.017 63.3884V68.6628H270.306Z" fill="#7B7B7B"/>
<path d="M257.795 68.6628V61.2108H259.52V66.061C259.577 65.9573 259.647 65.8442 259.732 65.7216C259.826 65.5991 259.907 65.5001 259.973 65.4247L263.168 61.2108H264.695V68.6628H262.984V63.8692C262.909 63.9918 262.829 64.1096 262.744 64.2227C262.669 64.3264 262.593 64.4254 262.518 64.5197L259.365 68.6628H257.795Z" fill="#7B7B7B"/>
<path d="M252.63 68.6628V62.738H250.17V61.2108H256.83V62.738H254.355V68.6628H252.63Z" fill="#7B7B7B"/>
<path d="M246.389 68.7618C246.002 68.7618 245.616 68.7241 245.229 68.6487C244.852 68.5638 244.499 68.4319 244.169 68.2528C243.848 68.0642 243.584 67.8191 243.377 67.5174C243.17 67.2158 243.047 66.8434 243.009 66.4004H244.692C244.72 66.6077 244.824 66.7774 245.003 66.9094C245.192 67.0414 245.408 67.1404 245.654 67.2064C245.908 67.2629 246.144 67.2912 246.361 67.2912C246.596 67.2912 246.827 67.2676 247.053 67.2205C247.28 67.1639 247.468 67.0697 247.619 66.9377C247.779 66.7963 247.859 66.603 247.859 66.3579C247.859 66.1317 247.803 65.962 247.69 65.8489C247.586 65.7357 247.44 65.6603 247.251 65.6226C247.072 65.5755 246.865 65.5519 246.629 65.5519H245.328V64.2369H246.361C246.54 64.2369 246.705 64.2227 246.855 64.1944C247.006 64.1662 247.138 64.119 247.251 64.053C247.374 63.987 247.468 63.9022 247.534 63.7985C247.6 63.6854 247.633 63.5534 247.633 63.4026C247.633 63.1857 247.572 63.0208 247.449 62.9077C247.327 62.7851 247.167 62.7003 246.969 62.6531C246.771 62.5966 246.568 62.5683 246.361 62.5683C246.134 62.5683 245.908 62.5918 245.682 62.639C245.465 62.6861 245.276 62.771 245.116 62.8935C244.965 63.0161 244.871 63.1857 244.833 63.4026H243.179C243.236 62.8181 243.424 62.3609 243.745 62.0309C244.065 61.6916 244.461 61.4512 244.932 61.3098C245.404 61.1684 245.88 61.0977 246.361 61.0977C246.7 61.0977 247.039 61.1307 247.379 61.1967C247.727 61.2626 248.043 61.3758 248.326 61.536C248.609 61.6963 248.835 61.9084 249.005 62.1723C249.175 62.4363 249.259 62.7662 249.259 63.1622C249.259 63.4733 249.193 63.7608 249.061 64.0248C248.929 64.2793 248.722 64.482 248.439 64.6328C248.835 64.7836 249.118 65.0146 249.288 65.3257C249.457 65.6368 249.542 65.995 249.542 66.4004C249.542 66.8246 249.448 67.1875 249.259 67.4892C249.08 67.7908 248.835 68.0359 248.524 68.2245C248.222 68.413 247.883 68.5497 247.506 68.6345C247.138 68.7194 246.766 68.7618 246.389 68.7618Z" fill="#7B7B7B"/>
<path d="M238.651 68.7618C237.878 68.7618 237.218 68.6016 236.671 68.281C236.134 67.9605 235.724 67.5174 235.441 66.9518C235.168 66.3768 235.031 65.7122 235.031 64.958C235.031 64.2039 235.172 63.5393 235.455 62.9642C235.747 62.3797 236.162 61.9225 236.7 61.5926C237.246 61.2626 237.902 61.0977 238.665 61.0977C239.212 61.0977 239.697 61.1967 240.122 61.3946C240.546 61.5832 240.904 61.8518 241.196 62.2006C241.488 62.54 241.705 62.9359 241.847 63.3884C241.988 63.8315 242.054 64.3076 242.045 64.8166C242.045 64.9297 242.04 65.0429 242.031 65.156C242.021 65.2597 242.007 65.3728 241.988 65.4954H236.756C236.784 65.8253 236.869 66.127 237.011 66.4004C237.162 66.6737 237.369 66.8906 237.633 67.0508C237.906 67.2111 238.246 67.2912 238.651 67.2912C238.887 67.2912 239.113 67.2629 239.33 67.2064C239.547 67.1404 239.735 67.0461 239.895 66.9235C240.065 66.801 240.178 66.6455 240.235 66.4569H241.96C241.837 66.9943 241.611 67.4326 241.281 67.772C240.951 68.1113 240.555 68.3612 240.093 68.5214C239.641 68.6817 239.16 68.7618 238.651 68.7618ZM236.784 64.2086H240.376C240.376 63.8975 240.305 63.6147 240.164 63.3601C240.023 63.1056 239.82 62.9077 239.556 62.7662C239.301 62.6154 238.99 62.54 238.623 62.54C238.227 62.54 237.897 62.6201 237.633 62.7804C237.369 62.9406 237.166 63.148 237.025 63.4026C236.883 63.6571 236.803 63.9258 236.784 64.2086Z" fill="#7B7B7B"/>
<path d="M227.415 68.6628V61.2108H230.795C231.115 61.2108 231.436 61.2344 231.756 61.2815C232.086 61.3192 232.383 61.4088 232.647 61.5502C232.911 61.6822 233.123 61.8754 233.283 62.1299C233.453 62.375 233.538 62.7097 233.538 63.1339C233.538 63.3602 233.5 63.5723 233.425 63.7702C233.359 63.9682 233.26 64.1379 233.128 64.2793C233.005 64.4207 232.85 64.5433 232.661 64.6469C233.095 64.7695 233.406 64.9863 233.594 65.2974C233.792 65.5991 233.891 65.9667 233.891 66.4004C233.891 66.8057 233.811 67.1545 233.651 67.4468C233.491 67.7296 233.274 67.9605 233.001 68.1396C232.737 68.3188 232.44 68.4507 232.11 68.5356C231.789 68.6204 231.464 68.6628 231.134 68.6628H227.415ZM229.154 67.164H230.922C231.158 67.164 231.37 67.1404 231.558 67.0933C231.747 67.0461 231.898 66.9613 232.011 66.8387C232.133 66.7162 232.195 66.5465 232.195 66.3297C232.195 66.1317 232.147 65.9762 232.053 65.863C231.968 65.7405 231.85 65.6556 231.7 65.6085C231.558 65.5519 231.398 65.5189 231.219 65.5095C231.04 65.4907 230.865 65.4812 230.696 65.4812H229.154V67.164ZM229.154 64.2652H230.328C230.488 64.2652 230.658 64.2557 230.837 64.2369C231.016 64.218 231.186 64.1803 231.346 64.1238C231.506 64.0578 231.638 63.9682 231.742 63.8551C231.846 63.742 231.898 63.5958 231.898 63.4167C231.898 63.1716 231.827 62.9972 231.685 62.8935C231.553 62.7898 231.389 62.7238 231.191 62.6956C231.002 62.6673 230.813 62.6531 230.625 62.6531H229.154V64.2652Z" fill="#7B7B7B"/>
<path d="M218.84 68.6628V61.2108H220.565V66.061C220.621 65.9573 220.692 65.8442 220.777 65.7216C220.871 65.5991 220.951 65.5001 221.017 65.4247L224.213 61.2108H225.74V68.6628H224.029V63.8692C223.954 63.9918 223.874 64.1096 223.789 64.2227C223.713 64.3264 223.638 64.4254 223.563 64.5197L220.409 68.6628H218.84Z" fill="#7B7B7B"/>
<path d="M210.167 71.4061V61.2108H211.779L211.864 62.2289C212.157 61.833 212.515 61.5455 212.939 61.3663C213.363 61.1872 213.811 61.0977 214.282 61.0977C214.999 61.0977 215.597 61.2674 216.078 61.6067C216.559 61.9461 216.917 62.408 217.153 62.9925C217.389 63.5675 217.506 64.218 217.506 64.9439C217.506 65.6698 217.384 66.3202 217.139 66.8953C216.903 67.4703 216.535 67.9275 216.036 68.2669C215.546 68.5968 214.914 68.7618 214.141 68.7618C213.783 68.7618 213.462 68.7241 213.179 68.6487C212.897 68.5638 212.647 68.4554 212.43 68.3235C212.223 68.182 212.043 68.0312 211.893 67.871V71.4061H210.167ZM213.901 67.2064C214.381 67.2064 214.758 67.1027 215.032 66.8953C215.305 66.6784 215.503 66.4004 215.626 66.061C215.748 65.7122 215.81 65.3445 215.81 64.958C215.81 64.5527 215.744 64.1756 215.612 63.8268C215.489 63.478 215.286 63.1952 215.004 62.9784C214.721 62.7615 214.344 62.6531 213.872 62.6531C213.439 62.6531 213.071 62.7615 212.769 62.9784C212.477 63.1857 212.256 63.4638 212.105 63.8126C211.954 64.1614 211.878 64.5385 211.878 64.9439C211.878 65.3587 211.949 65.7405 212.091 66.0893C212.232 66.4286 212.454 66.702 212.755 66.9094C213.057 67.1074 213.439 67.2064 213.901 67.2064Z" fill="#7B7B7B"/>
<path d="M200.038 68.6628V58.6655H208.211V68.6628H206.444V60.2634H201.806V68.6628H200.038Z" fill="#7B7B7B"/>
<path d="M193.594 68.8326C193.293 68.8326 193.034 68.7336 192.817 68.5356C192.609 68.3376 192.506 68.069 192.506 67.7296C192.506 67.3902 192.614 67.1216 192.831 66.9236C193.048 66.7162 193.307 66.6125 193.609 66.6125C193.91 66.6125 194.165 66.7162 194.372 66.9236C194.58 67.1216 194.683 67.3902 194.683 67.7296C194.683 68.069 194.58 68.3376 194.372 68.5356C194.165 68.7336 193.906 68.8326 193.594 68.8326Z" fill="#7B7B7B"/>
<path d="M183.93 68.6629V61.2108H185.655V66.061C185.712 65.9573 185.783 65.8442 185.868 65.7216C185.962 65.5991 186.042 65.5001 186.108 65.4247L189.304 61.2108H190.831V68.6629H189.12V63.8692C189.044 63.9918 188.964 64.1096 188.879 64.2227C188.804 64.3264 188.729 64.4254 188.653 64.5197L185.5 68.6629H183.93ZM187.494 60.4472C186.692 60.4472 186.061 60.2634 185.599 59.8958C185.146 59.5187 184.915 58.9625 184.906 58.2272H186.377C186.386 58.576 186.49 58.8258 186.688 58.9766C186.895 59.1275 187.168 59.2029 187.508 59.2029C187.847 59.2029 188.116 59.1275 188.314 58.9766C188.521 58.8258 188.63 58.576 188.639 58.2272H190.11C190.1 58.708 189.987 59.118 189.77 59.4574C189.563 59.7873 189.266 60.0372 188.879 60.2068C188.493 60.3671 188.031 60.4472 187.494 60.4472Z" fill="#7B7B7B"/>
<path d="M175.355 68.6628V61.2108H177.08V66.061C177.137 65.9573 177.207 65.8442 177.292 65.7216C177.386 65.5991 177.467 65.5001 177.532 65.4247L180.728 61.2108H182.255V68.6628H180.544V63.8692C180.469 63.9918 180.389 64.1096 180.304 64.2227C180.229 64.3264 180.153 64.4254 180.078 64.5197L176.924 68.6628H175.355Z" fill="#7B7B7B"/>
<path d="M167.125 68.6628V61.2108H168.85V64.2086H171.961V61.2108H173.686V68.6628H171.961V65.7499H168.85V68.6628H167.125Z" fill="#7B7B7B"/>
<path d="M162.342 68.7618C161.569 68.7618 160.909 68.6016 160.362 68.281C159.825 67.9605 159.415 67.5174 159.132 66.9518C158.859 66.3768 158.722 65.7122 158.722 64.958C158.722 64.2039 158.864 63.5393 159.146 62.9642C159.439 62.3797 159.853 61.9225 160.391 61.5926C160.938 61.2626 161.593 61.0977 162.356 61.0977C162.903 61.0977 163.389 61.1967 163.813 61.3946C164.237 61.5832 164.595 61.8518 164.887 62.2006C165.18 62.54 165.396 62.9359 165.538 63.3884C165.679 63.8315 165.745 64.3076 165.736 64.8166C165.736 64.9297 165.731 65.0429 165.722 65.156C165.712 65.2597 165.698 65.3728 165.679 65.4954H160.447C160.476 65.8253 160.56 66.127 160.702 66.4004C160.853 66.6737 161.06 66.8906 161.324 67.0508C161.597 67.2111 161.937 67.2912 162.342 67.2912C162.578 67.2912 162.804 67.2629 163.021 67.2064C163.238 67.1404 163.426 67.0461 163.586 66.9235C163.756 66.801 163.869 66.6455 163.926 66.4569H165.651C165.528 66.9943 165.302 67.4326 164.972 67.772C164.642 68.1113 164.246 68.3612 163.784 68.5214C163.332 68.6817 162.851 68.7618 162.342 68.7618ZM160.476 64.2086H164.067C164.067 63.8975 163.997 63.6147 163.855 63.3601C163.714 63.1056 163.511 62.9077 163.247 62.7662C162.993 62.6154 162.682 62.54 162.314 62.54C161.918 62.54 161.588 62.6201 161.324 62.7804C161.06 62.9406 160.857 63.148 160.716 63.4026C160.575 63.6571 160.494 63.9258 160.476 64.2086Z" fill="#7B7B7B"/>
<path d="M150.304 68.677V67.1215C150.511 67.1215 150.691 67.0744 150.841 66.9801C150.992 66.8764 151.12 66.7397 151.223 66.5701C151.346 66.3627 151.435 66.0987 151.492 65.7782C151.548 65.4577 151.586 65.1324 151.605 64.8025C151.633 64.3783 151.652 63.9541 151.662 63.5299C151.68 63.0962 151.695 62.6814 151.704 62.2855C151.723 61.8801 151.732 61.5219 151.732 61.2108H157.332V68.6628H155.607V62.738H153.33C153.321 63.0491 153.307 63.379 153.288 63.7278C153.278 64.0766 153.264 64.4301 153.245 64.7884C153.226 65.1372 153.193 65.4765 153.146 65.8065C153.109 66.1741 153.043 66.5465 152.948 66.9236C152.864 67.3006 152.713 67.64 152.496 67.9417C152.27 68.2245 151.987 68.4177 151.647 68.5214C151.317 68.6251 150.87 68.677 150.304 68.677Z" fill="#7B7B7B"/>
<path d="M143.042 68.6628V61.2108H146.421C146.742 61.2108 147.062 61.2344 147.383 61.2815C147.713 61.3192 148.01 61.4088 148.274 61.5502C148.538 61.6822 148.75 61.8754 148.91 62.1299C149.08 62.375 149.164 62.7097 149.164 63.1339C149.164 63.3602 149.127 63.5723 149.051 63.7702C148.985 63.9682 148.886 64.1379 148.754 64.2793C148.632 64.4207 148.476 64.5433 148.288 64.6469C148.721 64.7695 149.032 64.9863 149.221 65.2974C149.419 65.5991 149.518 65.9667 149.518 66.4004C149.518 66.8057 149.438 67.1545 149.278 67.4468C149.117 67.7296 148.9 67.9605 148.627 68.1396C148.363 68.3188 148.066 68.4507 147.736 68.5356C147.416 68.6204 147.091 68.6628 146.761 68.6628H143.042ZM144.781 67.164H146.548C146.784 67.164 146.996 67.1404 147.185 67.0933C147.373 67.0461 147.524 66.9613 147.637 66.8387C147.76 66.7162 147.821 66.5465 147.821 66.3297C147.821 66.1317 147.774 65.9762 147.68 65.863C147.595 65.7405 147.477 65.6556 147.326 65.6085C147.185 65.5519 147.025 65.5189 146.845 65.5095C146.666 65.4907 146.492 65.4812 146.322 65.4812H144.781V67.164ZM144.781 64.2652H145.955C146.115 64.2652 146.285 64.2557 146.464 64.2369C146.643 64.218 146.812 64.1803 146.973 64.1238C147.133 64.0578 147.265 63.9682 147.369 63.8551C147.472 63.742 147.524 63.5958 147.524 63.4167C147.524 63.1716 147.453 62.9972 147.312 62.8935C147.18 62.7898 147.015 62.7238 146.817 62.6956C146.629 62.6673 146.44 62.6531 146.252 62.6531H144.781V64.2652Z" fill="#7B7B7B"/>
<path d="M134.676 68.6628L136.67 65.8206C136.17 65.6792 135.77 65.4247 135.468 65.057C135.166 64.6894 135.016 64.2274 135.016 63.6713C135.016 63.1905 135.091 62.7945 135.242 62.4835C135.393 62.1629 135.605 61.9131 135.878 61.734C136.152 61.5455 136.472 61.4135 136.84 61.3381C137.207 61.2532 137.608 61.2108 138.042 61.2108H141.379V68.6628H139.654V66.1458H138.353L136.698 68.6628H134.676ZM138.65 64.7035H139.654V62.6956H138.169C137.952 62.6956 137.754 62.7097 137.575 62.738C137.396 62.7663 137.245 62.8181 137.123 62.8935C137 62.9689 136.906 63.0679 136.84 63.1905C136.774 63.313 136.741 63.478 136.741 63.6854C136.741 63.9116 136.797 64.0955 136.91 64.2369C137.024 64.3689 137.174 64.4725 137.363 64.548C137.551 64.614 137.759 64.6564 137.985 64.6752C138.211 64.6941 138.433 64.7035 138.65 64.7035Z" fill="#7B7B7B"/>
<path d="M127.694 68.6628V62.738H126.025V61.2108H129.433V63.7561H130.889C131.333 63.7561 131.733 63.7938 132.091 63.8692C132.45 63.9446 132.761 64.0719 133.025 64.251C133.289 64.4207 133.491 64.6611 133.633 64.9722C133.784 65.2738 133.859 65.6556 133.859 66.1176C133.859 66.5795 133.779 66.9754 133.619 67.3054C133.458 67.6259 133.232 67.8898 132.94 68.0972C132.648 68.2952 132.313 68.4413 131.936 68.5356C131.568 68.6204 131.172 68.6628 130.748 68.6628H127.694ZM129.433 67.164H130.211C130.484 67.164 130.734 67.1545 130.96 67.1357C131.196 67.1168 131.403 67.0744 131.582 67.0084C131.761 66.9424 131.898 66.8387 131.992 66.6973C132.096 66.5559 132.148 66.3674 132.148 66.1317C132.148 65.9337 132.106 65.7782 132.021 65.6651C131.945 65.5425 131.842 65.4482 131.71 65.3823C131.578 65.3163 131.422 65.2738 131.243 65.255C131.073 65.2267 130.894 65.2126 130.706 65.2126H129.433V67.164Z" fill="#7B7B7B"/>
<path d="M121.787 68.7618C121.278 68.7618 120.826 68.6864 120.43 68.5356C120.034 68.3847 119.69 68.1774 119.397 67.9134C119.115 67.64 118.879 67.3242 118.69 66.966C118.502 66.5983 118.36 66.1977 118.266 65.764C118.172 65.3304 118.125 64.8732 118.125 64.3924C118.125 63.676 118.153 63.0208 118.21 62.4269C118.276 61.8236 118.398 61.2909 118.577 60.829C118.766 60.3671 119.044 59.9759 119.412 59.6554C119.789 59.3348 120.279 59.0945 120.882 58.9342C121.259 58.8211 121.646 58.7362 122.042 58.6797C122.438 58.6137 122.857 58.5524 123.3 58.4958C123.621 58.4581 123.88 58.4251 124.078 58.3969C124.285 58.3686 124.46 58.3403 124.601 58.312C124.752 58.2837 124.889 58.2602 125.011 58.2413V59.9523C124.917 59.99 124.813 60.0183 124.7 60.0372C124.596 60.056 124.483 60.0749 124.361 60.0937C124.238 60.1031 124.116 60.1126 123.993 60.122C123.871 60.1314 123.748 60.1456 123.625 60.1644C123.512 60.1738 123.399 60.1833 123.286 60.1927C122.9 60.2304 122.508 60.2681 122.112 60.3058C121.716 60.3435 121.349 60.4237 121.009 60.5462C120.67 60.6688 120.392 60.8809 120.175 61.1825C120.081 61.3051 119.996 61.4606 119.921 61.6492C119.855 61.8377 119.803 62.0357 119.765 62.2431C119.727 62.441 119.708 62.6437 119.708 62.8511C119.916 62.5494 120.161 62.3138 120.444 62.1441C120.727 61.9744 121.024 61.8518 121.335 61.7764C121.655 61.701 121.952 61.6633 122.225 61.6633C122.904 61.6633 123.479 61.8141 123.951 62.1158C124.422 62.408 124.78 62.8134 125.025 63.3319C125.27 63.8409 125.393 64.4301 125.393 65.0994C125.393 65.8159 125.247 66.4522 124.955 67.0084C124.662 67.5552 124.248 67.9841 123.71 68.2952C123.173 68.6063 122.532 68.7618 121.787 68.7618ZM121.801 67.2347C122.216 67.2347 122.56 67.1404 122.834 66.9518C123.116 66.7539 123.328 66.4993 123.47 66.1883C123.611 65.8772 123.682 65.5425 123.682 65.1843C123.682 64.8261 123.611 64.5008 123.47 64.2086C123.328 63.9164 123.121 63.6807 122.848 63.5016C122.574 63.3225 122.235 63.2329 121.83 63.2329C121.434 63.2329 121.094 63.3272 120.811 63.5157C120.529 63.6948 120.312 63.9352 120.161 64.2369C120.01 64.5291 119.935 64.8496 119.935 65.1984C119.935 65.5472 120.001 65.8772 120.133 66.1883C120.274 66.4993 120.482 66.7539 120.755 66.9518C121.028 67.1404 121.377 67.2347 121.801 67.2347Z" fill="#7B7B7B"/>
<path d="M113.183 68.7618C112.42 68.7618 111.76 68.6063 111.204 68.2952C110.657 67.9841 110.233 67.541 109.931 66.966C109.639 66.3909 109.493 65.7169 109.493 64.9439C109.493 64.1614 109.639 63.4874 109.931 62.9218C110.233 62.3467 110.657 61.899 111.204 61.5784C111.76 61.2579 112.42 61.0977 113.183 61.0977C113.938 61.0977 114.588 61.2579 115.135 61.5784C115.682 61.899 116.101 62.3515 116.393 62.9359C116.686 63.511 116.832 64.1897 116.832 64.9722C116.832 65.7357 116.686 66.4051 116.393 66.9801C116.111 67.5457 115.696 67.9841 115.149 68.2952C114.602 68.6063 113.947 68.7618 113.183 68.7618ZM113.169 67.1922C113.641 67.1922 114.018 67.0885 114.301 66.8811C114.593 66.6737 114.805 66.4004 114.937 66.061C115.069 65.7216 115.135 65.354 115.135 64.958C115.135 64.5621 115.069 64.1897 114.937 63.8409C114.805 63.4921 114.593 63.214 114.301 63.0066C114.018 62.7898 113.641 62.6814 113.169 62.6814C112.698 62.6814 112.316 62.7898 112.024 63.0066C111.732 63.214 111.52 63.4921 111.388 63.8409C111.256 64.1897 111.19 64.5621 111.19 64.958C111.19 65.3634 111.256 65.7357 111.388 66.0751C111.52 66.4145 111.732 66.6879 112.024 66.8953C112.316 67.0932 112.698 67.1922 113.169 67.1922Z" fill="#7B7B7B"/>
<path d="M100.14 66.669V64.3924H97.9762V62.8511H100.14V60.5886H101.695V62.8511H103.873V64.3924H101.695V66.669H100.14Z" fill="#7B7B7B"/>
<path d="M92.1487 68.776C91.4229 68.776 90.8054 68.6487 90.2963 68.3942C89.7873 68.1302 89.3772 67.7626 89.0661 67.2912C88.755 66.8199 88.5241 66.2778 88.3732 65.6651C88.2318 65.0523 88.1611 64.3924 88.1611 63.6854C88.1611 62.9689 88.2318 62.2996 88.3732 61.6774C88.5241 61.0553 88.755 60.5132 89.0661 60.0513C89.3866 59.5799 89.8014 59.2123 90.3105 58.9483C90.8195 58.6749 91.437 58.5383 92.1629 58.5383C92.9076 58.5383 93.5345 58.6797 94.0436 58.9625C94.5621 59.2453 94.9721 59.6271 95.2738 60.1078C95.5849 60.5886 95.8064 61.1354 95.9384 61.7481C96.0798 62.3609 96.1505 63.0019 96.1505 63.6712C96.1505 64.3311 96.0798 64.9675 95.9384 65.5802C95.8064 66.193 95.5849 66.7397 95.2738 67.2205C94.9627 67.7013 94.5479 68.0831 94.0294 68.3659C93.5204 68.6393 92.8935 68.776 92.1487 68.776ZM92.1487 67.1639C92.6295 67.1639 93.016 67.0508 93.3083 66.8246C93.6099 66.5983 93.8362 66.3108 93.987 65.962C94.1378 65.6038 94.2368 65.222 94.284 64.8166C94.3405 64.4113 94.3688 64.0295 94.3688 63.6712C94.3688 63.313 94.3452 62.9359 94.2981 62.54C94.251 62.1346 94.152 61.7529 94.0012 61.3946C93.8503 61.0364 93.6288 60.7442 93.3365 60.5179C93.0443 60.2917 92.6531 60.1785 92.1629 60.1785C91.6727 60.1785 91.2768 60.2917 90.9751 60.5179C90.6829 60.7442 90.4613 61.0364 90.3105 61.3946C90.1597 61.7434 90.056 62.1205 89.9994 62.5259C89.9523 62.9312 89.9287 63.313 89.9287 63.6712C89.9287 64.0295 89.9523 64.4113 89.9994 64.8166C90.0465 65.2126 90.1408 65.5896 90.2822 65.9479C90.433 66.3061 90.6546 66.5983 90.9468 66.8246C91.2485 67.0508 91.6491 67.1639 92.1487 67.1639Z" fill="#7B7B7B"/>
<path d="M82.7862 68.776C82.0603 68.776 81.4429 68.6487 80.9338 68.3942C80.4247 68.1302 80.0147 67.7626 79.7036 67.2912C79.3925 66.8199 79.1615 66.2778 79.0107 65.6651C78.8693 65.0523 78.7986 64.3924 78.7986 63.6854C78.7986 62.9689 78.8693 62.2996 79.0107 61.6774C79.1615 61.0553 79.3925 60.5132 79.7036 60.0513C80.0241 59.5799 80.4389 59.2123 80.9479 58.9483C81.457 58.6749 82.0745 58.5383 82.8003 58.5383C83.5451 58.5383 84.172 58.6797 84.681 58.9625C85.1995 59.2453 85.6096 59.6271 85.9112 60.1078C86.2223 60.5886 86.4439 61.1354 86.5758 61.7481C86.7173 62.3609 86.788 63.0019 86.788 63.6712C86.788 64.3311 86.7173 64.9675 86.5758 65.5802C86.4439 66.193 86.2223 66.7397 85.9112 67.2205C85.6002 67.7013 85.1854 68.0831 84.6669 68.3659C84.1578 68.6393 83.5309 68.776 82.7862 68.776ZM82.7862 67.1639C83.267 67.1639 83.6535 67.0508 83.9457 66.8246C84.2474 66.5983 84.4736 66.3108 84.6245 65.962C84.7753 65.6038 84.8743 65.222 84.9214 64.8166C84.978 64.4113 85.0063 64.0295 85.0063 63.6712C85.0063 63.313 84.9827 62.9359 84.9356 62.54C84.8884 62.1346 84.7894 61.7529 84.6386 61.3946C84.4878 61.0364 84.2662 60.7442 83.974 60.5179C83.6818 60.2917 83.2905 60.1785 82.8003 60.1785C82.3101 60.1785 81.9142 60.2917 81.6125 60.5179C81.3203 60.7442 81.0988 61.0364 80.9479 61.3946C80.7971 61.7434 80.6934 62.1205 80.6368 62.5259C80.5897 62.9312 80.5661 63.313 80.5661 63.6712C80.5661 64.0295 80.5897 64.4113 80.6368 64.8166C80.684 65.2126 80.7783 65.5896 80.9197 65.9479C81.0705 66.3061 81.292 66.5983 81.5843 66.8246C81.8859 67.0508 82.2866 67.1639 82.7862 67.1639Z" fill="#7B7B7B"/>
<path d="M73.4236 68.776C72.6978 68.776 72.0803 68.6487 71.5712 68.3942C71.0622 68.1302 70.6521 67.7626 70.341 67.2912C70.0299 66.8199 69.799 66.2778 69.6481 65.6651C69.5067 65.0523 69.436 64.3924 69.436 63.6854C69.436 62.9689 69.5067 62.2996 69.6481 61.6774C69.799 61.0553 70.0299 60.5132 70.341 60.0513C70.6615 59.5799 71.0763 59.2123 71.5854 58.9483C72.0944 58.6749 72.7119 58.5383 73.4378 58.5383C74.1825 58.5383 74.8094 58.6797 75.3185 58.9625C75.837 59.2453 76.247 59.6271 76.5487 60.1078C76.8598 60.5886 77.0813 61.1354 77.2133 61.7481C77.3547 62.3609 77.4254 63.0019 77.4254 63.6712C77.4254 64.3311 77.3547 64.9675 77.2133 65.5802C77.0813 66.193 76.8598 66.7397 76.5487 67.2205C76.2376 67.7013 75.8228 68.0831 75.3043 68.3659C74.7953 68.6393 74.1684 68.776 73.4236 68.776ZM73.4236 67.1639C73.9044 67.1639 74.2909 67.0508 74.5832 66.8246C74.8848 66.5983 75.1111 66.3108 75.2619 65.962C75.4127 65.6038 75.5117 65.222 75.5589 64.8166C75.6154 64.4113 75.6437 64.0295 75.6437 63.6712C75.6437 63.313 75.6201 62.9359 75.573 62.54C75.5259 62.1346 75.4269 61.7529 75.2761 61.3946C75.1252 61.0364 74.9037 60.7442 74.6115 60.5179C74.3192 60.2917 73.928 60.1785 73.4378 60.1785C72.9476 60.1785 72.5517 60.2917 72.25 60.5179C71.9578 60.7442 71.7362 61.0364 71.5854 61.3946C71.4346 61.7434 71.3309 62.1205 71.2743 62.5259C71.2272 62.9312 71.2036 63.313 71.2036 63.6712C71.2036 64.0295 71.2272 64.4113 71.2743 64.8166C71.3214 65.2126 71.4157 65.5896 71.5571 65.9479C71.7079 66.3061 71.9295 66.5983 72.2217 66.8246C72.5234 67.0508 72.924 67.1639 73.4236 67.1639Z" fill="#7B7B7B"/>
<path d="M64.0611 68.776C63.3352 68.776 62.7178 68.6487 62.2087 68.3942C61.6996 68.1302 61.2896 67.7626 60.9785 67.2912C60.6674 66.8199 60.4364 66.2778 60.2856 65.6651C60.1442 65.0523 60.0735 64.3924 60.0735 63.6854C60.0735 62.9689 60.1442 62.2996 60.2856 61.6774C60.4364 61.0553 60.6674 60.5132 60.9785 60.0513C61.299 59.5799 61.7138 59.2123 62.2228 58.9483C62.7319 58.6749 63.3494 58.5383 64.0752 58.5383C64.82 58.5383 65.4469 58.6797 65.9559 58.9625C66.4744 59.2453 66.8845 59.6271 67.1861 60.1078C67.4972 60.5886 67.7188 61.1354 67.8507 61.7481C67.9922 62.3609 68.0629 63.0019 68.0629 63.6712C68.0629 64.3311 67.9922 64.9675 67.8507 65.5802C67.7188 66.193 67.4972 66.7397 67.1861 67.2205C66.8751 67.7013 66.4603 68.0831 65.9418 68.3659C65.4327 68.6393 64.8058 68.776 64.0611 68.776ZM64.0611 67.1639C64.5419 67.1639 64.9284 67.0508 65.2206 66.8246C65.5223 66.5983 65.7485 66.3108 65.8994 65.962C66.0502 65.6038 66.1492 65.222 66.1963 64.8166C66.2529 64.4113 66.2812 64.0295 66.2812 63.6712C66.2812 63.313 66.2576 62.9359 66.2105 62.54C66.1633 62.1346 66.0643 61.7529 65.9135 61.3946C65.7627 61.0364 65.5411 60.7442 65.2489 60.5179C64.9567 60.2917 64.5654 60.1785 64.0752 60.1785C63.585 60.1785 63.1891 60.2917 62.8874 60.5179C62.5952 60.7442 62.3737 61.0364 62.2228 61.3946C62.072 61.7434 61.9683 62.1205 61.9117 62.5259C61.8646 62.9312 61.841 63.313 61.841 63.6712C61.841 64.0295 61.8646 64.4113 61.9117 64.8166C61.9589 65.2126 62.0532 65.5896 62.1946 65.9479C62.3454 66.3061 62.5669 66.5983 62.8592 66.8246C63.1608 67.0508 63.5615 67.1639 64.0611 67.1639Z" fill="#7B7B7B"/>
<path d="M51.7798 68.6628V67.2064L54.5655 64.859C54.7917 64.6705 55.0415 64.4631 55.3149 64.2369C55.5883 64.0106 55.8475 63.7655 56.0926 63.5016C56.3472 63.2282 56.5593 62.9454 56.729 62.6531C56.8986 62.3609 56.9835 62.0545 56.9835 61.734C56.9835 61.2532 56.8374 60.8761 56.5451 60.6028C56.2623 60.3294 55.857 60.1927 55.329 60.1927C54.8671 60.1927 54.49 60.2917 54.1978 60.4896C53.9056 60.6876 53.7217 60.9563 53.6463 61.2956H51.907C51.973 60.664 52.1757 60.1503 52.5151 59.7543C52.8639 59.349 53.2928 59.0473 53.8019 58.8493C54.3109 58.6419 54.8436 58.5383 55.3997 58.5383C56.0314 58.5383 56.597 58.6561 57.0966 58.8918C57.5962 59.118 57.9922 59.4574 58.2844 59.9099C58.5861 60.3529 58.7369 60.895 58.7369 61.536C58.7369 62.1111 58.6238 62.6296 58.3975 63.0915C58.1807 63.5534 57.8838 63.9776 57.5067 64.3641C57.139 64.7412 56.7337 65.1136 56.2906 65.4812L54.3816 67.0508H58.7652V68.6628H51.7798Z" fill="#7B7B7B"/>
<path d="M20.7119 14.7942C20.7119 9.89186 24.6861 5.9177 29.5885 5.9177C34.4908 5.9177 38.465 9.89186 38.465 14.7942C38.465 19.6966 34.4908 23.6708 29.5885 23.6708C24.6861 23.6708 20.7119 19.6966 20.7119 14.7942Z" fill="#EFEFEF"/>
<path d="M23.8585 11.2463L26.0414 9.06344L25.4956 8.51772L23.3128 10.7006L23.8585 11.2463Z" fill="black"/>
<path d="M33.1368 9.06513L33.9554 9.8837L34.5011 9.33798L33.6825 8.51941L33.1368 9.06513Z" fill="black"/>
<path d="M34.5017 12.0666L32.3188 9.88379L32.8645 9.33808L35.0474 11.5209L34.5017 12.0666Z" fill="black"/>
<path d="M33.6794 16.7048L32.8608 17.5234L33.4065 18.0691L34.2251 17.2505L33.6794 16.7048Z" fill="black"/>
<path d="M32.3147 18.0691L31.4961 18.8877L32.0418 19.4334L32.8604 18.6148L32.3147 18.0691Z" fill="black"/>
<path d="M34.4981 19.1604L35.3166 18.3418L35.8624 18.8876L35.0438 19.7061L34.4981 19.1604Z" fill="black"/>
<path d="M33.952 19.7064L33.1334 20.525L33.6791 21.0707L34.4977 20.2521L33.952 19.7064Z" fill="black"/>
<path d="M33.6794 18.3419L34.498 17.5234L35.0437 18.0691L34.2251 18.8876L33.6794 18.3419Z" fill="black"/>
<path d="M33.1337 18.8877L32.3151 19.7062L32.8608 20.252L33.6794 19.4334L33.1337 18.8877Z" fill="black"/>
<path d="M31.4999 10.7026L32.3184 11.5211L32.8641 10.9754L32.0455 10.1569L31.4999 10.7026Z" fill="black"/>
<path d="M33.6827 12.8858L32.8641 12.0672L33.4098 11.5215L34.2284 12.3401L33.6827 12.8858Z" fill="black"/>
<path d="M35.3204 11.2485L34.5019 10.4299L35.0476 9.88421L35.8661 10.7028L35.3204 11.2485Z" fill="black"/>
<path d="M26.0416 20.5233L23.8587 18.3404L23.313 18.8861L25.4959 21.069L26.0416 20.5233Z" fill="black"/>
<path d="M26.0415 18.8857L26.86 19.7043L26.3143 20.25L25.4958 19.4314L26.0415 18.8857Z" fill="black"/>
<path d="M25.4956 18.3402L24.6771 17.5217L24.1313 18.0674L24.9499 18.886L25.4956 18.3402Z" fill="black"/>
<path d="M25.4957 16.7029L27.6786 18.8857L27.1329 19.4314L24.95 17.2486L25.4957 16.7029Z" fill="black"/>
<path d="M26.8599 9.88191L24.6771 12.0648L24.1314 11.519L26.3142 9.33619L26.8599 9.88191Z" fill="black"/>
<path d="M25.4964 12.8838L27.6793 10.701L27.1336 10.1553L24.9507 12.3381L25.4964 12.8838Z" fill="black"/>
<path d="M27.2347 12.4405C25.9348 13.7404 25.9348 15.8481 27.2347 17.148C28.5346 18.4479 30.6423 18.4479 31.9422 17.148C33.2421 15.8481 33.2421 13.7404 31.9422 12.4405C30.6423 11.1406 28.5346 11.1406 27.2347 12.4405Z" fill="#FF0F0F"/>
<path d="M27.2347 12.4405C25.9353 13.7399 25.9339 15.8471 27.2328 17.146C28.5317 18.4449 30.6428 18.4474 31.9422 17.148C32.5927 16.4975 32.5941 15.4423 31.9435 14.7917C31.2923 14.1405 30.2383 14.1441 29.5878 14.7946C28.9371 15.4453 27.883 15.4467 27.2316 14.7953C26.5815 14.145 26.5841 13.0911 27.2347 12.4405Z" fill="#1441B1"/>
<mask id="mask0_176_21" style="mask-type:alpha" maskUnits="userSpaceOnUse" x="22" y="28" width="22" height="23">
<path d="M43.9966 39.8277C43.9966 45.8657 39.1154 50.7605 33.094 50.7605C27.0727 50.7605 22.1914 45.8657 22.1914 39.8277C22.1914 33.7897 27.0727 28.8949 33.094 28.8949C39.1154 28.8949 43.9966 33.7897 43.9966 39.8277Z" fill="#4E4E4E"/>
</mask>
<g mask="url(#mask0_176_21)">
<path d="M22.1914 34.6869H43.9966V44.9081H22.1914V34.6869Z" fill="#FF0F0F"/>
<path d="M22.1914 43.5453H43.9966V50.7001H22.1914V43.5453Z" fill="#FFDA44"/>
<path d="M22.1914 28.8949H43.9966V36.0498H22.1914V28.8949Z" fill="#212121"/>
</g>
<mask id="mask1_176_21" style="mask-type:alpha" maskUnits="userSpaceOnUse" x="0" y="22" width="17" height="17">
<path d="M16.2288 30.3282C16.2288 34.822 12.5958 38.465 8.11439 38.465C3.63294 38.465 0 34.822 0 30.3282C0 25.8343 3.63294 22.1914 8.11439 22.1914C12.5958 22.1914 16.2288 25.8343 16.2288 30.3282Z" fill="#D9D9D9"/>
</mask>
<g mask="url(#mask1_176_21)">
<path d="M0 22.1914H16.2288V38.4201H0V22.1914Z" fill="white"/>
<path d="M0 26.0722V23.9554H16.2288V26.0722H0Z" fill="#FF0F0F"/>
<path d="M0 30.3058V28.1889H16.2288V30.3058H0Z" fill="#FF0F0F"/>
<path d="M0 34.5393V32.4225H16.2288V34.5393H0Z" fill="#FF0F0F"/>
<path d="M0 38.4201H16.2288V36.6562H0V38.4201Z" fill="#FF0F0F"/>
<path d="M0 22.1914H8.11439V30.3058L0 30.3058V22.1914Z" fill="#1441B1"/>
<path d="M1.42002 22.3942L1.69329 23.2353H2.57761L1.86218 23.7551L2.13545 24.5961L1.42002 24.0763L0.704592 24.5961L0.977861 23.7551L0.262433 23.2353H1.14675L1.42002 22.3942Z" fill="white"/>
<path d="M4.05719 22.3942L4.33046 23.2353H5.21478L4.49935 23.7551L4.77262 24.5961L4.05719 24.0763L3.34177 24.5961L3.61504 23.7551L2.89961 23.2353H3.78393L4.05719 22.3942Z" fill="white"/>
<path d="M6.96764 23.2353L6.69437 22.3942L6.4211 23.2353H5.53679L6.25221 23.7551L5.97895 24.5961L6.69437 24.0763L7.4098 24.5961L7.13653 23.7551L7.85196 23.2353H6.96764Z" fill="white"/>
<path d="M1.42002 25.0314L1.69329 25.8724H2.57761L1.86218 26.3922L2.13545 27.2332L1.42002 26.7135L0.704592 27.2332L0.977861 26.3922L0.262433 25.8724H1.14675L1.42002 25.0314Z" fill="white"/>
<path d="M4.33046 25.8724L4.05719 25.0314L3.78393 25.8724H2.89961L3.61504 26.3922L3.34177 27.2332L4.05719 26.7135L4.77262 27.2332L4.49935 26.3922L5.21478 25.8724H4.33046Z" fill="white"/>
<path d="M6.69437 25.0314L6.96764 25.8724H7.85196L7.13653 26.3922L7.4098 27.2332L6.69437 26.7135L5.97895 27.2332L6.25221 26.3922L5.53679 25.8724H6.4211L6.69437 25.0314Z" fill="white"/>
<path d="M1.69329 28.5096L1.42002 27.6686L1.14675 28.5096H0.262433L0.977861 29.0294L0.704592 29.8704L1.42002 29.3506L2.13545 29.8704L1.86218 29.0294L2.57761 28.5096H1.69329Z" fill="white"/>
<path d="M4.05719 27.6686L4.33046 28.5096H5.21478L4.49935 29.0294L4.77262 29.8704L4.05719 29.3506L3.34177 29.8704L3.61504 29.0294L2.89961 28.5096H3.78393L4.05719 27.6686Z" fill="white"/>
<path d="M6.96764 28.5096L6.69437 27.6686L6.4211 28.5096H5.53679L6.25221 29.0294L5.97895 29.8704L6.69437 29.3506L7.4098 29.8704L7.13653 29.0294L7.85196 28.5096H6.96764Z" fill="white"/>
</g>
</svg>
