<svg width="24" height="24" viewBox="0 0 24 24" fill="none" xmlns="http://www.w3.org/2000/svg">
<path d="M0 4.3014C0 1.9258 1.9258 0 4.3014 0H18.8268C21.2024 0 23.1282 1.9258 23.1282 4.3014V18.8268C23.1282 21.2024 21.2024 23.1282 18.8268 23.1282H4.3014C1.9258 23.1282 0 21.2024 0 18.8268V4.3014Z" fill="black"/>
<path d="M15.85 12.6828C15.6163 12.3792 15.6832 12.2442 15.85 11.9728C15.853 11.9697 17.7822 9.22779 17.981 8.29791L17.9822 8.29729C18.081 7.95842 17.9822 7.70938 17.5046 7.70938H15.9241C15.5217 7.70938 15.3362 7.92311 15.2368 8.16224C15.2368 8.16224 14.4322 10.1434 13.2938 11.4276C12.9264 11.7987 12.7565 11.9177 12.5559 11.9177C12.4572 11.9177 12.3036 11.7987 12.3036 11.4599V8.29729C12.3036 7.8909 12.1909 7.70938 11.8578 7.70938H9.37269C9.12032 7.70938 8.97034 7.89895 8.97034 8.07551C8.97034 8.46084 9.53953 8.54943 9.59855 9.63356V11.9858C9.59855 12.5012 9.50761 12.596 9.30583 12.596C8.76856 12.596 7.46455 10.6068 6.69177 8.33012C6.53577 7.88842 6.38339 7.71 5.97803 7.71H4.39694C3.94581 7.71 3.85486 7.92373 3.85486 8.16286C3.85486 8.58536 4.39212 10.6861 6.35327 13.4615C7.6603 15.3559 9.50098 16.3824 11.1754 16.3824C12.1819 16.3824 12.3048 16.1545 12.3048 15.7623C12.3048 13.9521 12.2138 13.7811 12.718 13.7811C12.9517 13.7811 13.354 13.9001 14.2936 14.8139C15.3675 15.8974 15.544 16.3824 16.1451 16.3824H17.7256C18.1762 16.3824 18.4044 16.1545 18.2731 15.7047C17.9726 14.7587 15.9416 12.8129 15.85 12.6828Z" fill="white"/>
</svg>
