<svg width="36" height="36" viewBox="0 0 36 36" fill="none" xmlns="http://www.w3.org/2000/svg">
<path d="M0 8.68966C0 3.89049 3.89049 0 8.68966 0H27.3103C32.1095 0 36 3.89049 36 8.68966V27.3103C36 32.1095 32.1095 36 27.3103 36H8.68966C3.89049 36 0 32.1095 0 27.3103V8.68966Z" fill="#1441B1"/>
<path d="M7.79586 25.5377C9.58014 23.5217 11.2022 21.4477 12.6621 19.3159C14.1219 17.1608 15.5239 14.9015 16.8679 12.5379C16.8215 12.2599 16.7983 11.9702 16.7983 11.669C16.7983 10.5103 17.0069 9.65296 17.424 9.09683C17.8643 8.54069 18.2234 8.20469 18.5015 8.08883C18.8954 7.99614 19.3126 8.00772 19.7528 8.12358C20.2163 8.21627 20.6334 8.37848 21.0041 8.61021C21.3749 8.84193 21.6298 9.12 21.7688 9.44441C21.6993 9.88469 21.4908 10.4408 21.1432 11.1128C20.8188 11.7848 20.4364 12.4916 19.9961 13.2331C20.1583 13.5112 20.3669 13.7777 20.6218 14.0325C20.8999 14.2874 21.2243 14.5655 21.595 14.8668L24.2367 17.0218C25.1868 17.7865 25.8935 18.5859 26.357 19.4201C26.8436 20.2312 27.0869 21.1465 27.0869 22.1661C27.0869 23.232 26.8204 24.1937 26.2875 25.051C25.7545 25.9084 25.013 26.5804 24.0629 27.067C23.1128 27.5537 22.0121 27.797 20.7608 27.797C19.9498 27.797 19.1388 27.6695 18.3277 27.4146C17.5167 27.1829 16.6709 26.8006 15.7903 26.2676C15.744 25.0394 16.2074 24.1357 17.1807 23.5564C18.4552 24.3906 19.6601 24.8077 20.7956 24.8077C21.7688 24.8077 22.5451 24.5528 23.1244 24.043C23.7037 23.5101 23.9934 22.8381 23.9934 22.027C23.9934 21.0074 23.4372 20.0574 22.325 19.1768L19.6833 17.0913C19.1967 16.7206 18.7796 16.3266 18.432 15.9095C17.5978 17.2999 16.6825 18.7366 15.6861 20.2196C14.7128 21.6794 13.7396 23.0582 12.7663 24.3559C11.7931 25.6303 10.9126 26.6847 10.1247 27.5189C8.82703 27.3799 8.05076 26.7194 7.79586 25.5377Z" fill="white"/>
</svg>
