<svg width="144" height="24" viewBox="0 0 144 24" fill="none" xmlns="http://www.w3.org/2000/svg">
<path d="M0 9.02948C0 4.04263 4.04263 0 9.02948 0H141.291C142.787 0 144 1.21279 144 2.70884V14.9705C144 19.9574 139.957 24 134.971 24H2.70885C1.2128 24 0 22.7872 0 21.2912V9.02948Z" fill="#D6D6D6"/>
<path d="M4.07323 19.0749C5.00435 18.0229 5.85082 16.9406 6.61264 15.8281C7.37446 14.7035 8.10605 13.5245 8.80741 12.2911C8.78323 12.146 8.77114 11.9948 8.77114 11.8376C8.77114 11.233 8.87997 10.7856 9.09763 10.4954C9.32739 10.2051 9.51482 10.0298 9.65993 9.96934C9.8655 9.92097 10.0832 9.92701 10.3129 9.98748C10.5548 10.0358 10.7724 10.1205 10.9659 10.2414C11.1594 10.3623 11.2924 10.5075 11.365 10.6767C11.3287 10.9065 11.2199 11.1967 11.0385 11.5474C10.8692 11.8981 10.6696 12.2669 10.4399 12.6539C10.5245 12.799 10.6334 12.938 10.7664 13.071C10.9115 13.2041 11.0808 13.3492 11.2743 13.5064L12.6528 14.631C13.1486 15.03 13.5174 15.4472 13.7593 15.8825C14.0132 16.3058 14.1402 16.7834 14.1402 17.3155C14.1402 17.9564 13.9588 18.5247 13.596 19.0205C13.6565 19.1535 13.6867 19.3107 13.6867 19.4921C13.6867 19.7219 13.6262 19.9033 13.5053 20.0363C13.3965 20.1814 13.2393 20.2539 13.0337 20.2539C12.8402 20.2539 12.6528 20.2418 12.4714 20.2177C12.29 20.1935 12.0905 20.1632 11.8728 20.127C11.5463 20.2116 11.2017 20.2539 10.8389 20.2539C10.4157 20.2539 9.99247 20.1874 9.56924 20.0544C9.146 19.9335 8.70463 19.734 8.24512 19.4558C8.22093 18.8149 8.46278 18.3433 8.97066 18.041C9.63574 18.4764 10.2646 18.694 10.8571 18.694C11.365 18.694 11.7701 18.561 12.0724 18.295C12.3747 18.0168 12.5258 17.6662 12.5258 17.2429C12.5258 16.7109 12.2356 16.2151 11.6552 15.7556L10.2766 14.6672C10.0227 14.4738 9.80504 14.2682 9.62365 14.0505C9.18832 14.7761 8.71067 15.5258 8.1907 16.2997C7.68282 17.0615 7.17494 17.781 6.66706 18.4582C6.15917 19.1233 5.69966 19.6735 5.28852 20.1088C4.61134 20.0363 4.20625 19.6916 4.07323 19.0749Z" fill="white"/>
<path d="M13.0764 20.2539C12.895 20.2539 12.7559 20.1814 12.6592 20.0363C12.5503 19.8912 12.4959 19.7037 12.4959 19.474C12.4959 19.2321 12.5564 19.0447 12.6773 18.9117C12.7982 18.7787 12.9554 18.7122 13.1489 18.7122C14.0075 18.7122 14.7693 18.4703 15.4344 17.9866C16.1116 17.4908 16.6436 16.8136 17.0306 15.9551C17.4175 15.0965 17.611 14.117 17.611 13.0166V11.4386C17.7199 11.4023 17.8468 11.3721 17.9919 11.3479C18.137 11.3237 18.2882 11.3116 18.4454 11.3116C18.7235 11.3116 18.9956 11.3539 19.2616 11.4386V15.6286C19.2616 16.6806 19.4309 17.4485 19.7695 17.9322C20.1081 18.4038 20.6402 18.6396 21.3657 18.6396C23.0949 18.6396 23.9595 17.3759 23.9595 14.8486V11.4386C24.0563 11.4023 24.1772 11.3721 24.3223 11.3479C24.4674 11.3237 24.6186 11.3116 24.7758 11.3116C25.066 11.3116 25.3441 11.3539 25.6102 11.4386V16.6625C25.6102 17.3034 25.7069 17.8052 25.9004 18.168C26.1059 18.5187 26.4445 18.694 26.9161 18.694C27.1217 18.694 27.2608 18.7787 27.3333 18.948C27.4059 19.1173 27.4422 19.2986 27.4422 19.4921C27.4422 19.6856 27.3877 19.8609 27.2789 20.0181C27.1822 20.1753 27.0189 20.2539 26.7892 20.2539C25.6283 20.2539 24.8423 19.7461 24.4312 18.7303C24.0926 19.2261 23.6572 19.607 23.1252 19.873C22.5931 20.127 21.9643 20.2539 21.2388 20.2539C19.4733 20.2539 18.3487 19.3893 17.865 17.6601C17.3329 18.4703 16.6557 19.1052 15.8334 19.5647C15.0112 20.0242 14.0921 20.2539 13.0764 20.2539Z" fill="white"/>
<path d="M26.792 20.2539C26.6348 20.2539 26.5078 20.1814 26.4111 20.0363C26.3144 19.8912 26.266 19.7037 26.266 19.474C26.266 18.954 26.4836 18.694 26.919 18.694C27.3059 18.694 27.6506 18.5005 27.9529 18.1136C28.2673 17.7145 28.5394 17.0555 28.7691 16.1365L29.3133 14.0143C29.8212 12.1278 30.7885 11.1846 32.2155 11.1846C32.7596 11.1846 33.2191 11.3479 33.594 11.6744C33.9689 11.9888 34.2288 12.4181 34.374 12.9622C34.7125 12.3939 35.1479 11.9585 35.6799 11.6562C36.212 11.3418 36.8045 11.1846 37.4575 11.1846C38.4007 11.1846 39.1263 11.493 39.6342 12.1097C40.1541 12.7264 40.4141 13.591 40.4141 14.7035V16.8257C40.4141 17.4908 40.4988 17.9685 40.6681 18.2587C40.8494 18.5489 41.1336 18.694 41.5206 18.694C41.6899 18.694 41.8168 18.7666 41.9015 18.9117C41.9982 19.0568 42.0466 19.2503 42.0466 19.4921C42.0466 19.6856 41.9922 19.8609 41.8833 20.0181C41.7866 20.1753 41.6234 20.2539 41.3936 20.2539C39.6402 20.2539 38.7635 19.1777 38.7635 17.0253V14.7035C38.7635 13.3975 38.2496 12.7445 37.2217 12.7445C36.6897 12.7445 36.218 12.9562 35.8069 13.3794C35.4079 13.8026 35.0935 14.3891 34.8637 15.1388C34.646 15.8886 34.5372 16.7592 34.5372 17.7508V20C34.4163 20.0363 34.2833 20.0665 34.1381 20.0907C33.993 20.1149 33.854 20.127 33.721 20.127C33.4307 20.127 33.1587 20.0846 32.9047 20V14.2138C32.9047 13.7422 32.8443 13.3794 32.7233 13.1255C32.6024 12.8715 32.3848 12.7445 32.0703 12.7445C31.8164 12.7445 31.5987 12.8594 31.4174 13.0892C31.236 13.3189 31.0788 13.6878 30.9458 14.1956L30.2746 16.8076C29.9602 18.0048 29.5249 18.8815 28.9686 19.4377C28.4124 19.9819 27.6868 20.2539 26.792 20.2539Z" fill="white"/>
<path d="M41.3879 20.2539C41.2307 20.2539 41.1038 20.1814 41.007 20.0363C40.9103 19.8912 40.8619 19.7037 40.8619 19.474C40.8619 18.954 41.0796 18.694 41.5149 18.694C41.9019 18.694 42.3311 18.4582 42.8027 17.9866C43.2743 17.5029 43.8246 16.729 44.4534 15.6649L46.3942 12.3818C46.37 12.2125 46.3579 12.0311 46.3579 11.8376C46.3579 11.233 46.4668 10.7856 46.6844 10.4954C46.9142 10.2051 47.1016 10.0298 47.2467 9.96934C47.4523 9.92097 47.6699 9.92701 47.8997 9.98748C48.1415 10.0358 48.3592 10.1205 48.5527 10.2414C48.7462 10.3623 48.8792 10.5075 48.9517 10.6767C48.9034 10.8944 48.8127 11.1544 48.6797 11.4567C48.5466 11.759 48.335 12.1641 48.0448 12.672C48.1295 12.805 48.2383 12.938 48.3713 13.071C48.5043 13.2041 48.6676 13.3492 48.861 13.5064L50.2396 14.631C50.7354 15.03 51.1042 15.4472 51.346 15.8825C51.6 16.3058 51.727 16.7834 51.727 17.3155C51.727 17.9564 51.5456 18.5247 51.1828 19.0205C51.2433 19.1535 51.2735 19.3107 51.2735 19.4921C51.2735 19.7219 51.213 19.9033 51.0921 20.0363C50.9833 20.1814 50.8261 20.2539 50.6205 20.2539C50.427 20.2539 50.2396 20.2418 50.0582 20.2177C49.8768 20.1935 49.6773 20.1632 49.4596 20.127C49.1331 20.2116 48.7885 20.2539 48.4257 20.2539C48.0025 20.2539 47.5793 20.1874 47.156 20.0544C46.7328 19.9335 46.2914 19.734 45.8319 19.4558C45.8077 18.8149 46.0496 18.3433 46.5574 18.041C47.2225 18.4764 47.8513 18.694 48.4439 18.694C48.9517 18.694 49.3568 18.561 49.6591 18.295C49.9615 18.0168 50.1126 17.6662 50.1126 17.2429C50.1126 16.7109 49.8224 16.2151 49.242 15.7556L47.8634 14.6672C47.6216 14.4738 47.4039 14.2742 47.2104 14.0687L45.3966 17.1341C44.7315 18.2587 44.0906 19.0628 43.4739 19.5465C42.8693 20.0181 42.1739 20.2539 41.3879 20.2539Z" fill="white"/>
<path d="M50.6281 20.2539C50.4709 20.2539 50.344 20.1814 50.2472 20.0363C50.1384 19.8912 50.084 19.7037 50.084 19.474C50.084 18.9661 50.3077 18.7122 50.7551 18.7122C51.6258 18.7122 52.4239 18.4098 53.1494 17.8052C53.875 17.1885 54.5219 16.3118 55.0903 15.1751V5.87001C55.0903 4.66077 55.3442 3.72965 55.8521 3.07666C56.372 2.42367 57.1218 2.10322 58.1013 2.11531C58.9961 2.1274 59.6914 2.46599 60.1872 3.13107C60.6951 3.79616 60.949 4.66077 60.949 5.7249C60.949 7.49039 60.417 9.45541 59.3528 11.62C59.4375 11.6079 59.5221 11.6018 59.6068 11.6018C60.5137 11.6018 61.2332 11.9223 61.7653 12.5632C62.3094 13.2041 62.5815 14.0626 62.5815 15.1388V16.6988C62.5815 17.4001 62.6662 17.908 62.8354 18.2224C63.0168 18.5368 63.3131 18.694 63.7242 18.694C63.9177 18.694 64.0568 18.7726 64.1414 18.9298C64.2261 19.0749 64.2684 19.2624 64.2684 19.4921C64.2684 19.7219 64.2079 19.9033 64.087 20.0363C63.9782 20.1814 63.821 20.2539 63.6154 20.2539C62.7448 20.2539 62.0736 19.9758 61.602 19.4196C61.1425 18.8512 60.9128 18.0531 60.9128 17.0253V15.1026C60.9128 14.4859 60.7737 14.0082 60.4956 13.6696C60.2295 13.3189 59.8486 13.1436 59.3528 13.1436C58.8691 13.1436 58.4338 13.3068 58.0468 13.6333C57.6599 13.9477 57.3515 14.3831 57.1218 14.9393C56.892 15.4956 56.7711 16.1365 56.759 16.862V20C56.6381 20.0363 56.5051 20.0665 56.36 20.0907C56.2148 20.1149 56.0758 20.127 55.9428 20.127C55.6646 20.127 55.3805 20.0846 55.0903 20V17.9685C54.4977 18.7424 53.8145 19.3168 53.0406 19.6916C52.2667 20.0665 51.4625 20.2539 50.6281 20.2539ZM56.7046 5.85187V12.9985C57.5511 11.7167 58.198 10.447 58.6454 9.18938C59.1049 7.93177 59.3347 6.77089 59.3347 5.70676C59.3347 5.02958 59.2198 4.51566 58.9901 4.16498C58.7724 3.8022 58.4519 3.62082 58.0287 3.62082C57.146 3.62082 56.7046 4.3645 56.7046 5.85187Z" fill="white"/>
<path d="M63.7453 18.694C63.9993 18.694 64.2714 18.6154 64.5616 18.4582C64.8518 18.301 65.1239 18.0592 65.3778 17.7327C65.6801 17.3215 65.8978 16.8499 66.0308 16.3179C66.1759 15.7858 66.2666 15.2477 66.3029 14.7035V11.4386C66.4117 11.4023 66.5387 11.3721 66.6838 11.3479C66.8289 11.3237 66.9801 11.3116 67.1373 11.3116C67.4154 11.3116 67.6875 11.3539 67.9535 11.4386V16.6625C67.9535 17.3034 68.0502 17.8052 68.2437 18.168C68.4493 18.5187 68.7879 18.694 69.2595 18.694C69.4651 18.694 69.6041 18.7787 69.6767 18.948C69.7492 19.1173 69.7855 19.2986 69.7855 19.4921C69.7855 19.6856 69.7311 19.8609 69.6223 20.0181C69.5255 20.1753 69.3623 20.2539 69.1325 20.2539C67.8749 20.2539 67.0587 19.6614 66.6838 18.4764C66.5145 18.7545 66.3331 18.9903 66.1396 19.1838C65.8132 19.5103 65.4322 19.7702 64.9969 19.9637C64.5737 20.1572 64.1142 20.2539 63.6184 20.2539C63.4491 20.2539 63.3221 20.1693 63.2375 20C63.1407 19.8428 63.0924 19.6675 63.0924 19.474C63.0924 19.2684 63.1468 19.087 63.2556 18.9298C63.3523 18.7726 63.5156 18.694 63.7453 18.694ZM67.1554 8.8266C66.8168 8.8266 66.5266 8.70568 66.2848 8.46383C66.0429 8.22198 65.922 7.93177 65.922 7.59318C65.922 7.23041 66.0369 6.93414 66.2666 6.70438C66.5085 6.47463 66.8047 6.35975 67.1554 6.35975C67.5182 6.35975 67.8144 6.47463 68.0442 6.70438C68.274 6.93414 68.3888 7.23041 68.3888 7.59318C68.3888 7.94386 68.2679 8.24012 68.0261 8.48197C67.7963 8.71173 67.5061 8.8266 67.1554 8.8266Z" fill="white"/>
<path d="M69.1273 20.2539C68.9701 20.2539 68.8431 20.1814 68.7464 20.0363C68.6496 19.8912 68.6013 19.7037 68.6013 19.474C68.6013 18.954 68.8189 18.694 69.2543 18.694C69.6412 18.694 69.9858 18.5005 70.2882 18.1136C70.6026 17.7145 70.8746 17.0555 71.1044 16.1365L71.6486 14.0143C72.1564 12.1278 73.1238 11.1846 74.5507 11.1846C75.0949 11.1846 75.5544 11.3479 75.9293 11.6744C76.3041 11.9888 76.5641 12.4181 76.7092 12.9622C77.0478 12.3939 77.4831 11.9585 78.0152 11.6562C78.5473 11.3418 79.1398 11.1846 79.7928 11.1846C80.736 11.1846 81.4615 11.493 81.9694 12.1097C82.4894 12.7264 82.7494 13.591 82.7494 14.7035V16.8257C82.7494 17.4908 82.834 17.9685 83.0033 18.2587C83.1847 18.5489 83.4689 18.694 83.8559 18.694C84.0251 18.694 84.1521 18.7666 84.2368 18.9117C84.3335 19.0568 84.3819 19.2503 84.3819 19.4921C84.3819 19.6856 84.3275 19.8609 84.2186 20.0181C84.1219 20.1753 83.9586 20.2539 83.7289 20.2539C81.9755 20.2539 81.0988 19.1777 81.0988 17.0253V14.7035C81.0988 13.3975 80.5848 12.7445 79.557 12.7445C79.0249 12.7445 78.5533 12.9562 78.1422 13.3794C77.7431 13.8026 77.4287 14.3891 77.199 15.1388C76.9813 15.8886 76.8725 16.7592 76.8725 17.7508V20C76.7515 20.0363 76.6185 20.0665 76.4734 20.0907C76.3283 20.1149 76.1893 20.127 76.0562 20.127C75.766 20.127 75.4939 20.0846 75.24 20V14.2138C75.24 13.7422 75.1795 13.3794 75.0586 13.1255C74.9377 12.8715 74.72 12.7445 74.4056 12.7445C74.1517 12.7445 73.934 12.8594 73.7526 13.0892C73.5712 13.3189 73.414 13.6878 73.281 14.1956L72.6099 16.8076C72.2955 18.0048 71.8602 18.8815 71.3039 19.4377C70.7477 19.9819 70.0221 20.2539 69.1273 20.2539Z" fill="white"/>
<path d="M83.7232 20.2539C83.566 20.2539 83.439 20.1814 83.3423 20.0363C83.2456 19.8912 83.1972 19.7037 83.1972 19.474C83.1972 18.954 83.4149 18.694 83.8502 18.694C84.2009 18.694 84.5576 18.6396 84.9204 18.5308C85.2831 18.4098 85.7064 18.2103 86.1901 17.9322C85.7185 17.1099 85.4827 16.1425 85.4827 15.03C85.4827 14.2803 85.6217 13.6212 85.8998 13.0529C86.178 12.4725 86.5649 12.019 87.0607 11.6925C87.5565 11.3539 88.1188 11.1846 88.7476 11.1846C89.2797 11.1846 89.7513 11.3116 90.1624 11.5655C90.5736 11.8074 90.894 12.146 91.1238 12.5813C91.3535 13.0166 91.4684 13.5185 91.4684 14.0868C91.4684 14.8607 91.2386 15.5681 90.7791 16.209C90.3317 16.8499 89.5699 17.5452 88.4937 18.295C88.8806 18.5731 89.4006 18.7122 90.0536 18.7122C90.4043 18.7122 90.755 18.6638 91.1056 18.567C91.4563 18.4703 91.7949 18.3373 92.1214 18.168C92.3028 18.301 92.4358 18.5005 92.5204 18.7666C92.6172 19.0205 92.6656 19.2684 92.6656 19.5103C92.2665 19.74 91.8433 19.9214 91.3959 20.0544C90.9484 20.1874 90.4768 20.2539 89.981 20.2539H89.9629C89.3825 20.2539 88.8383 20.1572 88.3304 19.9637C87.8225 19.7702 87.3993 19.5042 87.0607 19.1656C85.8998 19.8912 84.7873 20.2539 83.7232 20.2539ZM87.0607 14.8849C87.0607 15.8402 87.23 16.602 87.5686 17.1704C88.3546 16.6262 88.935 16.0941 89.3099 15.5742C89.6969 15.0542 89.8903 14.5584 89.8903 14.0868C89.8903 13.6515 89.7815 13.3129 89.5638 13.071C89.3583 12.8171 89.0681 12.6901 88.6932 12.6901C88.2216 12.6901 87.8286 12.9017 87.5142 13.325C87.2119 13.7482 87.0607 14.2682 87.0607 14.8849Z" fill="white"/>
<path d="M95.3885 20.2539C95.0499 20.2539 94.7597 20.133 94.5178 19.8912C94.276 19.6372 94.155 19.341 94.155 19.0024C94.155 18.6638 94.276 18.3736 94.5178 18.1317C94.7597 17.8899 95.0499 17.7689 95.3885 17.7689C95.7271 17.7689 96.0173 17.8899 96.2591 18.1317C96.5131 18.3736 96.64 18.6638 96.64 19.0024C96.64 19.341 96.5131 19.6372 96.2591 19.8912C96.0173 20.133 95.7271 20.2539 95.3885 20.2539Z" fill="white"/>
<path d="M102.041 20.2539C101.279 20.2539 100.608 20.0726 100.027 19.7098C99.4589 19.347 99.0115 18.8391 98.685 18.1861C98.3706 17.5331 98.2134 16.7834 98.2134 15.9369C98.2134 15.0179 98.3948 14.2017 98.7576 13.4882C99.1203 12.7748 99.6101 12.2125 100.227 11.8013C100.856 11.3902 101.569 11.1846 102.367 11.1846C102.79 11.1846 103.208 11.2693 103.619 11.4386C104.03 11.5958 104.375 11.8134 104.653 12.0916V11.3479C104.761 11.3116 104.888 11.2814 105.034 11.2572C105.179 11.233 105.33 11.2209 105.487 11.2209C105.777 11.2209 106.049 11.2632 106.303 11.3479V16.8257C106.303 17.4908 106.388 17.9685 106.557 18.2587C106.739 18.5489 107.023 18.694 107.41 18.694C107.579 18.694 107.706 18.7666 107.791 18.9117C107.887 19.0568 107.936 19.2503 107.936 19.4921C107.936 19.6856 107.881 19.8609 107.772 20.0181C107.676 20.1753 107.512 20.2539 107.283 20.2539C106.134 20.2539 105.36 19.7823 104.961 18.8391C104.61 19.2865 104.187 19.6372 103.691 19.8912C103.195 20.133 102.645 20.2539 102.041 20.2539ZM99.9003 15.9369C99.9003 16.7955 100.094 17.4727 100.481 17.9685C100.88 18.4522 101.424 18.694 102.113 18.694C102.875 18.694 103.486 18.434 103.945 17.9141C104.417 17.3941 104.653 16.7109 104.653 15.8644V13.8329C104.411 13.5064 104.102 13.2464 103.728 13.0529C103.353 12.8473 102.966 12.7445 102.567 12.7445C102.047 12.7445 101.587 12.8836 101.188 13.1617C100.789 13.4399 100.475 13.8208 100.245 14.3045C100.015 14.7761 99.9003 15.3202 99.9003 15.9369Z" fill="white"/>
<path d="M107.41 18.694C107.664 18.694 107.935 18.6154 108.225 18.4582C108.516 18.301 108.788 18.0592 109.042 17.7327C109.392 17.249 109.634 16.6806 109.767 16.0276C109.912 15.3746 109.985 14.7398 109.985 14.1231V11.4386C110.094 11.4023 110.221 11.3721 110.366 11.3479C110.511 11.3237 110.662 11.3116 110.819 11.3116C111.097 11.3116 111.369 11.3539 111.635 11.4386V15.6286C111.635 16.6806 111.805 17.4485 112.143 17.9322C112.482 18.4038 113.014 18.6396 113.74 18.6396C115.469 18.6396 116.333 17.3759 116.333 14.8486V11.4386C116.43 11.4023 116.551 11.3721 116.696 11.3479C116.841 11.3237 116.992 11.3116 117.15 11.3116C117.44 11.3116 117.718 11.3539 117.984 11.4386V16.6625C117.984 17.3034 118.081 17.8052 118.274 18.168C118.48 18.5187 118.818 18.694 119.29 18.694C119.496 18.694 119.635 18.7787 119.707 18.948C119.78 19.1173 119.816 19.2986 119.816 19.4921C119.816 19.6856 119.762 19.8609 119.653 20.0181C119.556 20.1753 119.393 20.2539 119.163 20.2539C118.002 20.2539 117.216 19.7461 116.805 18.7303C116.466 19.2261 116.031 19.607 115.499 19.873C114.967 20.127 114.338 20.2539 113.613 20.2539C112.077 20.2539 111.025 19.601 110.456 18.295C110.263 18.6456 110.045 18.9419 109.803 19.1838C109.477 19.5103 109.096 19.7702 108.661 19.9637C108.237 20.1572 107.779 20.2539 107.283 20.2539C107.113 20.2539 106.986 20.1693 106.901 20C106.805 19.8428 106.756 19.6675 106.756 19.474C106.756 19.2684 106.811 19.087 106.919 18.9298C107.016 18.7726 107.18 18.694 107.41 18.694Z" fill="white"/>
<path d="M119.295 18.694C119.597 18.694 119.942 18.6033 120.329 18.4219C120.728 18.2406 121.115 17.9322 121.49 17.4969C121.865 17.0615 122.173 16.4751 122.415 15.7374C122.657 14.9877 122.778 14.0505 122.778 12.9259V11.1846H121.435C121.351 10.9911 121.308 10.7493 121.308 10.4591C121.308 10.1689 121.351 9.92702 121.435 9.73354H122.778V6.523C123.007 6.43835 123.285 6.39603 123.612 6.39603C123.902 6.39603 124.18 6.43835 124.446 6.523V9.73354H127.149C127.246 9.92702 127.294 10.1689 127.294 10.4591C127.294 10.7493 127.246 10.9911 127.149 11.1846H124.446V14.9393C124.446 16.1486 124.628 17.0797 124.99 17.7327C125.365 18.3736 125.891 18.694 126.568 18.694C126.919 18.694 127.095 18.9601 127.095 19.4921C127.095 19.7219 127.034 19.9033 126.913 20.0363C126.804 20.1814 126.647 20.2539 126.442 20.2539C125.656 20.2539 124.99 20.0302 124.446 19.5828C123.914 19.1354 123.521 18.5126 123.267 17.7145C122.759 18.5852 122.137 19.2261 121.399 19.6372C120.661 20.0484 119.918 20.2539 119.168 20.2539C119.011 20.2539 118.884 20.1753 118.787 20.0181C118.69 19.873 118.642 19.6916 118.642 19.474C118.642 19.2442 118.696 19.0568 118.805 18.9117C118.914 18.7666 119.077 18.694 119.295 18.694Z" fill="white"/>
<path d="M126.575 18.694C126.974 18.694 127.361 18.5066 127.736 18.1317C128.123 17.7448 128.449 17.2308 128.715 16.5899C128.667 16.2997 128.643 16.0035 128.643 15.7011C128.643 14.8305 128.83 14.0566 129.205 13.3794C129.58 12.7022 130.088 12.1702 130.729 11.7832C131.382 11.3842 132.113 11.1846 132.924 11.1846C133.734 11.1846 134.459 11.3842 135.1 11.7832C135.741 12.1702 136.243 12.7022 136.606 13.3794C136.981 14.0566 137.168 14.8305 137.168 15.7011C137.168 16.5718 136.981 17.3518 136.606 18.041C136.243 18.7303 135.741 19.2745 135.1 19.6735C134.471 20.0605 133.746 20.2539 132.924 20.2539C132.186 20.2539 131.515 20.0967 130.91 19.7823C130.318 19.4558 129.828 19.0145 129.441 18.4582C128.691 19.6554 127.694 20.2539 126.448 20.2539C126.291 20.2539 126.164 20.1814 126.067 20.0363C125.971 19.8912 125.922 19.7037 125.922 19.474C125.922 18.954 126.14 18.694 126.575 18.694ZM132.906 18.694C133.679 18.694 134.296 18.4219 134.756 17.8778C135.227 17.3336 135.463 16.6081 135.463 15.7011C135.463 14.8184 135.227 14.1049 134.756 13.5608C134.296 13.0166 133.685 12.7445 132.924 12.7445C132.162 12.7445 131.539 13.0227 131.055 13.5789C130.584 14.1231 130.348 14.8426 130.348 15.7374C130.348 16.6202 130.578 17.3336 131.037 17.8778C131.509 18.4219 132.132 18.694 132.906 18.694Z" fill="white"/>
</svg>
