<svg width="133" height="31" viewBox="0 0 133 31" fill="none" xmlns="http://www.w3.org/2000/svg">
<path d="M0 11.7976C0 5.28198 5.28199 0 11.7977 0H128.5C130.455 0 132.04 1.5846 132.04 3.5393V18.673C132.04 25.1887 126.758 30.4707 120.242 30.4707H3.5393C1.5846 30.4707 0 28.8861 0 26.9314V11.7976Z" fill="url(#paint0_linear_195_417)"/>
<path d="M6.23699 24.7913C7.45356 23.4168 8.55954 22.0027 9.55491 20.5491C10.5503 19.0798 11.5062 17.5393 12.4225 15.9277C12.3909 15.7382 12.3751 15.5407 12.3751 15.3353C12.3751 14.5453 12.5173 13.9607 12.8017 13.5815C13.1019 13.2023 13.3468 12.9732 13.5364 12.8942C13.805 12.831 14.0894 12.8389 14.3896 12.9179C14.7056 12.9811 14.99 13.0917 15.2428 13.2497C15.4956 13.4077 15.6694 13.5973 15.7642 13.8185C15.7168 14.1187 15.5746 14.4979 15.3376 14.9561C15.1164 15.4143 14.8557 15.8962 14.5555 16.4017C14.6661 16.5913 14.8083 16.773 14.9821 16.9468C15.1717 17.1206 15.3929 17.3102 15.6457 17.5156L17.4468 18.985C18.0946 19.5064 18.5765 20.0514 18.8925 20.6202C19.2243 21.1732 19.3902 21.7973 19.3902 22.4925C19.3902 23.3299 19.1532 24.0724 18.6792 24.7202C18.7582 24.894 18.7977 25.0994 18.7977 25.3364C18.7977 25.6366 18.7187 25.8736 18.5607 26.0474C18.4185 26.237 18.2131 26.3318 17.9445 26.3318C17.6917 26.3318 17.4468 26.316 17.2098 26.2844C16.9728 26.2528 16.7121 26.2133 16.4277 26.1659C16.0012 26.2765 15.5509 26.3318 15.0769 26.3318C14.5239 26.3318 13.9709 26.2449 13.4179 26.0711C12.8649 25.9131 12.2882 25.6524 11.6879 25.289C11.6563 24.4516 11.9723 23.8355 12.6358 23.4405C13.5048 24.0092 14.3264 24.2936 15.1006 24.2936C15.7642 24.2936 16.2934 24.1198 16.6884 23.7723C17.0834 23.4089 17.2809 22.9507 17.2809 22.3977C17.2809 21.7025 16.9017 21.0547 16.1434 20.4543L14.3422 19.0324C14.0104 18.7796 13.726 18.511 13.489 18.2266C12.9202 19.1746 12.2961 20.1541 11.6168 21.1653C10.9532 22.1607 10.2896 23.1008 9.62601 23.9855C8.96243 24.8545 8.36204 25.5734 7.82485 26.1422C6.94008 26.0474 6.41079 25.5971 6.23699 24.7913Z" fill="white"/>
<path d="M18.0002 26.3318C17.7632 26.3318 17.5815 26.237 17.4551 26.0474C17.313 25.8578 17.2419 25.6129 17.2419 25.3127C17.2419 24.9967 17.3209 24.7518 17.4788 24.578C17.6368 24.4042 17.8422 24.3173 18.095 24.3173C19.2168 24.3173 20.2122 24.0014 21.0812 23.3694C21.9659 22.7216 22.6611 21.8368 23.1667 20.715C23.6723 19.5933 23.9251 18.3135 23.9251 16.8757V14.8139C24.0673 14.7665 24.2332 14.727 24.4228 14.6954C24.6124 14.6638 24.8099 14.648 25.0153 14.648C25.3787 14.648 25.7341 14.7033 26.0817 14.8139V20.2884C26.0817 21.663 26.3029 22.6663 26.7453 23.2983C27.1877 23.9145 27.8829 24.2225 28.8309 24.2225C31.0902 24.2225 32.2199 22.5715 32.2199 19.2694V14.8139C32.3463 14.7665 32.5043 14.727 32.6939 14.6954C32.8835 14.6638 33.081 14.648 33.2864 14.648C33.6655 14.648 34.0289 14.7033 34.3765 14.8139V21.6393C34.3765 22.4767 34.5029 23.1324 34.7557 23.6064C35.0243 24.0645 35.4667 24.2936 36.0829 24.2936C36.3515 24.2936 36.5332 24.4042 36.628 24.6254C36.7228 24.8466 36.7702 25.0836 36.7702 25.3364C36.7702 25.5892 36.6991 25.8183 36.5569 26.0237C36.4305 26.2291 36.2172 26.3318 35.917 26.3318C34.4002 26.3318 33.3733 25.6682 32.8361 24.341C32.3937 24.9888 31.8249 25.4865 31.1297 25.8341C30.4345 26.1659 29.6129 26.3318 28.665 26.3318C26.3582 26.3318 24.8889 25.2021 24.2569 22.9428C23.5617 24.0013 22.6769 24.8308 21.6025 25.4312C20.5282 26.0316 19.3274 26.3318 18.0002 26.3318Z" fill="white"/>
<path d="M35.9207 26.3318C35.7153 26.3318 35.5494 26.237 35.423 26.0474C35.2966 25.8578 35.2334 25.6129 35.2334 25.3127C35.2334 24.6333 35.5178 24.2936 36.0866 24.2936C36.5922 24.2936 37.0425 24.0408 37.4375 23.5353C37.8482 23.0139 38.2037 22.1528 38.5039 20.952L39.2149 18.1792C39.8785 15.7145 41.1425 14.4821 43.0068 14.4821C43.7178 14.4821 44.3182 14.6954 44.808 15.122C45.2978 15.5328 45.6375 16.0936 45.827 16.8046C46.2694 16.062 46.8382 15.4933 47.5334 15.0983C48.2286 14.6875 49.0028 14.4821 49.8559 14.4821C51.0883 14.4821 52.0363 14.885 52.6999 15.6908C53.3793 16.4965 53.719 17.6262 53.719 19.0798V21.8526C53.719 22.7216 53.8296 23.3457 54.0507 23.7249C54.2877 24.104 54.659 24.2936 55.1646 24.2936C55.3858 24.2936 55.5517 24.3884 55.6623 24.578C55.7887 24.7676 55.8519 25.0204 55.8519 25.3364C55.8519 25.5892 55.7808 25.8183 55.6386 26.0237C55.5122 26.2291 55.2989 26.3318 54.9987 26.3318C52.7078 26.3318 51.5623 24.9256 51.5623 22.1133V19.0798C51.5623 17.3734 50.8908 16.5202 49.5479 16.5202C48.8527 16.5202 48.2365 16.7967 47.6993 17.3497C47.1779 17.9027 46.7671 18.669 46.4669 19.6486C46.1825 20.6281 46.0403 21.7657 46.0403 23.0613V26C45.8823 26.0474 45.7086 26.0869 45.519 26.1185C45.3294 26.1501 45.1477 26.1659 44.9739 26.1659C44.5947 26.1659 44.2392 26.1106 43.9074 26V18.4399C43.9074 17.8237 43.8284 17.3497 43.6704 17.0179C43.5124 16.6861 43.228 16.5202 42.8172 16.5202C42.4854 16.5202 42.201 16.6703 41.964 16.9705C41.7271 17.2707 41.5217 17.7526 41.3479 18.4162L40.471 21.8289C40.0602 23.3931 39.4914 24.5385 38.7646 25.2653C38.0378 25.9763 37.0899 26.3318 35.9207 26.3318Z" fill="white"/>
<path d="M54.9913 26.3318C54.7859 26.3318 54.62 26.237 54.4936 26.0474C54.3672 25.8578 54.304 25.6129 54.304 25.3127C54.304 24.6333 54.5884 24.2936 55.1572 24.2936C55.6628 24.2936 56.2237 23.9856 56.8399 23.3694C57.4561 22.7374 58.1749 21.7262 58.9965 20.3358L61.5324 16.0462C61.5008 15.8251 61.485 15.5881 61.485 15.3353C61.485 14.5453 61.6272 13.9607 61.9115 13.5815C62.2117 13.2023 62.4566 12.9732 62.6462 12.8942C62.9148 12.831 63.1992 12.8389 63.4994 12.9179C63.8154 12.9811 64.0998 13.0917 64.3526 13.2497C64.6054 13.4077 64.7792 13.5973 64.874 13.8185C64.8108 14.1029 64.6923 14.4426 64.5185 14.8376C64.3447 15.2326 64.0682 15.7619 63.689 16.4254C63.7996 16.5992 63.9418 16.773 64.1156 16.9468C64.2894 17.1206 64.5027 17.3102 64.7555 17.5156L66.5566 18.985C67.2044 19.5064 67.6863 20.0514 68.0023 20.6202C68.3341 21.1732 68.5 21.7973 68.5 22.4925C68.5 23.3299 68.263 24.0724 67.789 24.7202C67.868 24.894 67.9075 25.0994 67.9075 25.3364C67.9075 25.6366 67.8285 25.8736 67.6705 26.0474C67.5283 26.237 67.3229 26.3318 67.0543 26.3318C66.8015 26.3318 66.5566 26.316 66.3196 26.2844C66.0826 26.2528 65.822 26.2133 65.5376 26.1659C65.111 26.2765 64.6607 26.3318 64.1867 26.3318C63.6337 26.3318 63.0807 26.2449 62.5277 26.0711C61.9747 25.9131 61.3981 25.6524 60.7977 25.289C60.7661 24.4516 61.0821 23.8355 61.7457 23.4405C62.6146 24.0092 63.4362 24.2936 64.2104 24.2936C64.874 24.2936 65.4033 24.1198 65.7982 23.7723C66.1932 23.4089 66.3907 22.9507 66.3907 22.3977C66.3907 21.7025 66.0115 21.0547 65.2532 20.4543L63.452 19.0324C63.136 18.7796 62.8516 18.5189 62.5988 18.2503L60.2289 22.2555C59.3599 23.7249 58.5225 24.7755 57.7168 25.4075C56.9268 26.0237 56.0183 26.3318 54.9913 26.3318Z" fill="white"/>
<path d="M67.0643 26.3318C66.8589 26.3318 66.693 26.237 66.5666 26.0474C66.4244 25.8578 66.3533 25.6129 66.3533 25.3127C66.3533 24.6491 66.6456 24.3173 67.2302 24.3173C68.3678 24.3173 69.4106 23.9224 70.3585 23.1324C71.3065 22.3266 72.1518 21.1811 72.8944 19.696V7.53816C72.8944 5.95819 73.2262 4.74163 73.8897 3.88845C74.5691 3.03527 75.5487 2.61658 76.8285 2.63238C77.9976 2.64818 78.9061 3.09057 79.5539 3.95954C80.2175 4.82852 80.5493 5.95819 80.5493 7.34856C80.5493 9.6553 79.8541 12.2227 78.4637 15.0509C78.5743 15.0351 78.6849 15.0272 78.7955 15.0272C79.9805 15.0272 80.9206 15.4459 81.6158 16.2832C82.3267 17.1206 82.6822 18.2424 82.6822 19.6486V21.6867C82.6822 22.6031 82.7928 23.2667 83.014 23.6775C83.251 24.0882 83.6381 24.2936 84.1753 24.2936C84.4281 24.2936 84.6098 24.3963 84.7204 24.6017C84.831 24.7913 84.8863 25.0362 84.8863 25.3364C84.8863 25.6366 84.8073 25.8736 84.6493 26.0474C84.5071 26.237 84.3017 26.3318 84.0331 26.3318C82.8955 26.3318 82.0186 25.9684 81.4025 25.2416C80.8021 24.499 80.5019 23.4563 80.5019 22.1133V19.6012C80.5019 18.7954 80.3202 18.1713 79.9568 17.7289C79.6092 17.2707 79.1115 17.0416 78.4637 17.0416C77.8318 17.0416 77.263 17.2549 76.7574 17.6815C76.2518 18.0923 75.8489 18.6611 75.5487 19.3879C75.2485 20.1146 75.0905 20.952 75.0747 21.9V26C74.9167 26.0474 74.7429 26.0869 74.5533 26.1185C74.3637 26.1501 74.182 26.1659 74.0082 26.1659C73.6449 26.1659 73.2736 26.1106 72.8944 26V23.3457C72.1202 24.3568 71.2275 25.1073 70.2163 25.5971C69.2052 26.0869 68.1545 26.3318 67.0643 26.3318ZM75.0036 7.51446V16.852C76.1096 15.1773 76.9549 13.5183 77.5395 11.8751C78.1398 10.232 78.44 8.71523 78.44 7.32486C78.44 6.44008 78.2899 5.7686 77.9897 5.31041C77.7054 4.83642 77.2867 4.59943 76.7337 4.59943C75.5803 4.59943 75.0036 5.5711 75.0036 7.51446Z" fill="white"/>
<path d="M84.2029 24.2936C84.5347 24.2936 84.8902 24.1909 85.2694 23.9855C85.6485 23.7802 86.004 23.4642 86.3358 23.0376C86.7308 22.5004 87.0152 21.8842 87.189 21.189C87.3786 20.4938 87.4971 19.7908 87.5445 19.0798V14.8139C87.6867 14.7665 87.8526 14.727 88.0422 14.6954C88.2318 14.6638 88.4293 14.648 88.6347 14.648C88.9981 14.648 89.3535 14.7033 89.7011 14.8139V21.6393C89.7011 22.4767 89.8275 23.1324 90.0803 23.6064C90.3489 24.0645 90.7913 24.2936 91.4075 24.2936C91.6761 24.2936 91.8578 24.4042 91.9526 24.6254C92.0474 24.8466 92.0948 25.0836 92.0948 25.3364C92.0948 25.5892 92.0237 25.8183 91.8815 26.0237C91.7551 26.2291 91.5418 26.3318 91.2416 26.3318C89.5984 26.3318 88.532 25.5576 88.0422 24.0092C87.821 24.3726 87.584 24.6807 87.3312 24.9335C86.9046 25.3601 86.4069 25.6998 85.8381 25.9526C85.2851 26.2054 84.6848 26.3318 84.037 26.3318C83.8158 26.3318 83.6499 26.2212 83.5393 26C83.4129 25.7946 83.3497 25.5655 83.3497 25.3127C83.3497 25.0441 83.4208 24.8071 83.563 24.6017C83.6894 24.3963 83.9027 24.2936 84.2029 24.2936ZM88.6584 11.4012C88.216 11.4012 87.8368 11.2432 87.5208 10.9272C87.2048 10.6112 87.0468 10.232 87.0468 9.7896C87.0468 9.31561 87.1969 8.92852 87.4971 8.62833C87.8131 8.32814 88.2002 8.17804 88.6584 8.17804C89.1324 8.17804 89.5194 8.32814 89.8196 8.62833C90.1198 8.92852 90.2699 9.31561 90.2699 9.7896C90.2699 10.2478 90.1119 10.6349 89.7959 10.9509C89.4957 11.2511 89.1166 11.4012 88.6584 11.4012Z" fill="white"/>
<path d="M91.2347 26.3318C91.0294 26.3318 90.8635 26.237 90.7371 26.0474C90.6107 25.8578 90.5475 25.6129 90.5475 25.3127C90.5475 24.6333 90.8319 24.2936 91.4007 24.2936C91.9062 24.2936 92.3565 24.0408 92.7515 23.5353C93.1623 23.0139 93.5178 22.1528 93.818 20.952L94.529 18.1792C95.1926 15.7145 96.4565 14.4821 98.3209 14.4821C99.0319 14.4821 99.6322 14.6954 100.122 15.122C100.612 15.5328 100.952 16.0936 101.141 16.8046C101.583 16.062 102.152 15.4933 102.847 15.0983C103.543 14.6875 104.317 14.4821 105.17 14.4821C106.402 14.4821 107.35 14.885 108.014 15.6908C108.693 16.4965 109.033 17.6262 109.033 19.0798V21.8526C109.033 22.7216 109.144 23.3457 109.365 23.7249C109.602 24.104 109.973 24.2936 110.479 24.2936C110.7 24.2936 110.866 24.3884 110.976 24.578C111.103 24.7676 111.166 25.0204 111.166 25.3364C111.166 25.5892 111.095 25.8183 110.953 26.0237C110.826 26.2291 110.613 26.3318 110.313 26.3318C108.022 26.3318 106.876 24.9256 106.876 22.1133V19.0798C106.876 17.3734 106.205 16.5202 104.862 16.5202C104.167 16.5202 103.551 16.7967 103.013 17.3497C102.492 17.9027 102.081 18.669 101.781 19.6486C101.497 20.6281 101.354 21.7657 101.354 23.0613V26C101.196 26.0474 101.023 26.0869 100.833 26.1185C100.643 26.1501 100.462 26.1659 100.288 26.1659C99.9087 26.1659 99.5532 26.1106 99.2215 26V18.4399C99.2215 17.8237 99.1425 17.3497 98.9845 17.0179C98.8265 16.6861 98.5421 16.5202 98.1313 16.5202C97.7995 16.5202 97.5151 16.6703 97.2781 16.9705C97.0411 17.2707 96.8357 17.7526 96.6619 18.4162L95.785 21.8289C95.3743 23.3931 94.8055 24.5385 94.0787 25.2653C93.3519 25.9763 92.4039 26.3318 91.2347 26.3318Z" fill="white"/>
<path d="M110.305 26.3318C110.1 26.3318 109.934 26.237 109.808 26.0474C109.681 25.8578 109.618 25.6129 109.618 25.3127C109.618 24.6333 109.902 24.2936 110.471 24.2936C110.929 24.2936 111.396 24.2225 111.87 24.0803C112.344 23.9224 112.897 23.6617 113.528 23.2983C112.912 22.2239 112.604 20.9599 112.604 19.5064C112.604 18.5268 112.786 17.6657 113.149 16.9231C113.513 16.1647 114.018 15.5723 114.666 15.1457C115.314 14.7033 116.049 14.4821 116.87 14.4821C117.565 14.4821 118.181 14.648 118.719 14.9798C119.256 15.2958 119.675 15.7382 119.975 16.3069C120.275 16.8757 120.425 17.5314 120.425 18.274C120.425 19.2852 120.125 20.2094 119.524 21.0468C118.94 21.8842 117.944 22.7927 116.538 23.7723C117.044 24.1356 117.723 24.3173 118.576 24.3173C119.035 24.3173 119.493 24.2541 119.951 24.1277C120.409 24.0013 120.852 23.8276 121.278 23.6064C121.515 23.7802 121.689 24.0408 121.8 24.3884C121.926 24.7202 121.989 25.0441 121.989 25.3601C121.468 25.6603 120.915 25.8973 120.33 26.0711C119.746 26.2449 119.129 26.3318 118.482 26.3318H118.458C117.7 26.3318 116.989 26.2054 116.325 25.9526C115.661 25.6998 115.108 25.3522 114.666 24.9098C113.149 25.8578 111.696 26.3318 110.305 26.3318ZM114.666 19.3168C114.666 20.5649 114.887 21.5603 115.33 22.3029C116.357 21.5919 117.115 20.8967 117.605 20.2173C118.11 19.538 118.363 18.8902 118.363 18.274C118.363 17.7052 118.221 17.2628 117.937 16.9468C117.668 16.615 117.289 16.4491 116.799 16.4491C116.183 16.4491 115.669 16.7256 115.259 17.2786C114.864 17.8316 114.666 18.511 114.666 19.3168Z" fill="white"/>
<defs>
<linearGradient id="paint0_linear_195_417" x1="-10.7485" y1="32.4599" x2="136.615" y2="-3.95921e-06" gradientUnits="userSpaceOnUse">
<stop stop-color="#D29C5D"/>
<stop offset="1" stop-color="#4638FF"/>
</linearGradient>
</defs>
</svg>
