<svg width="31" height="30" viewBox="0 0 31 30" fill="none" xmlns="http://www.w3.org/2000/svg">
<path d="M0.111084 0H30.1111V30H0.111084V0Z" fill="#EBEEF4"/>
<path d="M0.111084 7.17392V3.26086H30.1111V7.17392H0.111084Z" fill="#FF0F0F"/>
<path d="M0.111084 15V11.0869H30.1111V15H0.111084Z" fill="#FF0F0F"/>
<path d="M0.111084 22.8261V18.913H30.1111V22.8261H0.111084Z" fill="#FF0F0F"/>
<path d="M0.111084 30H30.1111V26.7391H0.111084V30Z" fill="#FF0F0F"/>
<path d="M0.111084 0H15.1111V15L0.111084 15V0Z" fill="#1441B1"/>
<path d="M2.73609 0.375023L3.24124 1.92973H4.87596L3.55345 2.8906L4.0586 4.44531L2.73609 3.48445L1.41357 4.44531L1.91873 2.8906L0.596209 1.92973H2.23093L2.73609 0.375023Z" fill="#EBEEF4"/>
<path d="M7.61108 0.375023L8.11624 1.92973H9.75096L8.42844 2.8906L8.9336 4.44531L7.61108 3.48445L6.28857 4.44531L6.79372 2.8906L5.47121 1.92973H7.10593L7.61108 0.375023Z" fill="#EBEEF4"/>
<path d="M12.9912 1.92973L12.4861 0.375023L11.9809 1.92973H10.3462L11.6687 2.8906L11.1636 4.44531L12.4861 3.48445L13.8086 4.44531L13.3034 2.8906L14.626 1.92973H12.9912Z" fill="#EBEEF4"/>
<path d="M2.73609 5.24998L3.24124 6.80469H4.87596L3.55345 7.76555L4.0586 9.32027L2.73609 8.3594L1.41357 9.32027L1.91873 7.76555L0.596209 6.80469H2.23093L2.73609 5.24998Z" fill="#EBEEF4"/>
<path d="M8.11624 6.80469L7.61108 5.24998L7.10593 6.80469H5.47121L6.79372 7.76555L6.28857 9.32027L7.61108 8.3594L8.9336 9.32027L8.42844 7.76555L9.75096 6.80469H8.11624Z" fill="#EBEEF4"/>
<path d="M12.4861 5.24998L12.9912 6.80469H14.626L13.3034 7.76555L13.8086 9.32027L12.4861 8.3594L11.1636 9.32027L11.6687 7.76555L10.3462 6.80469H11.9809L12.4861 5.24998Z" fill="#EBEEF4"/>
<path d="M3.24124 11.6797L2.73609 10.125L2.23093 11.6797H0.596209L1.91873 12.6406L1.41357 14.1953L2.73609 13.2344L4.0586 14.1953L3.55345 12.6406L4.87596 11.6797H3.24124Z" fill="#EBEEF4"/>
<path d="M7.61108 10.125L8.11624 11.6797H9.75096L8.42844 12.6406L8.9336 14.1953L7.61108 13.2344L6.28857 14.1953L6.79372 12.6406L5.47121 11.6797H7.10593L7.61108 10.125Z" fill="#EBEEF4"/>
<path d="M12.9912 11.6797L12.4861 10.125L11.9809 11.6797H10.3462L11.6687 12.6406L11.1636 14.1953L12.4861 13.2344L13.8086 14.1953L13.3034 12.6406L14.626 11.6797H12.9912Z" fill="#EBEEF4"/>
</svg>
